<svg xmlns="http://www.w3.org/2000/svg" height="1024" preserveAspectRatio="none" style="display: block;" version="1.1" viewBox="0 0 2048 2048" width="1024">
<path d="M 0 0 L 2048 0 L 2048 2048 L 0 2048 L 0 0 z" fill="rgb(35,35,35)" transform="translate(0,0)"></path>
<path d="M 1006.9 613.429 C 1013.57 612.7 1029.03 612.786 1035.94 612.911 C 1144.46 615.385 1247.63 660.574 1323.04 738.663 C 1286.22 760.227 1247.64 779.953 1210.64 801.338 C 1197.63 808.864 1181.91 818.308 1168.23 824.169 C 1149.18 812.936 1133.6 805.091 1112.55 797.774 C 974.851 749.904 833.332 823.421 787.49 961.5 C 782.455 977.446 778.887 993.984 776.835 1010.64 C 775.28 1020.45 776.657 1038.93 773.686 1047.92 C 770.8 1056.67 744.348 1070.49 736.266 1074.86 C 697.232 1095.95 659.231 1118.76 620.055 1139.4 C 614.141 1116.51 610.263 1093.14 608.466 1069.57 C 591.868 841.778 758.203 638.898 986.992 614.968 C 993.584 614.279 1000.28 613.891 1006.9 613.429 z" fill="rgb(245,158,11)" transform="translate(0,0)"></path>
<path d="M 1412.82 866.027 C 1419.52 876.893 1426.84 911.635 1429.61 925.6 C 1447.56 1012.68 1437.9 1103.19 1401.96 1184.52 C 1357.68 1287 1274.24 1367.51 1170.24 1408.1 C 1061.54 1450.04 942.349 1441.37 836.733 1394.66 C 816.353 1385.39 799.591 1376.62 780.78 1364.26 C 804.534 1344.39 832.79 1324.79 857.179 1305.06 C 876.828 1290.07 895.642 1274.17 916.059 1260.22 C 935.469 1246.96 954.928 1257.14 975.254 1261.58 C 984.1 1263.44 993.064 1264.69 1002.08 1265.31 C 1132.55 1275.02 1250.03 1176.01 1269.28 1047.95 C 1271.67 1032 1271.61 1017.65 1272.27 1001.53 C 1273.55 970.413 1300.75 956.485 1321.71 938.6 C 1351.65 913.755 1383.05 890.898 1412.82 866.027 z" fill="rgb(245,158,11)" transform="translate(0,0)"></path>
<path d="M 1649.64 599.341 L 1650.97 602.002 L 1031.01 1092.07 C 961.919 1148.28 893.254 1205 825.018 1262.25 C 791.008 1290.7 755.897 1320.94 721.44 1348.57 C 676.807 1344.63 631.991 1343.67 587.297 1340.81 C 520.358 1336.53 452.925 1334.62 386.047 1329.97 C 400.962 1322.49 416.843 1312.91 431.549 1304.61 L 522.198 1253.03 L 789.844 1100.14 C 1078.14 936.148 1364.75 769.205 1649.64 599.341 z" fill="rgb(245,158,11)" transform="translate(0,0)"></path>
<path d="M 1664.82 590.723 C 1659.85 595.651 1656.73 598.003 1650.97 602.002 L 1649.64 599.341 C 1655.08 596.002 1659.17 593.658 1664.82 590.723 z" fill="rgb(176,92,26)" transform="translate(0,0)"></path>
<metadata><recraft-signature>{"signed_by": "recraft", "signature_b64": "TCSq0Nw4IWQXk1l8RRFOHWi9FR4npikd78PpYF4Op9Xs/xl6u2V8VCyfLm+Di4gfSp42dghDW+Mva3olVcF1CQ==", "signing_algo": "Ed25519", "generation_timestamp": 1773297696, "identifier": "71bfff34-3a85-4f12-8481-963065c88ab0"}</recraft-signature></metadata></svg>