<svg xmlns="http://www.w3.org/2000/svg" height="1024" preserveAspectRatio="none" style="display: block;" version="1.1" viewBox="0 0 2048 2048" width="1024">
<path d="M 0 0 L 2048 0 L 2048 2048 L 0 2048 L 0 0 z" fill="rgb(30,26,24)" transform="translate(0,0)"></path>
<path d="M 1644.46 517.662 L 1646.28 520.271 L 1435.53 794.807 C 1352.51 901.868 1268.22 1007.1 1186.55 1115.09 C 1163.13 1146.6 1139.92 1178.26 1116.91 1210.06 L 1043.44 1309.14 C 1022.15 1338.03 996.339 1374.43 974.044 1401.95 C 882.339 1408.41 766.213 1436.76 679.933 1466.84 C 620.813 1487.44 560.451 1516.33 503.443 1542.45 C 517.02 1529.79 534.282 1516.04 548.616 1503.79 L 642.33 1423.46 L 947.48 1160.03 L 1059.25 1062.74 C 1089.3 1036.78 1120.72 1010.54 1150.14 983.949 C 1180.42 956.031 1210.5 927.902 1240.39 899.563 C 1301.49 842.877 1362.29 785.862 1422.78 728.521 C 1496.3 659.19 1573 589.087 1644.46 517.662 z" fill="rgb(245,158,11)" transform="translate(0,0)"></path>
<path d="M 1225.75 523.364 L 1226.88 526.371 C 1217.19 538.098 1205.87 553.842 1196.42 566.142 C 1172.59 597.047 1148.95 628.107 1125.52 659.319 L 962.892 874.431 L 715.827 1212.22 C 669.096 1275.35 622.909 1338.89 577.27 1402.81 C 562.957 1402.9 542.258 1405.94 527.836 1407.61 C 432.756 1418.65 308.503 1458.93 227.322 1510.53 C 460.596 1276.32 695.721 1043.95 932.675 813.459 L 1139.6 609.244 C 1168.3 580.804 1196.6 551.251 1225.75 523.364 z" fill="rgb(245,158,11)" transform="translate(0,0)"></path>
<path d="M 1296.09 1047.79 C 1302.2 1052.12 1313.61 1062.6 1319.79 1067.85 C 1336.61 1082.01 1353.32 1096.3 1369.92 1110.71 L 1473.04 1198.83 L 1812.92 1494.62 L 1809.66 1496.14 C 1700.77 1443.99 1583.32 1412.01 1463.02 1401.77 L 1288.12 1179.67 C 1272.95 1160.43 1256.84 1141.33 1241.96 1122.1 L 1296.09 1047.79 z" fill="rgb(245,158,11)" transform="translate(0,0)"></path>
<path d="M 1012.82 823.845 C 1024.97 828.375 1128.94 918.723 1148.48 933.516 L 1134.71 946.143 C 1130.05 950.515 1126.25 953.789 1121.29 957.82 C 1115.19 947.774 1104.11 934.467 1096.55 925.134 C 1080.6 905.533 1064.35 886.177 1047.81 867.075 C 1041.36 859.706 1014.49 831.182 1012.82 823.845 z" fill="rgb(245,158,11)" transform="translate(0,0)"></path>
<path d="M 928.582 745.633 C 932.81 749.443 958.958 771.367 960.907 774.412 L 960.69 775.514 C 955.987 776.423 935.217 753.619 929.667 749.025 C 929.311 747.893 928.95 746.762 928.582 745.633 z" fill="rgb(185,110,23)" transform="translate(0,0)"></path>
<path d="M 1644.46 517.662 C 1648.3 513.387 1653.77 508.633 1658.24 505.009 C 1654.43 510.217 1650.62 515.479 1646.28 520.271 L 1644.46 517.662 z" fill="rgb(185,110,23)" transform="translate(0,0)"></path>
<path d="M 1232.45 516.105 L 1233.5 518.42 L 1226.88 526.371 L 1225.75 523.364 C 1227.26 521.005 1230.37 518.248 1232.45 516.105 z" fill="rgb(185,110,23)" transform="translate(0,0)"></path>
<path d="M 1812.92 1494.62 C 1812.93 1494.63 1819.37 1499.58 1816.71 1499.8 C 1815.23 1499.91 1812.29 1497.76 1810.94 1496.92 L 1809.66 1496.14 L 1812.92 1494.62 z" fill="rgb(185,110,23)" transform="translate(0,0)"></path>
<path d="M 918.246 737.13 C 921.11 739.241 926.684 742.936 928.582 745.633 C 928.95 746.762 929.311 747.893 929.667 749.025 C 924.144 744.763 922.606 742.35 918.246 737.13 z" fill="rgb(87,56,28)" transform="translate(0,0)"></path>
<path d="M 1232.45 516.105 C 1236.81 509.348 1240.96 509.902 1233.5 518.42 L 1232.45 516.105 z" fill="rgb(87,56,28)" transform="translate(0,0)"></path>
<metadata><recraft-signature>{"signed_by": "recraft", "signature_b64": "RzwSRXpSUiTSRwnd9zV5GL8qaQorekKxvN4jYpW/kQsSsvOIGu6BmH9Ui7ENhmplTEoWdaSm67Yd0+fytvv6Bw==", "signing_algo": "Ed25519", "generation_timestamp": 1773296823, "identifier": "dfe0f436-478a-4473-b1dc-dd85972625a1"}</recraft-signature></metadata></svg>