<svg xmlns="http://www.w3.org/2000/svg" height="1024" preserveAspectRatio="none" style="display: block;" version="1.1" viewBox="0 0 2048 2048" width="1024">
<path d="M 0 0 L 2048 0 L 2048 2048 L 0 2048 L 0 0 z" fill="rgb(250,250,249)" transform="translate(0,0)"></path>
<path d="M 1333.54 544.505 L 1334.76 547.703 C 1318.16 571.68 1301.22 600.069 1285.01 625.042 L 1207.98 742.03 C 1200.09 754.193 1161.53 816.457 1152.13 823.777 C 1090.66 871.63 1021.11 918.641 959.869 967.485 C 955.322 971.112 932.152 1014.56 926.474 1023.24 C 882.883 1091.22 838.624 1158.77 793.704 1225.88 C 778.387 1248.57 762.609 1273.72 746.421 1295.63 C 741.612 1302.14 718.409 1318.45 710.724 1324.11 L 644.381 1372.69 C 585.814 1416.47 528.01 1462.42 469.563 1506.58 C 480.807 1491.48 494.978 1467.74 505.876 1451.14 C 531.985 1411.97 557.743 1372.57 583.148 1332.94 L 778.836 1034.73 L 842.903 936.592 C 848.629 927.833 868.826 895.628 875.313 889.262 C 884.812 879.939 911.034 861.072 922.478 852.45 C 951.494 830.196 980.668 808.148 1010 786.308 L 1248.31 607.845 C 1276.33 586.735 1306.06 565.928 1333.54 544.505 z" fill="rgb(245,158,11)" transform="translate(0,0)"></path>
<path d="M 1578.26 541.278 C 1548.71 587.548 1518.41 632.289 1488.32 678.109 L 1267.9 1011.76 L 1195.01 1122.21 C 1189.72 1130.21 1170.22 1161.24 1164.94 1166.25 C 1158.42 1172.45 1134.28 1190.21 1125.6 1196.53 C 1108.33 1208.97 1091.25 1221.7 1074.39 1234.69 C 970.585 1313.66 863.472 1388.74 760.918 1469.44 C 745.397 1481.66 727.969 1493.05 713.247 1506.16 L 711.075 1504.33 C 711.257 1504.12 711.439 1503.91 711.621 1503.71 C 756.703 1434.74 801.694 1365.59 846.773 1296.57 L 876.124 1251.99 C 883.465 1240.84 892.219 1225.02 902.382 1216.7 C 912.865 1208.11 924.737 1200.04 935.704 1191.99 C 971.429 1165.88 1007.02 1139.6 1042.48 1113.13 C 1056.1 1102.94 1075.1 1090.33 1086.66 1078.89 C 1091.22 1074.38 1102.48 1056.06 1106.4 1049.9 C 1116.15 1034.45 1125.98 1019.05 1135.9 1003.7 L 1229.57 859.923 C 1250.1 827.996 1272.65 791.634 1294.92 761.286 C 1303.52 749.576 1344.97 719.061 1358.17 709.062 L 1454.35 636.102 L 1527.71 579.799 C 1543.74 567.332 1561.83 552.454 1578.26 541.278 z" fill="rgb(245,158,11)" transform="translate(0,0)"></path>
<path d="M 1135.58 902.101 L 1135.53 903.347 C 1119.41 931.173 1097.95 961.466 1080.91 989.431 C 1074.4 1000.12 1054.17 1033.07 1046.95 1041.16 C 1041.65 1047.1 1007.32 1071.4 999.309 1077.27 L 914.823 1140.09 C 913.836 1136.38 939.46 1099.84 943.703 1093.11 L 982.697 1031.57 C 986.457 1025.66 1000.12 1003.5 1003.86 1000.08 C 1015.51 989.425 1034.77 976.054 1047.79 966.525 L 1135.58 902.101 z" fill="rgb(245,158,11)" transform="translate(0,0)"></path>
<path d="M 1333.54 544.505 C 1336.25 541.609 1339.13 538.946 1342.01 536.232 C 1339.26 541.151 1338.28 543.167 1334.76 547.703 L 1333.54 544.505 z" fill="rgb(234,186,109)" transform="translate(0,0)"></path>
<path d="M 711.075 1504.33 L 713.247 1506.16 C 707.52 1511.1 707.011 1509.99 711.075 1504.33 z" fill="rgb(234,186,109)" transform="translate(0,0)"></path>
<metadata><recraft-signature>{"signed_by": "recraft", "signature_b64": "QDxGPD7TLIeV7sXOFB05VDFb6qRed2IsFPWvqHu355jSzZywfrEsORLwO4VN61sh3BW2zix018Pe8vR62cMCCg==", "signing_algo": "Ed25519", "generation_timestamp": 1773296824, "identifier": "ac1bb72c-51f1-444b-8d22-b1e290f9369b"}</recraft-signature></metadata></svg>