<svg xmlns="http://www.w3.org/2000/svg" height="1024" preserveAspectRatio="none" style="display: block;" version="1.1" viewBox="0 0 2048 2048" width="1024">
<path d="M 0 0 L 2048 0 L 2048 2048 L 0 2048 L 0 0 z" fill="rgb(24,22,21)" transform="translate(0,0)"></path>
<path d="M 563.887 621.592 C 570.211 623.894 670.534 706.112 685.168 717.721 L 926.908 908.712 C 947.002 924.788 967.992 940.443 987.768 956.79 C 955.073 986.545 920.682 1015.32 887.471 1044.63 C 765.836 1151.51 643.188 1257.24 519.545 1361.79 C 496.709 1381.23 462.738 1411.93 438.783 1428.53 C 477.088 1385.54 516.296 1338.75 554.13 1294.99 L 717.372 1106.79 C 742.947 1076.98 768.771 1047.39 794.842 1018.01 C 810.677 1000.13 830.005 979.318 844.685 960.891 L 563.887 621.592 z" fill="rgb(197,108,9)" transform="translate(0,0)"></path>
<path d="M 1604.62 623.699 L 1605.02 626.42 C 1592.55 638.615 1576.85 657.626 1565.18 671.214 C 1542.08 698.37 1518.78 725.361 1495.29 752.184 L 1202.67 1084.82 C 1226.36 1110.7 1253.69 1145.56 1276.44 1173.13 L 1418.89 1346.06 C 1433.32 1363.75 1447.66 1381.52 1461.89 1399.37 C 1466.31 1404.87 1478.32 1420.44 1482.86 1424.85 L 1479.53 1425.01 C 1476.65 1421.42 1450.4 1401.43 1444.9 1397.13 L 1377.01 1343.48 L 1061.47 1094.39 C 1077.89 1078.64 1096.82 1062.42 1113.93 1047.19 C 1155.96 1009.61 1198.51 972.594 1241.55 936.17 L 1604.62 623.699 z" fill="rgb(197,108,9)" transform="translate(0,0)"></path>
<path d="M 1370.05 755.297 L 1370.13 758.297 C 1350.5 775.189 1330.29 794.567 1311.01 812.121 L 1200.68 911.817 C 1167.01 942.32 1133.13 972.606 1099.07 1002.67 C 1064.11 1033.44 1031.07 1061.67 996.735 1093.38 C 1002.58 1079.97 1008.4 1066.16 1014.43 1052.86 L 1011.05 1050.96 C 940.74 1102.91 870.067 1154.37 799.034 1205.33 C 772.33 1224.26 745.732 1243.35 719.242 1262.58 C 709.269 1269.82 694.334 1279.79 685.307 1287.11 L 683.26 1286.12 C 727.229 1249.5 775.59 1204.29 818.092 1165.7 L 940.749 1056.07 C 975.97 1024.3 1011.58 992.959 1047.56 962.056 L 1049.08 965.612 C 1045.89 972.859 1042.66 980.562 1039.31 987.697 C 1040.08 991.127 1040.24 992.774 1040.6 996.306 C 1149.49 916.581 1262.69 836.655 1370.05 755.297 z" fill="rgb(197,108,9)" transform="translate(0,0)"></path>
<path d="M 1039.31 987.697 C 1040.08 991.127 1040.24 992.774 1040.6 996.306 L 1039.1 997.321 C 1029.58 1003.85 1037.43 992.469 1039.31 987.697 z" fill="rgb(23,14,7)" transform="translate(0,0)"></path>
<path d="M 1011.05 1050.96 C 1016.35 1046.99 1018.26 1045.7 1014.43 1052.86 L 1011.05 1050.96 z" fill="rgb(23,14,7)" transform="translate(0,0)"></path>
<path d="M 1370.05 755.297 C 1374.64 751.039 1378.97 748.26 1384.11 744.811 C 1379.56 749.781 1375.61 754.231 1370.13 758.297 L 1370.05 755.297 z" fill="rgb(111,69,31)" transform="translate(0,0)"></path>
<path d="M 683.26 1286.12 L 685.307 1287.11 C 683.88 1288.43 675.214 1296.07 673.55 1295.29 C 673.191 1293.43 681.598 1287.25 683.26 1286.12 z" fill="rgb(111,69,31)" transform="translate(0,0)"></path>
<path d="M 1047.56 962.056 C 1048.36 961.141 1050.12 958.835 1051.49 958.696 C 1052.87 959.554 1049.6 964.617 1049.08 965.612 L 1047.56 962.056 z" fill="rgb(187,104,18)" transform="translate(0,0)"></path>
<path d="M 1604.62 623.699 C 1610.41 618.011 1608.82 622.363 1605.02 626.42 L 1604.62 623.699 z" fill="rgb(111,69,31)" transform="translate(0,0)"></path>
<path d="M 1482.86 1424.85 C 1483.34 1425.63 1484.19 1426.5 1483.94 1427.48 C 1482.72 1428.14 1480.41 1425.74 1479.53 1425.01 L 1482.86 1424.85 z" fill="rgb(111,69,31)" transform="translate(0,0)"></path>
<metadata><recraft-signature>{"signed_by": "recraft", "signature_b64": "5vQF9/QWv8qGL7OCrwSwJlCOmvEftLDWPFQcWxXvMDqL3VQPnMeOqAU74QIZyfjfuvRL7VOSu0+400j33dSZBQ==", "signing_algo": "Ed25519", "generation_timestamp": 1773296822, "identifier": "18a94741-8b19-44b4-aa71-7ebc3e7df033"}</recraft-signature></metadata></svg>