<svg xmlns="http://www.w3.org/2000/svg" height="1024" preserveAspectRatio="none" style="display: block;" version="1.1" viewBox="0 0 2048 2048" width="1024">
<path d="M 0 0 L 2048 0 L 2048 2048 L 0 2048 L 0 0 z" fill="rgb(24,21,18)" transform="translate(0,0)"></path>
<path d="M 1497.64 683.129 L 1724.34 683.38 C 1713.6 694.75 1700.37 707.181 1689.11 718.497 C 1662.67 745.23 1636.06 771.802 1609.3 798.214 L 1428.08 978.678 L 1186.09 1220.57 L 1104.21 1302.22 C 1085.68 1320.81 1067.27 1339.63 1048.46 1357.91 C 1044.65 1361.61 1042.93 1363.89 1037.75 1364.52 C 964.31 1365.4 885.212 1365.14 811.804 1364.45 C 832.308 1343.23 854.611 1321.78 875.572 1300.84 C 926.152 1249.74 977.177 1199.08 1028.64 1148.87 L 1291.31 887.52 L 1427.31 752.313 L 1469.29 710.032 C 1477.36 701.898 1488.77 689.882 1497.64 683.129 z" fill="rgb(199,102,2)" transform="translate(0,0)"></path>
<path d="M 1007.85 683.352 C 1082.72 681.933 1162.03 683.121 1237.3 682.915 L 780.484 1137.02 L 621.286 1296.08 C 602.008 1315.22 571.938 1347.73 552.717 1364.28 C 543.202 1364.52 533.141 1364.5 523.629 1364.34 C 457.321 1363.19 390.268 1365.85 324.035 1364.22 L 838.586 852.042 C 895.394 796.202 951.816 739.97 1007.85 683.352 z" fill="rgb(199,102,2)" transform="translate(0,0)"></path>
<path d="M 1256.89 852.817 L 1258.03 855.244 C 1240.1 871.349 1220.39 892.335 1202.59 909.332 C 1151.45 958.168 1101.55 1009.43 1049.93 1057.66 C 1033.79 1057.18 1017.64 1056.96 1001.49 1057 C 989.492 1064.32 975.527 1074.36 963.416 1082.27 C 923.846 1108.12 884.487 1134.29 845.344 1160.79 L 808.515 1185.48 C 802.095 1189.78 792.497 1196.69 785.728 1199.85 C 855.486 1128.99 929.7 1061.34 999.099 990.563 C 1015.47 990.413 1031.83 990.439 1048.2 990.641 C 1105.38 954.017 1161.41 915.589 1218.6 878.954 C 1231.19 870.883 1245.05 861.832 1256.89 852.817 z" fill="rgb(245,158,11)" transform="translate(0,0)"></path>
<path d="M 1256.89 852.817 C 1264.21 847.064 1264.34 849.781 1258.03 855.244 L 1256.89 852.817 z" fill="rgb(129,74,23)" transform="translate(0,0)"></path>
<metadata><recraft-signature>{"signed_by": "recraft", "signature_b64": "fZjLeX2npcPkk5jIZq6lEJpYsZuBEAubm9zxvioXkaml2A0sW9KivAqkSvelmf9ML5H+weUOew0Ta3oq+PL/DQ==", "signing_algo": "Ed25519", "generation_timestamp": 1773296823, "identifier": "6db43c75-b635-45dd-b279-570713d1d5dd"}</recraft-signature></metadata></svg>