<svg xmlns="http://www.w3.org/2000/svg" height="1024" preserveAspectRatio="none" style="display: block;" version="1.1" viewBox="0 0 2048 2048" width="1024">
<path d="M 0 0 L 2048 0 L 2048 2048 L 0 2048 L 0 0 z" fill="rgb(14,14,14)" transform="translate(0,0)"></path>
<path d="M 155.313 395.352 C 154.285 393.791 154.051 393.008 153.294 391.291 L 154.187 390.534 L 157.835 392.206 L 606 601.874 L 806.99 695.104 C 839.35 710.243 873.967 725.837 905.9 741.659 C 838.689 754.634 771.716 768.816 705.014 784.197 C 712.034 812.147 718.354 840.014 725.495 867.963 C 744.007 940.798 763.58 1013.36 784.21 1085.62 C 799.744 1141.04 818.185 1197.49 832.701 1252.61 C 835.596 1220.86 842.872 1181.52 847.737 1149.36 C 876.352 960.128 925.629 787.059 1023.48 621.169 C 1048.5 657.553 1069.1 703.591 1087.42 743.615 C 1162.1 906.742 1192.93 1075.21 1214.08 1251.88 C 1219.45 1237.58 1225.16 1215.45 1229.77 1200.15 C 1242.72 1157.49 1255.06 1114.65 1266.79 1071.65 C 1284.56 1008.06 1301.7 944.293 1318.23 880.366 C 1326.53 848.408 1335.55 815.3 1342.91 783.162 L 1213.06 755.562 C 1191.17 751.007 1164.32 746.524 1143.12 741.107 L 1654.52 502.654 C 1710.51 476.872 1766.35 450.749 1822.02 424.286 C 1846.34 412.871 1871.9 401.608 1895.85 389.73 L 1673.02 788.755 L 1614.81 891.734 C 1601.21 916.254 1582.11 952.275 1567.18 975.372 C 1574.15 954.086 1582.82 932.924 1589.98 911.403 C 1616.35 832.532 1640.95 753.085 1663.77 673.118 C 1620.33 683.944 1578.51 694.557 1534.23 701.91 C 1507.43 706.363 1480.57 710.421 1453.65 714.082 C 1439.26 716.023 1423.69 717.336 1409.64 719.829 C 1436.23 724.39 1462.79 729.114 1489.33 734.002 C 1503.41 736.527 1526.15 739.997 1539.2 743.478 C 1490.27 908.652 1427.74 1069.49 1352.26 1224.35 C 1377.15 1206.45 1402.01 1186.01 1425.99 1166.8 C 1477.29 1125.71 1529.48 1085.67 1580.1 1043.76 C 1583.24 1041.15 1586.86 1038.35 1589.8 1035.6 L 1591.11 1038.22 C 1563.53 1069.87 1536.69 1106.26 1509.71 1138.98 L 1201.6 1516.33 C 1164.12 1562 1124.02 1614.43 1085.6 1658.43 C 1104.73 1471.12 1095.98 1276.22 1071.24 1089.97 C 1059.88 1004.47 1047.1 924.329 1023.16 841.249 C 1008.92 896.462 996.962 952.24 987.322 1008.44 C 981.191 1045.63 977.136 1085.12 972.216 1122.65 C 949.486 1296.04 941.143 1484.55 961.37 1658.54 L 670.844 1303.23 L 533.194 1132.93 C 505.413 1098.56 477.08 1062.3 448.454 1028.88 C 473.891 1047.15 501.408 1071.25 526.222 1091 L 688.497 1218.97 L 691.628 1217.85 C 618.082 1066.32 552.365 905.231 508.426 742.439 C 548.118 737.038 593.026 726.857 633.13 720.179 C 632.172 719.402 631.236 718.655 630.304 717.847 C 621.766 718.397 590.588 713.87 581.367 712.557 C 514.533 703.363 448.363 689.86 383.27 672.13 C 414.438 775.955 447.283 873.872 481.528 976.393 C 470.847 960.619 457.23 935.026 447.461 917.965 C 423.889 876.9 400.626 835.659 377.673 794.245 L 155.313 395.352 z" fill="rgb(245,158,11)" transform="translate(0,0)"></path>
<path d="M 691.628 1217.85 C 692.389 1218.87 693.963 1220.69 693.719 1222.18 C 693.513 1223.43 691.784 1222.09 691.392 1221.71 C 690.457 1220.81 689.448 1219.9 688.497 1218.97 L 691.628 1217.85 z" fill="rgb(23,8,1)" transform="translate(0,0)"></path>
<path d="M 630.304 717.847 C 631.529 717.916 634.656 717.806 635.589 718.765 C 635.852 719.8 633.69 720.02 633.13 720.179 C 632.172 719.402 631.236 718.655 630.304 717.847 z" fill="rgb(138,61,16)" transform="translate(0,0)"></path>
<path d="M 1589.8 1035.6 C 1594.76 1031.7 1596.28 1032.37 1591.75 1037.48 L 1591.11 1038.22 L 1589.8 1035.6 z" fill="rgb(138,61,16)" transform="translate(0,0)"></path>
<metadata><recraft-signature>{"signed_by": "recraft", "signature_b64": "W61GaqfgKaW2O2U0Xq6c4aeWBlLP7mmCesBd3d2R9GSbbw65udL+6FIk8SVD434jR6HUYK+P+HYT8rPRiZ1uCQ==", "signing_algo": "Ed25519", "generation_timestamp": 1773297120, "identifier": "b570b5f1-915b-4259-a41a-88fc55b0b200"}</recraft-signature></metadata></svg>