<svg xmlns="http://www.w3.org/2000/svg" height="1024" preserveAspectRatio="none" style="display: block;" version="1.1" viewBox="0 0 2048 2048" width="1024">
<path d="M 0 0 L 2048 0 L 2048 2048 L 0 2048 L 0 0 z" fill="rgb(23,23,23)" transform="translate(0,0)"></path>
<path d="M 245.125 348.784 C 277.093 369.852 311.429 395.476 343.266 417.731 L 493.605 520.836 L 617.085 605.641 C 696.687 659.697 790.593 724.206 855.82 794.85 C 768.605 738.633 673.251 700.57 575.111 668.212 C 543.065 657.647 497.338 646.523 467.894 635.039 C 503.203 693.506 520.493 737.242 546.701 800.085 C 576.644 872.725 605.474 945.818 633.182 1019.34 C 669.119 1111.21 704.358 1203.36 738.895 1295.77 C 756.05 1340.73 772.749 1385.86 788.99 1431.16 C 834.912 1329.12 881.587 1227.41 929.011 1126.06 C 960.174 1057.9 991.847 989.973 1024.03 922.288 C 1045.77 963.507 1062.74 1004.96 1082.57 1046.56 C 1142.87 1175.04 1202.41 1303.87 1261.2 1433.04 C 1280.91 1382.74 1298.08 1330.84 1316.86 1280.31 C 1363.05 1155.01 1410.61 1030.23 1459.56 905.981 C 1475.84 864.363 1492.6 822.932 1509.84 781.698 C 1532.59 727.23 1549.77 685.917 1581.43 635.976 C 1554.4 642.254 1524.44 652.22 1497.82 660.657 C 1429.43 682.331 1363.33 705.218 1298.54 736.37 C 1264.87 752.559 1238.73 768.762 1207 786.738 C 1206.02 786.058 1205.2 785.479 1204.24 784.754 C 1215.25 772.971 1232.52 757.809 1244.9 746.835 C 1315.75 684.033 1396.3 630.101 1474.32 576.569 L 1649.72 455.552 C 1701.1 420.447 1752.28 385.042 1803.25 349.339 C 1754.9 463.329 1699.54 576.679 1650.8 691.241 C 1654.86 686.85 1659.83 682.357 1664.22 678.255 C 1687.86 656.169 1710.9 632.958 1735.67 612.155 C 1739.64 608.478 1742.27 606.262 1746.52 602.974 L 1737.17 616.33 C 1647.16 751.609 1568.19 905.38 1502.82 1053.82 C 1483.98 1096.42 1465.48 1139.17 1447.32 1182.07 C 1438.13 1204.33 1426.59 1237.4 1416.48 1257.94 L 1418.15 1259.03 C 1447.66 1223.46 1477.75 1187.44 1510.11 1154.41 C 1520.99 1143.31 1532.16 1132.39 1543.16 1121.39 L 1544.41 1124.54 C 1459.98 1252.98 1392.66 1392.64 1329.27 1532.47 C 1304.31 1587.54 1282.14 1645.97 1257.04 1700.73 C 1216.97 1610.32 1174.18 1521.14 1128.73 1433.31 C 1113.38 1404.16 1097.74 1375.16 1081.8 1346.32 C 1071.4 1327.65 1058.84 1306.66 1049.26 1288.03 L 1052.53 1286.81 C 1091.73 1323.85 1123.77 1354.84 1159.92 1395.64 C 1131.06 1330.45 1101.52 1265.56 1071.31 1200.98 C 1057.84 1171.76 1038.93 1125.7 1024.04 1099.11 C 990.625 1166.55 960.598 1236.25 928.788 1304.5 C 914.872 1334.35 900.838 1364.74 888.393 1395.23 C 926.071 1357.56 962.214 1314.42 1003.66 1280.34 C 991.692 1303.71 972.779 1334.55 959.457 1358.36 C 935.536 1401.64 912.55 1445.44 890.514 1489.72 C 867.602 1536.08 845.343 1582.76 823.743 1629.75 L 803.997 1672.63 C 800.251 1680.92 795.475 1692.59 791.164 1700.09 C 776.544 1666.52 762.99 1630.64 748.16 1596.45 C 713.972 1516.95 677.27 1438.55 638.11 1361.37 C 598.45 1282.06 554.198 1198.81 504.936 1124.94 L 507.208 1123.06 C 534.345 1146.54 565.76 1183.1 589.323 1210.03 C 604.021 1226.83 622.648 1247.98 635.616 1265.84 C 615.912 1216.33 595.465 1167.12 574.283 1118.22 C 511.577 969.381 438.869 824.961 356.655 685.946 C 342.101 661.816 325.044 636.374 309.645 612.578 L 311.836 609.668 C 339.017 633.78 365.557 658.605 391.426 684.119 L 393.271 679.661 C 358.348 600.178 322.893 520.93 286.908 441.922 C 272.926 411.051 259.391 379.453 245.125 348.784 z" fill="rgb(245,158,11)" transform="translate(0,0)"></path>
<path d="M 393.271 679.661 C 393.809 680.859 396.291 685.812 395.972 687.077 C 395.936 687.226 395.841 687.353 395.708 687.43 C 394.668 688.029 391.868 684.593 391.426 684.119 L 393.271 679.661 z" fill="rgb(39,18,8)" transform="translate(0,0)"></path>
<path d="M 1418.15 1259.03 C 1417.59 1259.85 1415.7 1263.36 1414.61 1263.28 C 1413.93 1262.24 1416.1 1258.73 1416.48 1257.94 L 1418.15 1259.03 z" fill="rgb(83,33,7)" transform="translate(0,0)"></path>
<path d="M 790.434 1052.72 C 799.35 1031.05 810.047 1009.14 819.78 987.701 L 880.508 854.321 C 927.697 748.743 975.527 643.453 1023.99 538.455 C 1045.66 582.419 1066.53 631.916 1086.86 676.773 L 1196.04 916.902 L 1229.92 991.635 C 1239.24 1012.53 1247.85 1033.36 1258.27 1053.76 C 1267.89 1037.06 1279.73 1022.06 1290.74 1006.39 C 1326.12 956.015 1363.51 914.612 1407.09 871.561 L 1408.85 874.608 C 1372.81 936.079 1342.59 1001.88 1315.16 1067.57 C 1291.59 1124.04 1267.09 1183.3 1247.85 1241.33 C 1212.32 1147.57 1171.08 1057.45 1117.95 972.239 C 1128.4 978.671 1148.4 995.346 1158.76 1003.63 C 1146.67 980.935 1131.74 945.962 1120.22 921.888 C 1088.33 854.642 1056.04 787.586 1023.35 720.725 C 1017.41 738.533 996.791 776.356 988.064 795.171 L 923.952 930.041 C 912.351 954.568 901.524 980.049 889.313 1004.18 C 899.283 994.185 919.189 977.85 930.437 968.817 C 874.426 1064.78 840.046 1137.87 801.831 1241.31 C 795.949 1228.18 789.594 1209.64 784.416 1195.88 C 774.963 1170.71 765.314 1145.61 755.47 1120.58 C 730.794 1057.89 703.664 994.85 673.887 934.454 C 661.941 910.223 648.323 887.281 634.791 863.922 C 689.863 907.075 752.685 993.873 790.434 1052.72 z" fill="rgb(245,158,11)" transform="translate(0,0)"></path>
<path d="M 1204.24 784.754 C 1205.2 785.479 1206.02 786.058 1207 786.738 C 1204.1 789.215 1197.69 792.407 1194.11 794.299 C 1197.22 791.251 1200.93 787.558 1204.24 784.754 z" fill="rgb(191,98,21)" transform="translate(0,0)"></path>
<path d="M 1407.09 871.561 C 1409.87 868.72 1412.31 866.413 1415.25 863.725 C 1413.16 867.653 1411.32 870.903 1408.85 874.608 L 1407.09 871.561 z" fill="rgb(191,98,21)" transform="translate(0,0)"></path>
<path d="M 1049.26 1288.03 C 1049.26 1288.02 1044.86 1282.62 1046.94 1282.41 C 1048.23 1282.28 1051.46 1285.78 1052.53 1286.81 L 1049.26 1288.03 z" fill="rgb(191,98,21)" transform="translate(0,0)"></path>
<path d="M 309.645 612.578 C 306.967 608.791 301.575 601.039 310.267 608.36 L 311.836 609.668 L 309.645 612.578 z" fill="rgb(191,98,21)" transform="translate(0,0)"></path>
<path d="M 504.936 1124.94 C 497.748 1115.89 503.379 1118.04 507.208 1123.06 L 504.936 1124.94 z" fill="rgb(191,98,21)" transform="translate(0,0)"></path>
<path d="M 1543.16 1121.39 C 1548.96 1116.44 1546.99 1120.84 1544.41 1124.54 L 1543.16 1121.39 z" fill="rgb(191,98,21)" transform="translate(0,0)"></path>
<metadata><recraft-signature>{"signed_by": "recraft", "signature_b64": "RD6nVNnCeUKHyhjqOEdR4abhUgzKS3u5EaWlezGei7rQUQ4ClVUAk8sWBCjiXIez33SBR/OY7FZqHBbPleJBCA==", "signing_algo": "Ed25519", "generation_timestamp": 1773297119, "identifier": "6f9186c3-4561-43ca-b64e-9261c60cc016"}</recraft-signature></metadata></svg>