<svg xmlns="http://www.w3.org/2000/svg" height="1024" preserveAspectRatio="none" style="display: block;" version="1.1" viewBox="0 0 2048 2048" width="1024">
<path d="M 0 0 L 2048 0 L 2048 2048 L 0 2048 L 0 0 z" fill="rgb(18,16,15)" transform="translate(0,0)"></path>
<path d="M 1023.46 619.237 C 1039.24 657.072 1055.61 693.449 1071.89 730.908 L 1165.18 943.634 C 1160.96 958.096 1153.65 976.435 1148.24 990.725 C 1132.52 1032.27 1114.96 1073.34 1101.55 1115.75 C 1074.21 1057.74 1050.3 992.557 1023.38 933.573 C 1008.42 968.478 992.441 1011.17 978.932 1046.64 C 957.139 1102.28 936.186 1158.23 916.081 1214.5 L 783.991 1565.37 C 779.211 1557.14 771.257 1537.7 766.982 1528.15 C 755.077 1501.72 743.385 1475.2 731.908 1448.58 L 642.718 1246.61 C 608.198 1166.57 570.612 1086.99 535.268 1007.35 L 424.393 758.916 C 413.632 734.905 404.363 711.354 393.25 687.273 L 396.226 685.886 C 408.31 698.388 438.422 722.263 453.097 735.078 L 572.596 841.182 C 586.678 853.872 603.388 865.687 615.995 879.71 C 624.138 888.766 663.238 986.037 670.032 1001.98 C 704.597 1081.51 738.433 1161.35 771.536 1241.5 C 782.288 1216.67 793.085 1185.8 803.038 1160.05 C 822.785 1108.7 842.87 1057.47 863.291 1006.38 C 915.586 876.884 968.979 747.831 1023.46 619.237 z" fill="rgb(245,158,11)" transform="translate(0,0)"></path>
<path d="M 1656.94 680.904 L 1657.81 682.046 C 1653.16 690.119 1649.42 698.039 1645.51 706.476 C 1626.35 747.838 1608.32 789.779 1589.65 831.372 L 1452.46 1138.7 L 1324.55 1426.75 L 1284.87 1515.84 C 1277.25 1533.21 1269.8 1549.24 1263.43 1567.12 C 1257.11 1552.94 1249.94 1531.65 1244.49 1516.76 C 1234.35 1489.77 1224.7 1462.59 1215.56 1435.25 C 1199.65 1390.02 1180.67 1341.02 1163.49 1296.03 C 1181.14 1265 1199.19 1234.2 1217.64 1203.63 C 1226.37 1188.99 1237.06 1172.73 1244.81 1157.8 C 1254.26 1185.42 1264.91 1213.05 1274.9 1240.55 C 1310.2 1160.5 1344.83 1080.15 1378.79 999.526 C 1389.93 972.948 1401.32 946.474 1412.95 920.106 C 1417.23 910.241 1425.25 889.535 1430.84 881.696 C 1433.65 877.742 1450.19 863.31 1454.98 858.974 L 1516.2 804.586 C 1563.21 763.65 1609.44 721.494 1656.94 680.904 z" fill="rgb(245,158,11)" transform="translate(0,0)"></path>
<path d="M 1833.39 477.959 L 1834.15 478.119 C 1834.42 479.482 1817.21 492.986 1814.44 495.44 C 1759.46 544.379 1703.98 592.761 1648.03 640.579 L 1598.97 683.106 C 1588.43 692.345 1573.7 706.167 1562.42 713.823 C 1551.01 721.578 1535.72 729.414 1523.52 736.798 L 1438.94 788.581 C 1427.45 795.65 1413.74 801.757 1403.48 810.51 C 1395.86 817.006 1343.74 911.78 1334.31 928.081 L 1121.3 1296.54 L 1061.23 1399.61 C 1050.29 1418.41 1038.24 1440.42 1026.54 1458.47 C 1029.8 1447.49 1033.29 1436.58 1037 1425.74 C 1048.16 1387.82 1060.11 1350.76 1072.24 1313.15 C 1079.28 1291.33 1085.21 1269 1092.22 1247.11 C 1107.29 1201.26 1123.27 1155.71 1140.15 1110.5 L 1216.47 912.404 L 1249.54 828.492 C 1255.52 813.459 1262.29 798.532 1267.61 783.293 C 1252.66 775.333 1237.46 765.148 1223.75 755.146 C 1275.89 729.966 1326.03 708.032 1378.67 684.094 L 1616.27 576.013 C 1689.03 544.181 1761.41 511.495 1833.39 477.959 z" fill="rgb(245,158,11)" transform="translate(0,0)"></path>
<path d="M 214.854 478.733 C 223.205 480.429 262.338 500.553 272.853 505.341 L 412.201 568.006 L 690.22 693.547 L 771.713 729.977 C 788.525 737.569 809.106 746.608 824.92 755.839 C 810.338 765.227 794.661 774.543 779.799 784.032 C 801.383 836.861 827.599 891.448 848.396 944.216 C 843.051 962.511 832.927 987.126 825.941 1005.37 L 799.356 1073.53 L 699.09 904.124 L 663.479 842.273 C 660.73 837.555 647.644 814.201 644.335 811.823 C 587.8 771.206 521.995 742.632 467.651 699.177 C 456.145 689.977 445.061 679.662 434.005 669.956 C 411.914 650.865 389.939 631.641 368.082 612.284 L 214.854 478.733 z" fill="rgb(245,158,11)" transform="translate(0,0)"></path>
<path d="M 924.405 1287.86 C 930.613 1268.86 939.706 1246.35 946.908 1227.24 C 954.232 1252.39 964.629 1280.49 973.048 1305.5 L 1021.6 1449.95 L 1019.68 1451.31 C 1017.17 1446.44 1013.98 1441.26 1011.04 1436.6 C 986.04 1396.9 964.156 1355.47 939.746 1315.44 C 934.232 1306.4 929.178 1297.31 924.405 1287.86 z" fill="rgb(245,158,11)" transform="translate(0,0)"></path>
<path d="M 1021.6 1449.95 C 1022.22 1451.29 1024.43 1455.75 1023.28 1457.1 C 1021.87 1456.77 1020.23 1452.46 1019.68 1451.31 L 1021.6 1449.95 z" fill="rgb(150,72,27)" transform="translate(0,0)"></path>
<path d="M 393.25 687.273 C 388.269 678.488 391.433 680.917 396.226 685.886 L 393.25 687.273 z" fill="rgb(208,91,24)" transform="translate(0,0)"></path>
<path d="M 1151.59 1252.37 C 1152.31 1252.18 1152.51 1252.04 1152.84 1252.17 C 1152.76 1252.46 1152.33 1253.27 1152.11 1253.63 C 1151.65 1253.62 1151.08 1253.71 1150.7 1253.45 C 1150.79 1253.01 1151.27 1252.7 1151.59 1252.37 z" fill="rgb(55,40,41)" transform="translate(0,0)"></path>
<metadata><recraft-signature>{"signed_by": "recraft", "signature_b64": "QuCEj8Whncp5EOpkdaNAs8b9FVLJd8CSiUKG8eUsS9w+Ebg1e/z4FghEZ3nlkHWstImUU/bi0DwQQciILetTDg==", "signing_algo": "Ed25519", "generation_timestamp": 1773297118, "identifier": "379e2eec-c756-4738-98cc-7697a952e176"}</recraft-signature></metadata></svg>