<svg xmlns="http://www.w3.org/2000/svg" height="1024" preserveAspectRatio="none" style="display: block;" version="1.1" viewBox="0 0 2048 2048" width="1024">
<path d="M 0 0 L 2048 0 L 2048 2048 L 0 2048 L 0 0 z" fill="rgb(28,23,22)" transform="translate(0,0)"></path>
<path d="M 160.822 289.528 C 334.153 339.556 501.626 408.007 660.374 493.711 C 673.576 500.887 706.55 517.715 717.702 526.15 C 730.593 535.901 755.895 591.675 764.187 608.646 C 782.378 645.34 799.748 682.435 816.284 719.904 C 824.375 738.15 841.198 773.231 847.457 791.164 C 831.344 777.469 815.842 761.778 800.378 747.221 C 776.898 724.898 752.836 703.194 728.218 682.133 L 726.648 685.597 C 735.009 703.658 745.689 722.164 754.426 740.925 C 773.975 783.592 791.039 827.355 805.531 871.994 C 812.92 895.285 819.62 918.789 825.623 942.476 C 828.729 955.036 832.544 974.816 836.36 986.445 L 836.701 987.454 C 847.409 955.367 862.392 917.571 874.719 885.56 C 906.728 802.447 940.818 720.151 976.957 638.75 L 1023.58 534.592 C 1046.04 578.837 1071.15 637.774 1090.92 683.914 C 1132.65 781.321 1176.45 886.77 1210.98 986.794 C 1218.5 962.878 1223.95 933.17 1231.45 907.661 C 1255.44 826.001 1283.39 755.297 1324.41 681.204 L 1321.83 680.247 C 1292.98 705.946 1264.37 731.918 1236.01 758.157 C 1223.85 769.565 1212.4 781.44 1200.01 792.697 C 1206.04 777.811 1213.51 763.007 1219.97 748.2 C 1252.28 674.235 1285.46 599.215 1325.78 529.372 C 1328.37 524.879 1398.06 488.25 1407.06 483.541 C 1494.12 437.224 1583.93 396.28 1676 360.939 C 1744.81 334.712 1806.37 315.474 1875.49 293.222 C 1879.12 292.235 1881.13 291.152 1884.56 291.735 C 1883.53 294.266 1882.92 294.36 1880.75 296.17 C 1862.04 315.951 1844.11 334.509 1826.4 355.241 C 1757.6 435.786 1709.87 519.756 1664.32 614.524 C 1608.87 647.574 1549.24 678.769 1496.51 716.028 C 1520.88 661.085 1548.19 607.492 1578.32 555.481 C 1586.72 540.973 1595.48 526.671 1604.58 512.59 C 1608.14 507.016 1615.99 495.514 1618.77 490.168 L 1615.62 487.243 C 1576.04 511.49 1489.82 571.113 1450.77 603.166 C 1447.28 606.038 1438.39 627.765 1436.02 633.408 C 1355.23 825.513 1304.62 1029.3 1269.72 1234.36 C 1265.7 1257.95 1260.11 1285.34 1257.43 1308.81 C 1211.04 1215.44 1166.44 1125.56 1125.11 1029.65 C 1088.58 944.881 1057.6 860.186 1023.63 774.755 C 987.304 868.671 951.915 962.275 911.526 1054.62 C 873.878 1140.69 832.265 1223.53 791.164 1307.79 C 780.116 1249.83 771.638 1189.48 759.54 1131.68 C 722.509 954.75 674.023 768.074 598.819 603.202 C 560.445 574.532 521.403 546.765 481.727 519.925 C 461.396 506.109 441.006 492.026 419.848 479.527 C 431.196 492.734 443.526 513.056 452.828 527.981 C 480.999 573.457 506.562 620.497 529.393 668.874 C 536.294 683.334 545.136 700.903 551.129 715.568 C 522.019 696.182 492.399 677.572 462.301 659.758 C 436.601 644.657 410.207 630.479 384.475 615.511 C 366.769 580.929 349.986 545.678 330.473 512.087 C 286.774 436.863 223.33 350.25 160.822 289.528 z" fill="rgb(245,158,11)" transform="translate(0,0)"></path>
<path d="M 1615.62 487.243 C 1619.32 484.702 1622.61 482.271 1626.23 479.623 C 1624.81 481.664 1620.23 488.494 1618.77 490.168 L 1615.62 487.243 z" fill="rgb(45,16,8)" transform="translate(0,0)"></path>
<path d="M 1321.83 680.247 C 1322.86 679.021 1325.91 675.432 1327.35 674.883 C 1328.41 675.457 1324.71 680.707 1324.41 681.204 L 1321.83 680.247 z" fill="rgb(107,36,8)" transform="translate(0,0)"></path>
<path d="M 716.819 670.583 C 719.785 673.348 722.691 676.177 725.535 679.068 L 723.814 681.07 C 721.969 678.858 718.638 673.331 716.819 670.583 z" fill="rgb(107,36,8)" transform="translate(0,0)"></path>
<path d="M 723.814 681.07 L 725.535 679.068 C 726.442 680.078 727.369 681.075 728.218 682.133 L 726.648 685.597 L 723.814 681.07 z" fill="rgb(45,16,8)" transform="translate(0,0)"></path>
<path d="M 1023.57 954.538 C 1026.77 957.4 1041.44 996.192 1044.01 1002.53 C 1065.63 1055.96 1088.59 1108.84 1112.88 1161.11 C 1164.25 1272.4 1221.5 1380.88 1284.41 1486.08 C 1294.27 1430.62 1302.86 1374.99 1314.41 1319.73 C 1319.81 1293.93 1325.87 1267.95 1331.72 1242.23 C 1359.99 1301.97 1385.18 1364.94 1413.27 1424.41 C 1406.55 1449.61 1400.31 1485.58 1395.86 1511.23 C 1381.66 1592.99 1373.15 1672.62 1374.13 1755.72 C 1260.28 1653.08 1160.09 1498.89 1090.5 1363.05 C 1066.64 1316.47 1044.36 1263.19 1024.14 1214.74 L 1023.12 1214.57 C 1007.12 1252.65 993.353 1286.37 975.528 1324.09 C 924.1 1433.39 860.796 1536.69 786.76 1632.13 C 754.396 1673.55 713.494 1720.9 674.142 1755.81 C 674.096 1694.65 670.017 1633.55 661.93 1572.92 C 654.771 1521.33 645.19 1475.33 635.075 1424.59 C 643.504 1402.95 654.889 1379.13 664.5 1357.71 L 716.036 1242.07 C 721.119 1260.86 725.71 1284.53 729.902 1303.8 C 743.222 1364.17 754.428 1424.98 763.502 1486.13 C 783.947 1455.97 810.02 1406.03 827.743 1373.72 C 869.592 1297.16 908.736 1219.16 945.102 1139.85 C 972.388 1078.57 998.547 1016.78 1023.57 954.538 z" fill="rgb(245,158,11)" transform="translate(0,0)"></path>
<path d="M 264.845 603.912 C 369.41 655.862 468.231 717.174 564.482 783.073 C 578.267 792.512 606.706 809.437 616.523 820.851 C 627.311 833.395 678.4 949.236 686.283 970.116 C 655.119 943.698 620.8 918.247 588.657 892.808 C 573.559 880.859 557.225 869.802 542.364 857.517 L 541.899 860.272 C 555.356 878.004 572.884 908.752 583.735 928.141 C 626.894 1006.03 663.905 1087.17 694.429 1170.82 C 686.716 1191.35 674.097 1217.14 664.773 1237.49 L 614.932 1345.82 C 610.411 1330.18 606.806 1312.22 602.528 1296.09 C 592.401 1258.54 581.618 1221.17 570.185 1184 C 502.931 968.852 409.491 778.074 264.845 603.912 z" fill="rgb(245,158,11)" transform="translate(0,0)"></path>
<path d="M 541.899 860.272 C 540.881 859.112 535.707 852.299 540.967 856.452 L 542.364 857.517 L 541.899 860.272 z" fill="rgb(107,36,8)" transform="translate(0,0)"></path>
<path d="M 1363.11 968.879 C 1368.08 956.103 1423.97 826.945 1430.39 821.638 C 1468.93 789.814 1602.3 703.522 1646.23 678.139 C 1670.02 664.324 1694.03 650.904 1718.26 637.883 C 1739.27 626.855 1761.37 616.328 1782.07 604.991 C 1635.62 780.967 1540.07 979.425 1472.97 1197.08 C 1463.53 1228.32 1454.69 1259.74 1446.46 1291.33 C 1442.11 1308.39 1438.09 1328.49 1433.27 1344.96 L 1352.95 1172.44 C 1362.55 1147.95 1371.7 1122.41 1381.76 1098.27 C 1405.68 1041.5 1432.51 985.993 1462.13 931.979 C 1473.97 910.47 1488.6 883.51 1502.41 863.417 L 1500.58 861.31 C 1465.75 886.789 1431.24 915.614 1396.79 941.76 C 1385.5 950.327 1374.45 960.381 1363.11 968.879 z" fill="rgb(245,158,11)" transform="translate(0,0)"></path>
<path d="M 1500.58 861.31 L 1502.45 859.844 C 1506.83 856.329 1506.1 859.036 1503.32 862.324 L 1502.41 863.417 L 1500.58 861.31 z" fill="rgb(45,16,8)" transform="translate(0,0)"></path>
<metadata><recraft-signature>{"signed_by": "recraft", "signature_b64": "mW6QFIP6E52sDgZlMK9UXO5xAsW5NJ++sCyW4v9XAgM1xmNu4ED0zeK2HPJILpl5ikaVaPNoXUFE8a2zMrwLBA==", "signing_algo": "Ed25519", "generation_timestamp": 1773297118, "identifier": "702acdf4-718b-4322-b165-be08a768ab14"}</recraft-signature></metadata></svg>