<svg xmlns="http://www.w3.org/2000/svg" height="1024" preserveAspectRatio="none" style="display: block;" version="1.1" viewBox="0 0 2048 2048" width="1024">
<path d="M 0 0 L 2048 0 L 2048 2048 L 0 2048 L 0 0 z" fill="rgb(253,253,252)" transform="translate(0,0)"></path>
<path d="M 1279.66 984.2 C 1283.17 983.49 1283.17 986.502 1283.66 989.491 C 1293.63 1051.12 1340.19 1093.11 1400.74 1103.52 C 1401.75 1180.87 1400.93 1260.68 1400.84 1338.14 L 770.5 1337.98 L 646.963 1337.94 L 646.678 1131.6 C 674.766 1124.21 704.746 1117.94 733.216 1111.14 C 808.31 1093.12 883.52 1075.6 958.842 1058.56 C 1065.92 1033.99 1172.21 1007.62 1279.66 984.2 z" fill="rgb(245,158,11)" transform="translate(0,0)"></path>
<path d="M 647.082 710.11 C 733.736 709.027 821.893 709.98 908.682 709.985 L 1400.87 709.805 C 1401.54 778.321 1400.69 847.807 1400.8 916.434 C 1389.83 920.785 1364.67 925.623 1352.57 928.315 C 1328.4 933.689 1304.28 939.312 1280.22 945.184 C 1108.57 984.082 937.146 1023.96 765.953 1064.81 C 758.224 1021.61 739.938 988.715 702.448 964.135 C 684.115 952.115 667.847 948.751 646.848 944.603 C 647.53 920.027 646.956 892.538 646.951 867.74 L 647.082 710.11 z" fill="rgb(245,158,11)" transform="translate(0,0)"></path>
<metadata><recraft-signature>{"signed_by": "recraft", "signature_b64": "f8p+6l6qjLq+9C20X1sG07rNj9UTt7HIiIyWjweW2OZtvNYqYtVgwVyoveydi7ttOToGNr/NEMxQ0M5smOSfBQ==", "signing_algo": "Ed25519", "generation_timestamp": 1773296805, "identifier": "67758019-1b43-4097-9d06-c8a1190a4bc5"}</recraft-signature></metadata></svg>