<svg xmlns="http://www.w3.org/2000/svg" height="1024" preserveAspectRatio="none" style="display: block;" version="1.1" viewBox="0 0 2048 2048" width="1024">
<path d="M 0 0 L 2048 0 L 2048 2048 L 0 2048 L 0 0 z" fill="rgb(255,255,255)" transform="translate(0,0)"></path>
<path d="M 1023.97 1211.26 C 1041.92 1190.43 1056.27 1170.8 1075.59 1150.45 C 1144.08 1078.31 1227.01 1021.72 1321.73 990.234 C 1351.57 980.318 1377.11 974.22 1407.73 967.468 C 1406.24 1039.02 1407.25 1115.01 1407.08 1186.94 L 1407.19 1430.85 L 639.434 1430.86 L 639.305 967.643 C 774.618 994.007 882.145 1054.36 976.5 1155.22 C 993.27 1173.15 1008.44 1192.26 1023.97 1211.26 z" fill="rgb(245,158,11)" transform="translate(0,0)"></path>
<path d="M 1009.58 618.431 C 1163.15 610.892 1306.57 701.449 1379.82 834.024 C 1388.16 849.106 1396.99 865.491 1403.27 881.505 C 1256.67 908.024 1136.22 969.607 1031.54 1076.07 C 1028.93 1078.86 1026 1081.74 1023.31 1084.49 C 1005.53 1064.98 988.327 1049.68 968.392 1032.47 C 875.188 952.046 765.002 903.733 644.131 882.171 C 658.356 842.189 694.672 787.556 722.702 756.006 C 783.671 686.221 866.717 639.443 957.996 623.469 C 975.171 620.561 992.218 619.429 1009.58 618.431 z" fill="rgb(245,158,11)" transform="translate(0,0)"></path>
<metadata><recraft-signature>{"signed_by": "recraft", "signature_b64": "i+sS07u/cWPbuMKM9eZ5dzSlL705YBOYZYsDS8Gw1uGY1BknFDOXra1oewsiFsJXbCBHt9EWpylO8kiybreIDQ==", "signing_algo": "Ed25519", "generation_timestamp": 1773296804, "identifier": "fac98574-64b9-43e8-aa1d-940d033680d5"}</recraft-signature></metadata></svg>