<svg xmlns="http://www.w3.org/2000/svg" height="1024" preserveAspectRatio="none" style="display: block;" version="1.1" viewBox="0 0 2048 2048" width="1024">
<path d="M 0 0 L 2048 0 L 2048 2048 L 0 2048 L 0 0 z" fill="rgb(252,251,251)" transform="translate(0,0)"></path>
<path d="M 550.208 1247.03 L 1497.34 1247.01 C 1498.05 1308.21 1498.02 1369.42 1497.26 1430.62 C 1379.11 1428.9 1258.66 1429.94 1140.4 1429.96 L 549.921 1430 L 550.208 1247.03 z" fill="rgb(245,158,11)" transform="translate(0,0)"></path>
<path d="M 773.585 620.908 L 775.974 621.059 C 776.257 622.723 766.937 642.438 765.355 646.642 C 759.425 662.27 754.968 678.419 752.044 694.877 C 745.091 734.773 747.851 759.491 756.865 797.828 C 755.282 799.383 753.711 800.951 752.154 802.531 C 659.111 897.114 706.392 1050.49 836.838 1076.12 C 867.038 1082.06 899.48 1074.05 927.235 1088.94 C 938.811 1095.16 953.607 1109.1 963.829 1117.86 C 977.127 1129.24 990.481 1140.55 1003.89 1151.79 C 1032.13 1175.41 1074.29 1207.6 1100.35 1232.6 C 1057.74 1233.76 1008.74 1232.49 965.5 1232.36 C 881.866 1232.55 818.388 1239.45 739.728 1204.27 C 538.528 1114.28 490.6 851.503 647.894 696.65 C 686.416 658.727 722.241 639.494 773.585 620.908 z" fill="rgb(245,158,11)" transform="translate(0,0)"></path>
<path d="M 1013.26 917.523 C 1064.94 916.471 1117.14 917.629 1168.86 917.551 C 1178.16 926.093 1188.46 937.695 1197.85 946.873 L 1433.94 1178.69 C 1439.83 1184.48 1488.48 1231.43 1489.51 1233.77 L 1488.8 1234.97 L 1483.25 1235.1 L 1324.15 1235 C 1298.68 1211.17 1271.66 1181.98 1246.47 1157 L 1103.83 1016.19 C 1074.38 986.54 1034.65 945.074 1004.14 917.7 L 1013.26 917.523 z" fill="rgb(245,158,11)" transform="translate(0,0)"></path>
<path d="M 829.501 917.506 C 880.89 916.488 934.896 917.453 986.65 917.181 C 1022.09 955.455 1064.19 995.756 1101.51 1032.43 L 1243.32 1173.52 C 1260.5 1190.78 1278.56 1207.19 1295.89 1224.31 C 1299.59 1227.97 1303.75 1231.53 1306.6 1235.9 L 1139.67 1235.88 C 1112.51 1212.71 1074.87 1169.87 1048.42 1143.21 C 977.934 1072.01 907.86 1000.41 838.202 928.402 C 835.642 925.719 830.143 920.683 829.501 917.506 z" fill="rgb(245,158,11)" transform="translate(0,0)"></path>
<path d="M 985.596 620.42 C 1057.68 615.558 1125.11 672.849 1132.96 744.798 C 1135.7 769.852 1133.73 796.455 1134.61 821.86 C 1118.26 814.72 1100.57 808.388 1083.84 801.885 C 1054.39 790.28 1024.81 779 995.119 768.046 C 993.374 767.277 991.746 766.959 989.869 767.582 C 941.862 783.513 894.614 804.67 847.421 822.415 C 849.516 765.103 839.488 720.358 881.451 671.366 C 908.563 639.713 944.415 623.364 985.596 620.42 z" fill="rgb(245,158,11)" transform="translate(0,0)"></path>
<metadata><recraft-signature>{"signed_by": "recraft", "signature_b64": "IM1zSqmYjevTD1zeVkGKdnmzK8ga/13ABYl02qLv7IkjgZcJumFz/S/ywRit/Uviaze0/+0c16pr/0Isqqg4Cw==", "signing_algo": "Ed25519", "generation_timestamp": 1773296804, "identifier": "d93220a0-c620-47f8-b711-9d908ae8ba3e"}</recraft-signature></metadata></svg>