<svg xmlns="http://www.w3.org/2000/svg" height="1024" preserveAspectRatio="none" style="display: block;" version="1.1" viewBox="0 0 2048 2048" width="1024">
<path d="M 0 0 L 2048 0 L 2048 2048 L 0 2048 L 0 0 z" fill="rgb(36,33,33)" transform="translate(0,0)"></path>
<path d="M 1314.67 393.378 C 1325.56 391.977 1354.24 392.349 1365.74 393.048 C 1425.67 396.694 1494.77 377.766 1540.3 427.597 C 1570.44 460.579 1580.16 498.163 1562.97 539.055 C 1558.62 549.321 1552.72 558.864 1545.49 567.355 C 1533.88 581.184 1519.4 595.154 1506.59 608.012 L 1443.51 671.022 L 1227.87 888.183 C 1184.84 931.872 1137.17 962.71 1137.31 1029.11 C 1137.43 1085.12 1165.72 1105.13 1202.22 1140.51 C 1221.79 1159.53 1241.25 1178.66 1260.58 1197.91 L 1430.44 1367.07 C 1464.54 1400.85 1499.2 1434.06 1532.99 1468.22 C 1555.59 1491.06 1571.65 1517.5 1570.92 1550.74 C 1570.16 1577.99 1558.6 1603.81 1538.78 1622.53 C 1495.64 1663.87 1450.09 1652.63 1395.42 1654.12 C 1368.72 1654.85 1341.12 1653.74 1314.5 1653.98 C 1257.41 1654.48 1229.44 1621.48 1192.89 1584.71 L 1117.47 1509 L 951.361 1343.14 C 926.473 1318.18 900.96 1292.18 875.964 1267.34 C 818.321 1210.07 814.949 1124.25 874.302 1066.91 C 896.213 1045.74 917.041 1023.07 939.134 1002.35 C 933.726 1069.94 942.854 1123.26 979.997 1181.64 C 1002.93 1217.69 1029.05 1240.94 1058.86 1270.62 C 1084.44 1296.26 1110.19 1321.73 1136.13 1347.01 L 1313.47 1523.11 L 1405.84 1523.18 C 1397.18 1513.28 1385.18 1502.39 1375.56 1492.91 L 1320.63 1438.58 L 1140.5 1260.77 C 1091.6 1212.08 1036.47 1170.13 1017.03 1101.52 C 999.828 1040.85 1002.25 973.927 1032.95 917.669 C 1049.6 887.162 1075.86 862.883 1100.03 838.66 L 1153.37 785.009 L 1288.57 648.942 C 1326.87 610.751 1369.01 569.744 1405.32 529.961 C 1379.17 529.352 1351.09 529.275 1325.09 531.212 C 1303.74 532.803 1284.11 558.871 1269.29 574.111 C 1252.15 591.712 1234.9 609.196 1217.52 626.563 L 1008.56 838.562 L 771.581 1079.15 C 728.01 1123.27 683.871 1166.87 641.174 1211.78 C 620.488 1233.54 616.439 1250.74 617.053 1280.15 C 617.348 1294.29 617.091 1309.47 617.125 1323.67 L 617.409 1507.99 L 617.481 1559.81 C 617.491 1583.07 619.188 1603.38 604.06 1622.8 C 591.824 1638.52 576.755 1649.25 556.687 1651.8 C 539.036 1654.17 521.166 1649.45 506.996 1638.66 C 492.42 1627.43 482.888 1610.89 480.488 1592.65 C 478.944 1580.23 479.934 1551.73 480.018 1538.19 L 480.138 1442.36 L 479.999 1301.1 C 479.84 1235.79 472.074 1193.36 524.731 1144.72 C 549.736 1121.63 576.945 1092.81 601.363 1068.4 L 815.12 854.838 L 1073.32 594.694 C 1110.07 557.089 1147.08 519.735 1184.34 482.636 C 1196.59 470.303 1210.05 457.356 1221.89 444.726 C 1249.45 415.302 1273.31 398.193 1314.67 393.378 z" fill="rgb(250,84,4)" transform="translate(0,0)"></path>
<path d="M 543.773 394.377 C 564.194 391.819 583.305 401.031 597.589 415.181 C 621.593 438.96 617.597 464.846 617.319 495.753 L 617.119 681.196 L 617.029 748.716 C 617.015 761.644 616.497 774.833 617.304 787.73 C 617.682 793.775 618.524 799.078 621.066 804.631 C 632.112 828.758 676.801 867.982 697.363 888.932 L 621.184 966.025 C 615.135 972.198 610.464 976.865 603.928 982.463 C 593.032 973.832 574.244 954.723 563.621 944.142 C 540.414 920.622 514.575 898.662 495.485 871.547 C 475.091 842.579 479.916 804.231 479.995 770.382 L 480.104 651.122 L 479.917 522.467 C 479.843 500.699 478.281 474.652 480.706 453.472 C 484.474 420.558 512.752 398.179 543.773 394.377 z" fill="rgb(250,84,4)" transform="translate(0,0)"></path>
<metadata><recraft-signature>{"signed_by": "recraft", "signature_b64": "dZsg97hIPtRXzlqDteF+0Zf6iiByh1h0JyMTTClE+4k3aP33SjfOChCnTnUVNbB+nGNpoe0w3XpXtju6P5ECDA==", "signing_algo": "Ed25519", "generation_timestamp": 1773297329, "identifier": "e91a59dc-ecad-4353-b436-acdb46dbc42d"}</recraft-signature></metadata></svg>