<svg xmlns="http://www.w3.org/2000/svg" height="1024" preserveAspectRatio="none" style="display: block;" version="1.1" viewBox="0 0 2048 2048" width="1024">
<path d="M 0 0 L 2048 0 L 2048 2048 L 0 2048 L 0 0 z" fill="rgb(30,28,28)" transform="translate(0,0)"></path>
<path d="M 1238.33 382.735 C 1240.67 390.237 1238.76 504.589 1238.77 519.606 L 1239.01 730.216 C 1239.04 765.517 1239.13 800.747 1238.92 836.098 C 1238.77 861.488 1226.87 869.91 1210.5 886.545 C 1201.86 895.324 1193.03 904.167 1184.35 912.875 C 1150.6 946.134 1117.06 979.614 1083.75 1013.31 L 892.38 1207.35 C 860.065 1239.97 827.258 1274.84 793.831 1305.98 C 793.679 1303.82 793.582 1301.66 793.543 1299.5 C 792.337 1223.96 793.91 1144.1 793.867 1068.07 L 793.812 983.976 C 793.786 954.76 792.704 931.139 797.824 901.77 C 805.496 857.764 822.514 813.766 847.135 776.405 C 863.985 750.837 887.923 731.043 909.536 709.876 L 970.049 649.556 L 1150.35 469.349 C 1179.21 440.538 1210.19 412.042 1238.33 382.735 z" fill="rgb(245,158,11)" transform="translate(0,0)"></path>
<path d="M 1231.52 953.003 C 1235.57 953.179 1235.47 952.547 1238.4 954.409 C 1239.25 959.325 1238.74 1001.93 1238.74 1009.98 L 1238.65 1079.68 C 1238.62 1093.29 1239.01 1110.41 1237.91 1123.75 C 1230.43 1135.66 1193.71 1170.22 1182.16 1181.66 L 1077.91 1285.97 C 1068.46 1295.59 1059.43 1306.23 1059.9 1320.53 C 1060.3 1332.83 1067.81 1345.01 1079.34 1349.82 C 1092.12 1355.14 1169.8 1352.64 1190.01 1352.56 C 1199.18 1352.53 1209.48 1351.57 1218.48 1353.2 C 1223.8 1354.17 1229 1356.23 1232.92 1360.05 C 1236.17 1363.22 1237.84 1366.91 1238.38 1371.37 C 1239.72 1382.48 1239.05 1394.25 1239.08 1405.45 L 1239.16 1465.59 L 1239.05 1665.92 L 980.5 1665.97 L 793.639 1665.89 L 793.796 1474.86 C 793.772 1449.21 792.811 1417.4 794.937 1391.76 C 795.332 1387 803.493 1377.26 807.346 1373.38 C 830.899 1349.68 854.82 1326.16 878.504 1302.57 L 1047.89 1133.98 C 1090.52 1090.73 1133.54 1047.86 1176.94 1005.37 C 1185.81 996.551 1223.99 957.243 1231.52 953.003 z" fill="rgb(245,158,11)" transform="translate(0,0)"></path>
<metadata><recraft-signature>{"signed_by": "recraft", "signature_b64": "gIm2iNA0fjwcC+Zln87kuKYSfHM7yCV1cRO8HRgzUnOP+ZBeasuRgDhq32ybr6c5ikf9fUU/IOjW72jUpP+gAg==", "signing_algo": "Ed25519", "generation_timestamp": 1773297329, "identifier": "ce37c29c-3dc2-4199-84d7-3d7acc442519"}</recraft-signature></metadata></svg>