<svg xmlns="http://www.w3.org/2000/svg" height="1024" preserveAspectRatio="none" style="display: block;" version="1.1" viewBox="0 0 2048 2048" width="1024">
<path d="M 0 0 L 2048 0 L 2048 2048 L 0 2048 L 0 0 z" fill="rgb(38,37,38)" transform="translate(0,0)"></path>
<path d="M 1351.03 619.477 C 1378.51 619.181 1405.99 619.057 1433.48 619.104 L 1251.64 799.558 C 1221.42 830.043 1190.97 860.311 1160.31 890.359 C 1141.92 908.611 1121.37 929.977 1102.25 947.122 C 1062.8 947.632 1023.35 947.598 983.899 947.019 C 966.153 936.513 945.646 922.242 928.608 913.031 C 938.868 929.493 954.656 949.278 966.108 966.281 C 958.318 1008.88 951.774 1058.95 946.042 1102.07 C 837.507 1211.66 724.582 1320.13 614.924 1429.07 C 615.813 1406.79 618.926 1380.62 620.859 1358.12 C 624.721 1312.62 628.851 1267.15 633.248 1221.7 C 644.925 1104.41 646.229 996.855 697.74 888.263 C 710.274 861.841 724.185 833.202 741.957 809.889 C 761.338 832.542 783.605 860.951 802.706 884.416 C 751.629 966.897 733.135 1051.64 736.176 1147.94 L 738.312 1176.93 C 743.324 1172.66 748.115 1168.14 752.723 1163.44 C 782.929 1132.66 814.709 1103.38 844.88 1072.58 C 846.869 1022.39 860.909 980.552 887.993 938.693 C 798.165 830.598 706.708 723.867 613.653 618.538 C 621.429 623.241 634.035 632.484 641.922 637.846 L 710.953 684.985 C 793.187 740.781 875.754 796.084 958.651 850.891 C 1012.62 829.013 1038.59 824.696 1096.81 824.85 C 1129.32 795.161 1161.62 761.098 1192.56 729.626 C 1191.37 729.263 1190.17 728.934 1188.97 728.637 C 1092.92 705.371 998.791 733.765 917.059 783.828 C 890.14 764.42 855.944 745.66 827.09 725.441 C 968.292 632.781 1040.66 619.849 1207.87 619.714 C 1255.59 619.909 1303.31 619.83 1351.03 619.477 z" fill="rgb(245,158,11)" transform="translate(0,0)"></path>
<path d="M 1292.01 876.342 C 1330.8 871.391 1367.26 899.24 1388.14 929.464 C 1428.72 988.198 1438.26 1069.43 1426.97 1138.61 C 1409.12 1248.05 1334.23 1347.36 1234.3 1395.24 C 1166.61 1428.11 1101.76 1433.74 1028.32 1421.68 C 968.315 1409.09 893.44 1380.73 881.888 1311.89 C 871.627 1250.74 911.337 1223.25 950.148 1185.25 L 1032.24 1103.81 L 1160.49 976.638 C 1176.47 960.402 1192.56 944.264 1208.74 928.225 C 1236.19 900.917 1252.03 882.291 1292.01 876.342 z" fill="rgb(245,158,11)" transform="translate(0,0)"></path>
<metadata><recraft-signature>{"signed_by": "recraft", "signature_b64": "QrmwSCR8+qyG7lITk7JnXj4YQHfIG//5Fd4LoO4TSw4hFaXLNs+q11S45uMMz4ubsAU76gDGTlbRSsKMuCpyDg==", "signing_algo": "Ed25519", "generation_timestamp": 1773297329, "identifier": "f6decd15-39de-444b-8ae8-352b8fb228eb"}</recraft-signature></metadata></svg>