<svg xmlns="http://www.w3.org/2000/svg" height="1024" preserveAspectRatio="none" style="display: block;" version="1.1" viewBox="0 0 2048 2048" width="1024">
<path d="M 0 0 L 2048 0 L 2048 2048 L 0 2048 L 0 0 z" fill="rgb(246,245,244)" transform="translate(0,0)"></path>
<path d="M 700.975 614.961 L 844.982 614.953 L 844.701 955.027 C 878.703 983.326 920.084 1023.7 952.954 1054.28 C 952.761 1086.09 952.466 1429.95 950.773 1433.37 L 698.238 1433.41 L 700.975 614.961 z" fill="rgb(245,158,11)" transform="translate(0,0)"></path>
<path d="M 883.267 624.752 C 887.655 628.534 948.929 736.889 956.48 749.841 L 1177.17 1130 L 1280.02 1309.01 C 1303.47 1350.51 1327.23 1391.83 1351.3 1432.97 C 1284.01 1433.64 1216.73 1433.75 1149.44 1433.28 C 1120.06 1388.05 1091.88 1342.12 1062.98 1296.59 C 1052.72 1280.44 994.499 1193.27 991.73 1181.09 C 989.263 1170.25 991.136 1149.12 991.166 1136.93 L 991.15 1039.54 C 963.605 1013.21 935.146 987.846 907.928 961.169 C 899.824 953.227 891.636 945.285 882.636 938.354 L 882.914 756.74 C 882.966 713.065 882.431 668.294 883.267 624.752 z" fill="rgb(245,158,11)" transform="translate(0,0)"></path>
<metadata><recraft-signature>{"signed_by": "recraft", "signature_b64": "8IvDRONeRpscUYoWXmSuxaU9DfF97F9wUGSzljttpkS8LS1CJ8M3MWG4GqJeEnot1WVA9pj0umZT2cpN9VZGCw==", "signing_algo": "Ed25519", "generation_timestamp": 1773296804, "identifier": "51b87330-b141-4bb2-ab79-dc7bb3c60a5d"}</recraft-signature></metadata></svg>