<svg xmlns="http://www.w3.org/2000/svg" height="1024" preserveAspectRatio="none" style="display: block;" version="1.1" viewBox="0 0 2048 2048" width="1024">
<path d="M 0 0 L 2048 0 L 2048 2048 L 0 2048 L 0 0 z" fill="rgb(38,37,38)" transform="translate(0,0)"></path>
<path d="M 1133.07 456.392 C 1149.22 481.502 1165.3 512.277 1180.88 538.597 C 1169.64 560.218 1155.82 581.902 1143.65 603.22 L 1071.35 730.49 L 854.01 1108.5 C 811.08 1181.23 768.89 1254.39 727.448 1327.97 C 729.52 1329.07 730.479 1329.62 732.398 1330.97 C 742.725 1324.18 766.113 1312.43 771.944 1303.69 C 786.981 1281.18 801.529 1255.3 815.256 1231.88 L 899.443 1088.04 L 1199.41 570.863 C 1213.82 593.182 1232.31 628.539 1245.81 652.539 C 1207.72 721.523 1167 789.259 1127.82 857.638 L 944.76 1179.93 C 917.702 1228.43 890.131 1276.64 862.052 1324.55 C 856.258 1334.53 842.831 1359.65 836.689 1367.1 C 833.648 1370.79 805.312 1387.57 799.006 1391.5 L 698.041 1453.59 L 436.371 1614.31 C 397.533 1638.04 351.898 1668.32 312.788 1689.89 C 330.041 1647.34 347.735 1604.96 365.865 1562.78 C 375.326 1540.14 385.384 1513.84 395.758 1491.93 C 401.668 1479.44 416.938 1456.63 424.622 1444.33 C 439.82 1419.93 454.846 1395.43 469.696 1370.82 C 499.024 1322.18 526.092 1271.89 555.035 1223.01 C 568.778 1199.79 582.388 1176.59 595.634 1153.09 C 609.795 1178.9 629.209 1223.23 641.237 1250.67 C 614.099 1296.5 587.449 1342.62 561.293 1389.02 C 550.682 1407.59 534.5 1433.03 525.613 1450.98 C 533.359 1445.87 564.691 1427.72 567.853 1423.2 C 579.505 1406.52 592.724 1383.41 603.331 1365.68 L 692.199 1214.67 C 802.11 1028.19 910.906 841.058 1018.58 653.277 C 1056.38 588.522 1093.66 519.618 1133.07 456.392 z" fill="rgb(245,158,11)" transform="translate(0,0)"></path>
<path d="M 727.448 1327.97 C 729.52 1329.07 730.479 1329.62 732.398 1330.97 C 731.938 1331.29 731.477 1331.6 731.016 1331.92 C 728.133 1333.72 725.271 1335.55 722.43 1337.42 C 724.053 1334.08 725.619 1331.19 727.448 1327.97 z" fill="rgb(42,33,30)" transform="translate(0,0)"></path>
<path d="M 1291.02 728.518 C 1298.05 737.691 1316.89 773.509 1323.78 785.892 C 1345.49 824.666 1367.4 863.325 1389.51 901.869 L 1639.61 1341.65 C 1670.49 1395.72 1701.15 1452.36 1733.43 1505.41 C 1690.17 1499.36 1647.73 1494.62 1604.53 1489.1 L 1257.62 1443.76 C 1250.37 1447.57 1242.27 1452.58 1235.42 1457.1 C 1183.21 1491.62 1128.72 1522.88 1076.51 1557.31 C 1034.76 1484.76 991.164 1412.63 950.831 1339.28 L 1061.29 1150.08 C 1076.14 1174.17 1095.87 1210.62 1108.25 1235.68 C 1090.77 1265.58 1068.56 1299.95 1050.08 1329.32 C 1068.65 1360.69 1085.91 1392.68 1104.56 1423.97 C 1139.25 1400.38 1179.44 1373.09 1214.67 1350.75 C 1233.3 1352.26 1256.93 1354.98 1275.56 1357.27 C 1262.44 1330.99 1246.35 1303.79 1231.69 1278.14 L 1171.35 1172.22 C 1152.31 1137.07 1127.7 1095.67 1107.49 1061.05 C 1124.12 1035.85 1139.03 1005.9 1156.15 981.607 C 1166.99 997.278 1181.88 1025.25 1191.5 1042.45 L 1244.22 1135.81 C 1287.52 1212.13 1335.37 1290.8 1376.54 1367.81 C 1388.46 1370.23 1408.21 1371.87 1420.94 1373.37 C 1396.01 1327.06 1367.59 1279.47 1341.39 1233.59 L 1175.33 941.168 C 1189.8 914.999 1208.08 886.277 1223.46 860.081 C 1232.41 874.62 1241.65 892.426 1250.26 907.479 L 1304.6 1002.13 L 1426.69 1214.06 C 1458.66 1269.97 1491.67 1329.91 1524.77 1384.92 C 1536.21 1386.94 1553.15 1388.29 1564.92 1389.44 C 1539.85 1340.81 1506.12 1285.81 1478.56 1237.89 L 1338.55 991.88 C 1309.18 940.341 1267.66 870.593 1243.99 817.124 C 1246.33 812.349 1249.44 806.787 1252.14 802.118 C 1265.88 778.323 1276.8 751.876 1291.02 728.518 z" fill="rgb(245,158,11)" transform="translate(0,0)"></path>
<path d="M 921.54 588.455 C 925.114 590.665 964.978 663.509 971.62 674.826 L 672.913 1193.48 L 671.875 1194.75 C 668.168 1192.73 630.528 1116.22 624.765 1104.55 C 631.751 1090.65 642.38 1073.01 650.163 1059.22 L 713.49 948.932 L 921.54 588.455 z" fill="rgb(245,158,11)" transform="translate(0,0)"></path>
<path d="M 1066.22 340.62 C 1071.14 347.523 1079.59 362.764 1083.89 370.327 L 1114.2 424.384 C 1077.51 490.615 1034.52 560.329 995.219 625.342 C 988.198 618.679 954.936 556.458 947.91 543.765 L 1021.97 416.022 C 1035.42 392.774 1051.85 362.664 1066.22 340.62 z" fill="rgb(245,158,11)" transform="translate(0,0)"></path>
<metadata><recraft-signature>{"signed_by": "recraft", "signature_b64": "VBfQrCu2sZwFAQIvZi0i8SmrNgmI9/ZNLin2y8qoMgvPmgVuGaJFVSK7DrRaclIq2MMOtz7sBMbedY+xrKZ1AA==", "signing_algo": "Ed25519", "generation_timestamp": 1773297329, "identifier": "22ce52e8-64a1-4d25-8912-e2634fcd9e77"}</recraft-signature></metadata></svg>