<svg xmlns="http://www.w3.org/2000/svg" height="1024" preserveAspectRatio="none" style="display: block;" version="1.1" viewBox="0 0 2048 2048" width="1024">
<path d="M 0 0 L 2048 0 L 2048 2048 L 0 2048 L 0 0 z" fill="rgb(35,34,34)" transform="translate(0,0)"></path>
<path d="M 533.207 438.608 C 539.105 442.708 565.693 470.382 572.889 477.444 L 679.046 581.673 C 828.239 727.232 976.193 874.054 1122.89 1022.12 C 1162.81 1061.98 1207.06 1098.34 1247.51 1137.61 C 1260.04 1149.77 1285.11 1172.15 1295.21 1185.34 C 1311.88 1207.12 1329.76 1233.6 1345.79 1256.35 L 1435.55 1382.91 L 1541.45 1533.21 C 1558.72 1557.54 1580.62 1585.89 1596.25 1610.18 C 1540.02 1601.76 1461.81 1575.15 1408.66 1555.01 C 1325.32 1522.1 1257.48 1489.34 1182.82 1439.28 C 1195.43 1427.59 1211.68 1416.83 1221.86 1402.86 C 1226.27 1396.8 1228.86 1388.53 1227.16 1381.13 C 1225.76 1375.05 1222.98 1370.79 1218.66 1366.33 C 1203.9 1351.09 1188.55 1336.32 1173.39 1321.49 L 1105.47 1254.82 L 944.318 1095.59 L 858.256 1010.31 C 848.984 1001.26 826.533 978.58 816.688 972.193 C 777.673 970.141 765.59 1002.33 748.637 1031.63 C 716.906 990.536 687.099 946.524 663.895 900.009 C 679.966 868.461 694.328 850.796 716.436 823.249 C 698.425 831.193 660.934 842.59 640.88 849.226 C 606.084 772.984 579.742 693.161 562.326 611.184 C 578.915 606.543 610.361 602.527 627.457 600.484 C 608.116 594.732 575.709 588.03 555.493 584.107 C 548.292 535.211 539.342 488.747 533.207 438.608 z" fill="rgb(206,105,5)" transform="translate(0,0)"></path>
<path d="M 1513.84 439.958 L 1514.37 440.551 C 1514.71 445.031 1510.78 467.861 1509.92 474.091 C 1504.86 510.982 1497.84 547.51 1491.66 584.236 C 1468.97 588.341 1444.71 595.641 1421.21 600.081 C 1442.08 603.949 1465.55 607.16 1486.69 610.452 C 1473.15 669.609 1457.71 729.272 1435 785.611 C 1426.33 807.116 1417.57 828.592 1408.84 850.074 C 1384.12 840.245 1356.52 832.073 1331.14 823.062 C 1351.72 851.047 1368.92 866.291 1384.81 900.372 C 1357.47 951.909 1334.82 987.731 1298.74 1034.66 C 1278.86 1003.47 1258.71 945.83 1214.52 985.165 L 1174.37 1024.82 C 1149.65 999.269 1121.92 973.926 1096.44 948.878 C 1079.54 932.273 1063.47 918.198 1047.34 900.302 C 1060.68 886.41 1076.3 872.104 1090.19 858.378 L 1190.21 759.254 L 1513.84 439.958 z" fill="rgb(206,105,5)" transform="translate(0,0)"></path>
<path d="M 849.969 1090.87 C 860.255 1099.64 871.937 1111.53 882.216 1120.86 C 916.579 1152.06 949.594 1185.33 984.334 1216.06 C 952.446 1245.18 921.802 1276.96 890.434 1306.9 C 869.278 1328.11 845.097 1348.65 825.36 1371.07 C 803.52 1395.89 850.335 1425.42 867.006 1438.93 C 856.563 1446.15 842.112 1454.5 831.097 1461.24 C 756.475 1506.65 677.038 1543.63 594.249 1571.49 C 553.319 1588 495.257 1601.19 452.315 1610.69 C 457.491 1602.32 465.263 1592.31 471.033 1584.03 L 510.455 1527.62 L 629.154 1359.7 L 701.166 1258.06 C 721.549 1228.84 741.603 1197.22 766.66 1171.83 C 773.924 1164.47 781.301 1157.18 788.689 1149.95 L 849.969 1090.87 z" fill="rgb(206,105,5)" transform="translate(0,0)"></path>
<metadata><recraft-signature>{"signed_by": "recraft", "signature_b64": "MZFdPdTw6+crhWHEU909g+BimgoWfDR+jR4NK5ygFZwOXPfLhvmot2+mcgH4s3QcEbNcVC3nzPUfDuxc9c8jAA==", "signing_algo": "Ed25519", "generation_timestamp": 1773297349, "identifier": "fcb22292-eb0d-46ae-a572-36aa9a79fa36"}</recraft-signature></metadata></svg>