<svg xmlns="http://www.w3.org/2000/svg" height="1024" preserveAspectRatio="none" style="display: block;" version="1.1" viewBox="0 0 2048 2048" width="1024">
<path d="M 0 0 L 2048 0 L 2048 2048 L 0 2048 L 0 0 z" fill="rgb(31,27,25)" transform="translate(0,0)"></path>
<path d="M 1796.84 574.064 L 1800.12 573.124 C 1800.66 575.555 1800.49 574.367 1798.47 577.589 L 1797.71 578.592 C 1790.09 588.732 1781.57 602.784 1774.4 613.737 C 1758.74 637.47 1743.29 661.334 1728.03 685.328 L 1596.35 889.845 C 1586.8 904.706 1545.74 972.314 1535.34 980.149 C 1526.93 986.495 1516.26 990.866 1506.84 995.551 L 1459.51 1018.96 L 1343.95 1075.69 C 1315.35 1089.62 1284.06 1104.44 1256.05 1119.41 L 1243.63 1117.33 C 1268.11 1091.34 1290.47 1065.57 1314.33 1039.17 C 1334.24 1017.33 1354.28 995.616 1374.45 974.014 C 1391.45 955.546 1410.69 933.891 1428.39 916.419 L 1426.88 914.841 C 1349.36 976.196 1271.48 1037.1 1193.25 1097.55 C 1162.56 1121.86 1131.69 1145.95 1100.66 1169.82 C 1084.79 1182.15 1069.38 1194.82 1053.14 1206.66 C 1062.16 1150.49 1069.76 1080.49 1075.35 1023.07 C 1097.69 1008.12 1121.23 994.325 1144.09 980.183 L 1241.15 919.474 L 1587.92 704.25 C 1633.54 676.577 1678.95 648.552 1724.15 620.178 C 1743.76 608.059 1780.05 587.024 1796.84 574.064 z" fill="rgb(245,158,11)" transform="translate(0,0)"></path>
<path d="M 1426.88 914.841 C 1427.82 914.088 1431.12 910.711 1432.35 911.662 C 1432.43 912.816 1429.24 915.543 1428.39 916.419 L 1426.88 914.841 z" fill="rgb(36,17,5)" transform="translate(0,0)"></path>
<path d="M 245.858 570.925 C 306.479 610.817 369.203 647.643 430.649 686.091 L 972.629 1023.04 C 973.81 1044.04 978.06 1072.79 980.618 1094.23 C 984.797 1131.5 989.239 1168.75 993.944 1205.95 C 913.027 1144.06 832.471 1081.69 752.277 1018.86 L 670.705 954.573 C 657.375 943.953 638.838 927.867 625.322 918.651 L 621.804 919.41 C 659.231 958.038 696.165 999.85 732.782 1039.39 C 756.496 1064.99 778.626 1091.45 803.337 1116.44 C 799.458 1117.04 796.182 1118.26 792.466 1119.47 C 700.2 1072.92 603.188 1024.96 509.941 980.222 C 495.68 955.393 475.791 927.04 459.93 902.838 L 385.297 787.414 L 289.096 638.265 C 274.917 616.263 260.575 592.215 245.858 570.925 z" fill="rgb(245,158,11)" transform="translate(0,0)"></path>
<path d="M 616.316 911.303 C 619.292 913.709 622.439 916.175 625.322 918.651 L 621.804 919.41 C 620.067 917.699 618.583 916.251 616.761 914.62 L 616.316 911.303 z" fill="rgb(36,17,5)" transform="translate(0,0)"></path>
<path d="M 607.472 904.543 C 609.92 906.234 614.36 909.106 616.316 911.303 L 616.761 914.62 C 614.06 912.231 610.08 907.43 607.472 904.543 z" fill="rgb(115,56,8)" transform="translate(0,0)"></path>
<path d="M 891.964 1206.61 C 900.529 1211.99 913.948 1224.57 921.773 1231.56 C 935.564 1243.74 949.221 1256.08 962.739 1268.57 C 940.785 1285.69 906.13 1307.17 882.279 1323.68 L 703.532 1447.28 C 688.88 1457.65 673.866 1468.57 658.821 1478.27 C 673.866 1462.23 691.347 1440.57 705.901 1423.53 C 732.499 1392.9 758.837 1362.05 784.911 1330.97 C 820.073 1289.19 856.959 1248.33 891.964 1206.61 z" fill="rgb(245,158,11)" transform="translate(0,0)"></path>
<path d="M 1154.86 1205.78 C 1160.27 1210.25 1175.56 1229.27 1180.66 1235.32 L 1227.76 1290.86 L 1389.25 1479.03 C 1375.09 1468.54 1359.49 1457.99 1345.01 1447.81 C 1258.1 1388.64 1171.6 1328.88 1085.52 1268.52 C 1105.14 1248.97 1133.56 1225.12 1154.86 1205.78 z" fill="rgb(245,158,11)" transform="translate(0,0)"></path>
<metadata><recraft-signature>{"signed_by": "recraft", "signature_b64": "fubyAbAVZNfTT/o5SpcSqH3czlr5KYKCzsm9p9ykaMmvlZlhp5P1J3TOuX30xFeybC45vB2OZrfMvdOFWNQOCg==", "signing_algo": "Ed25519", "generation_timestamp": 1773297350, "identifier": "76201be9-2967-40f3-9d8f-3ef3746cccde"}</recraft-signature></metadata></svg>