<svg xmlns="http://www.w3.org/2000/svg" height="1024" preserveAspectRatio="none" style="display: block;" version="1.1" viewBox="0 0 2048 2048" width="1024">
<path d="M 0 0 L 2048 0 L 2048 2048 L 0 2048 L 0 0 z" fill="rgb(26,24,24)" transform="translate(0,0)"></path>
<path d="M 1191.06 824.904 C 1208.97 813.341 1233.94 791.3 1251.64 777.342 C 1295.75 742.837 1339.62 708.031 1383.25 672.926 L 1599.96 501.868 C 1629.73 478.434 1660.94 455.806 1690.19 431.803 C 1686.31 452.948 1682.58 474.562 1677.2 495.286 C 1635.13 657.406 1545.46 793.673 1424.99 908.763 C 1385.65 946.339 1347.48 979.632 1305.41 1014.41 C 1274.24 1040.18 1242.74 1071.04 1211.02 1096.46 C 1200.77 1086.14 1190.44 1075.54 1180.07 1065.38 C 1223.5 1028.18 1271.23 985.145 1313.89 946.684 C 1271.47 970.478 1217.29 1009.04 1176.59 1036.38 C 1048.5 1122.39 923.778 1213.3 802.693 1308.91 C 822.617 1301.53 843.914 1291.5 863.548 1282.95 C 892.614 1270.47 921.571 1257.75 950.416 1244.77 C 969.542 1236.01 991.628 1224.91 1011.02 1217.5 C 1001.05 1226.83 982.221 1238.16 970.506 1246.25 L 897.354 1297.13 L 710.315 1427.99 C 692.725 1440.08 675.199 1452.25 657.737 1464.52 C 643.994 1474.18 630.06 1483.33 618.258 1495.38 C 600.074 1513.95 596.745 1543.05 610.085 1565.33 C 617.897 1578.38 629.014 1586.79 641.27 1595.34 C 553.551 1621.08 420.728 1627.23 331.506 1606.01 C 356.124 1586.52 383.847 1567.86 409.196 1549.13 L 627.041 1390.07 C 653.81 1370.41 684.009 1350.2 709.493 1329.48 L 707.663 1327.17 C 675.319 1340.88 642.297 1359.17 610.022 1372.03 C 802.687 1213.97 991.741 1051.55 1177.04 884.907 L 1275.15 797.118 C 1306.05 769.675 1333.37 745.976 1363.23 717.218 L 1361.74 715.328 L 1195.2 824.994 L 1191.06 824.904 z" fill="rgb(245,158,11)" transform="translate(0,0)"></path>
<path d="M 707.663 1327.17 C 708.784 1326.58 712.081 1324.55 713.435 1325.51 C 713.761 1326.71 710.099 1329.02 709.493 1329.48 L 707.663 1327.17 z" fill="rgb(70,21,5)" transform="translate(0,0)"></path>
<path d="M 1361.74 715.328 C 1367.15 710.93 1370.29 710.504 1363.23 717.218 L 1361.74 715.328 z" fill="rgb(70,21,5)" transform="translate(0,0)"></path>
<path d="M 357.359 432.381 C 370.906 442.383 385.804 455.042 399.202 465.624 L 495.07 541.144 L 848.658 818.63 L 846.759 820.305 C 840.53 816.02 833.306 811.716 826.824 807.766 C 784.32 781.87 743.537 753.44 701.757 726.451 C 692.279 720.329 682.024 713.272 671.968 708.262 C 716.742 744.959 764.674 790.252 808.161 829.291 L 925.634 935.774 C 943.313 951.919 961.732 967.859 978.961 984.41 L 915.88 1053.48 C 885.498 1034.59 850.553 1016.06 819.319 997.451 L 768.059 966.908 C 758.278 961.108 744.676 952.564 734.528 948.17 C 741.723 953.634 748.386 959.16 755.093 965.204 C 793.244 999.58 832.81 1032.56 870.938 1066.92 C 861.336 1076.98 849.043 1088.62 838.834 1098.15 C 648.533 928.61 471.878 809.355 386.626 552.727 C 373.812 513.418 364.028 473.185 357.359 432.381 z" fill="rgb(245,158,11)" transform="translate(0,0)"></path>
<path d="M 1151.57 1133.51 C 1204.41 1180.52 1266.19 1228.57 1321.03 1274.01 L 1401.68 1341.12 C 1410.25 1348.14 1424.75 1361 1433.09 1366.97 L 1430.53 1368.35 C 1397.46 1352.71 1364.03 1337.85 1330.25 1323.81 C 1424.2 1391.14 1517.7 1459.1 1610.74 1527.69 C 1632.41 1543.91 1654.18 1559.98 1676.06 1575.9 C 1686.89 1583.81 1705.57 1596.67 1714.95 1605.18 C 1697.68 1611.05 1674.22 1613.44 1655.86 1615.38 C 1576.45 1623.77 1482.34 1616.53 1405.24 1595.4 C 1416.28 1587.98 1427.01 1580.5 1434.41 1569.18 C 1443.1 1556.05 1446.13 1539.97 1442.81 1524.57 C 1436.07 1493.87 1410.74 1483.34 1386.97 1466.67 L 1302.65 1407.44 L 1155.39 1304.56 C 1120.23 1279.63 1080.51 1249.76 1044.55 1226.39 L 1045.21 1223.59 C 1112.21 1251.8 1178.94 1280.67 1245.38 1310.19 C 1190.31 1267.4 1134.04 1225.94 1079.3 1182.53 C 1102.95 1165.84 1127.62 1149.88 1151.57 1133.51 z" fill="rgb(245,158,11)" transform="translate(0,0)"></path>
<path d="M 848.658 818.63 C 853.713 822.01 857.253 825.483 861.572 829.628 C 855.909 826.518 851.91 824.368 846.759 820.305 L 848.658 818.63 z" fill="rgb(178,85,17)" transform="translate(0,0)"></path>
<path d="M 1044.55 1226.39 C 1043.3 1225.58 1039.28 1223.56 1038.8 1222.14 C 1039.46 1220.78 1044.18 1223.2 1045.21 1223.59 L 1044.55 1226.39 z" fill="rgb(178,85,17)" transform="translate(0,0)"></path>
<path d="M 1433.09 1366.97 C 1440.17 1372.26 1434.49 1370.51 1430.53 1368.35 L 1433.09 1366.97 z" fill="rgb(178,85,17)" transform="translate(0,0)"></path>
<path d="M 1191.06 824.904 L 1195.2 824.994 C 1193 826.518 1185.31 830.561 1191.06 824.904 z" fill="rgb(178,85,17)" transform="translate(0,0)"></path>
<metadata><recraft-signature>{"signed_by": "recraft", "signature_b64": "iOVaVcL2efP4EyFXL2ZGlKxm9+YzTGF5KENbbLF2C/vs7o8CxF4OUFsJ3nzM2zOpAjBor/nPQFbhqUzSR7JBCg==", "signing_algo": "Ed25519", "generation_timestamp": 1773297350, "identifier": "7ee9f9a8-05d5-46a9-832b-219b338017a6"}</recraft-signature></metadata></svg>