<svg xmlns="http://www.w3.org/2000/svg" height="1024" preserveAspectRatio="none" style="display: block;" version="1.1" viewBox="0 0 2048 2048" width="1024">
<path d="M 0 0 L 2048 0 L 2048 2048 L 0 2048 L 0 0 z" fill="rgb(37,36,37)" transform="translate(0,0)"></path>
<path d="M 1286.47 623.579 L 1504.73 503.473 L 1592.9 454.715 C 1610.74 444.724 1630.95 432.656 1648.81 423.473 C 1632.43 450.709 1614.13 478.29 1596.99 505.178 L 1540.32 595.731 C 1533.23 607.044 1524.59 619.837 1517.29 631.11 C 1506.24 648.162 1500.4 674.748 1490.94 689.841 C 1486.58 696.791 1463.17 720.287 1456.18 727.574 L 1385.01 801.373 L 1317.81 871.395 C 1307.41 882.315 1286.16 908.849 1272.57 912.82 C 1258.94 916.802 1238.91 916.095 1225.67 923.196 C 1223.15 924.489 1212.08 933.748 1209.14 936.113 L 1175.65 963.033 C 1168.22 968.937 1160.81 974.861 1153.36 980.747 C 1099.23 1023.56 1050.12 1072.92 999.727 1120.11 L 922.261 1193.51 C 905.355 1209.37 886.99 1225.41 870.705 1241.66 C 895.598 1245.35 938.333 1245.28 964.88 1246.74 C 952.828 1255.12 935.624 1263.97 922.455 1271.25 C 900.491 1283.24 878.711 1295.57 857.121 1308.22 L 735.971 1378.97 C 713.964 1391.83 689.021 1407.63 666.578 1418.73 C 694.353 1420.23 731.603 1425.11 758.292 1425.12 C 731.833 1441.43 700.544 1457.64 673.132 1472.67 L 570.617 1529.88 L 466.967 1587.37 C 446.919 1598.64 421.605 1613.84 401.39 1624 C 447.143 1551.32 492.406 1478.33 537.178 1405.04 C 548.028 1386.88 553.54 1364.79 564.497 1347.66 C 567.584 1342.83 583.451 1327.88 588.501 1322.93 C 599.473 1312.22 610.241 1301.31 620.799 1290.19 C 656.182 1252.98 691.915 1216.1 727.995 1179.56 C 741.331 1166.14 759.716 1146.61 773.428 1134.36 C 784.105 1131.79 812.029 1130.56 819.423 1125.67 C 848.796 1106.22 875.971 1081.71 904.161 1060.49 C 939.761 1033.68 970.872 1001.44 1003.02 970.578 L 1123.2 855.431 C 1139.13 840.114 1156.58 822.07 1172.79 807.565 C 1141.77 806.557 1107.6 806.054 1076.72 803.923 C 1150.54 762.758 1224 720.962 1297.1 678.54 C 1312.96 669.398 1328.72 660.086 1344.38 650.607 C 1352.59 645.675 1366.69 636.894 1375.28 633.248 C 1374.84 631.937 1374.41 630.624 1373.98 629.307 C 1344.81 627.571 1315.68 625.143 1286.47 623.579 z" fill="rgb(245,158,11)" transform="translate(0,0)"></path>
<path d="M 1373.98 629.307 C 1379.55 630.3 1380.23 630.375 1375.28 633.248 C 1374.84 631.937 1374.41 630.624 1373.98 629.307 z" fill="rgb(62,30,14)" transform="translate(0,0)"></path>
<path d="M 935.815 1068.76 L 937.273 1070.33 C 923.52 1086.66 908.062 1103.26 893.803 1119.26 C 849.509 1169.2 804.389 1218.4 758.462 1266.84 C 697.641 1333.29 634.486 1397.56 569.117 1459.54 C 546.057 1481.65 515.466 1512.51 491.513 1532.5 C 516.346 1497.4 541.41 1460.01 565.292 1424.15 C 574.981 1409.6 578.988 1378.64 589.138 1364.1 C 596.704 1353.27 613.507 1337.56 623.052 1327.74 L 692.982 1255.59 L 747.998 1198.66 C 756.931 1189.36 769.464 1175.69 779.141 1167.63 C 787.208 1160.91 808.895 1162.34 819.203 1155.93 C 835.978 1145.51 851.777 1133.04 867.464 1121.03 C 890.085 1103.71 913.822 1086.74 935.815 1068.76 z" fill="rgb(37,36,37)" transform="translate(0,0)"></path>
<path d="M 1551.65 520.575 L 1553.6 521.254 C 1529.91 550.981 1503.8 588.583 1483.51 620.93 C 1474.35 635.534 1471.75 667.111 1461.25 682.114 C 1454.86 691.232 1444.99 700.618 1437.32 708.658 L 1391.75 756.008 C 1352.36 796.688 1309.17 843.798 1268.72 882.674 C 1262.6 883.153 1233.31 888.74 1229.19 891.453 C 1185.76 920.032 1143.75 958.122 1100.44 986.361 C 1141.36 943.031 1180.52 898.687 1220.96 855.053 C 1310.75 756.274 1404.14 660.822 1500.93 568.888 C 1517.75 552.938 1534.56 536.143 1551.65 520.575 z" fill="rgb(37,36,37)" transform="translate(0,0)"></path>
<path d="M 935.815 1068.76 C 937.314 1067.3 943.899 1061.25 945.197 1060.63 C 946.85 1061.51 938.287 1069.33 937.273 1070.33 L 935.815 1068.76 z" fill="rgb(62,30,14)" transform="translate(0,0)"></path>
<path d="M 1551.65 520.575 C 1552.27 519.973 1554.35 517.521 1555.36 518.381 C 1555.44 519.351 1554.04 520.712 1553.6 521.254 L 1551.65 520.575 z" fill="rgb(101,36,11)" transform="translate(0,0)"></path>
<path d="M 1138.31 1050.28 C 1168.99 1073.51 1202.42 1103.51 1234.02 1125.99 C 1238.46 1129.15 1269.99 1133.7 1277.08 1134.26 L 1431.42 1292.67 C 1442.59 1304.08 1453.82 1315.42 1465.13 1326.68 C 1469.86 1331.45 1483.14 1344.26 1486.34 1349.49 C 1496.63 1366.31 1502.1 1388.07 1512.54 1405.36 C 1521.31 1419.89 1530.44 1434.02 1539.22 1448.45 C 1557.36 1478.87 1575.79 1509.12 1594.49 1539.2 C 1611.03 1565.79 1630.81 1599.85 1648.69 1624.42 C 1559.07 1577.78 1470.63 1525.51 1381.56 1477.57 C 1352.07 1461.69 1316.63 1439.58 1287.17 1425.47 C 1316.33 1423.36 1347.39 1418.55 1376.31 1417.69 C 1346.79 1399.63 1317.63 1383.56 1287.77 1366.33 C 1220.09 1326.97 1152.16 1288.05 1083.97 1249.57 L 1080.9 1247.76 L 1081.16 1246.93 C 1089.97 1245.57 1101.82 1245.49 1110.98 1244.93 C 1130.64 1243.72 1150.64 1243.25 1170.29 1241.86 C 1131.16 1204.73 1092.31 1168.49 1054.63 1129.71 C 1073.35 1111.17 1092.2 1093.47 1111.62 1075.66 C 1120.62 1067.41 1129.21 1058.41 1138.31 1050.28 z" fill="rgb(245,158,11)" transform="translate(0,0)"></path>
<path d="M 1124.42 1083.99 C 1148.34 1101.19 1172.45 1118.13 1196.75 1134.8 C 1207.31 1142.12 1223 1153.7 1234.06 1159.26 C 1238.71 1161.59 1260.73 1163.64 1267.28 1164.46 C 1307.14 1201.43 1348.11 1246.79 1386.61 1286.25 C 1403.08 1303.06 1419.48 1319.96 1435.78 1336.94 C 1440.8 1342.17 1458.82 1360.28 1461.96 1365.87 C 1470.82 1381.66 1474.06 1406.99 1482.85 1423.84 C 1488.9 1435.44 1496.41 1444.47 1503.07 1455.08 C 1517.06 1477.32 1536.06 1501.13 1549.78 1522.82 L 1546.78 1524.23 C 1498.07 1476.78 1448.85 1430.65 1400.73 1382.4 C 1348.41 1329.07 1296.67 1275.16 1245.52 1220.7 L 1166.03 1135.15 C 1151.07 1118.78 1136.56 1103.85 1122.26 1086.84 L 1124.42 1083.99 z" fill="rgb(37,36,37)" transform="translate(0,0)"></path>
<path d="M 1549.78 1522.82 C 1552.98 1526.57 1555.89 1530.56 1558.46 1534.77 L 1559.52 1536.47 C 1555.2 1532.4 1551.06 1528.3 1546.78 1524.23 L 1549.78 1522.82 z" fill="rgb(62,30,14)" transform="translate(0,0)"></path>
<path d="M 1113.62 1077.52 C 1118.91 1080.18 1119.54 1080.42 1124.42 1083.99 L 1122.26 1086.84 C 1119.39 1083.99 1116.38 1080.53 1113.62 1077.52 z" fill="rgb(62,30,14)" transform="translate(0,0)"></path>
<path d="M 400.669 423.891 C 411.53 428.963 425.718 437.333 436.573 443.356 L 517.656 488.962 C 573.931 519.687 629.937 550.906 685.665 582.613 C 710.652 596.541 735.883 609.592 760.674 623.888 C 729.277 626.705 695.955 627.532 664.248 629.909 C 693.546 643.848 728.966 665.905 757.834 682.572 C 828.846 723.57 899.025 763.927 970.772 803.64 C 938.765 804.77 907.298 806.886 875.159 807.405 C 894.895 827.584 917.137 848.7 937.369 868.796 C 955.294 886.417 973.766 903.099 991.607 921.061 C 967.442 944.468 934.772 977.274 909.515 998.791 L 844.861 945.152 C 807.783 914.731 815.222 921.13 770.143 911.515 L 627.101 762.9 L 581.298 715.694 C 575.875 710.098 561.162 695.382 556.806 689.474 C 547.297 676.579 541.915 651.772 532.916 637.569 C 522.948 621.835 512.946 606.221 503.112 590.441 L 450.612 505.655 C 433.894 479.14 415.556 451.243 400.669 423.891 z" fill="rgb(245,158,11)" transform="translate(0,0)"></path>
<path d="M 502.788 528.41 C 542.748 566.308 582.581 602.585 621.971 641.307 C 685.876 705.38 748.666 770.554 810.315 836.801 C 848.953 878.456 896.899 929.607 932.267 973.557 C 894.115 947.319 853.133 913.711 813.296 889.271 C 809.567 886.983 786.884 884.593 780.604 883.555 C 736.786 836.835 692.3 790.748 647.157 745.307 L 609.353 706.897 C 604.203 701.656 590.379 688.088 586.697 682.538 C 575.79 666.104 571.041 637.624 561.785 620.145 C 555.686 608.628 543.386 592.327 535.561 581.326 C 523.829 564.768 512.298 548.069 500.97 531.231 L 502.788 528.41 z" fill="rgb(37,36,37)" transform="translate(0,0)"></path>
<path d="M 490.73 516.605 C 495.163 520.656 498.592 524.133 502.788 528.41 L 500.97 531.231 C 497.008 526.236 494.178 521.864 490.73 516.605 z" fill="rgb(62,30,14)" transform="translate(0,0)"></path>
<metadata><recraft-signature>{"signed_by": "recraft", "signature_b64": "n7Mdetg67jxOok/ejDWaMuALIxkO4o6N8R+lRAlzcBHYhaVvCpzyc5z/Euwe8IsL0J83s48HjSvuE2P5l3v5Dw==", "signing_algo": "Ed25519", "generation_timestamp": 1773297349, "identifier": "123933c4-0d4d-4ee5-9e93-e0a8cabbde4b"}</recraft-signature></metadata></svg>