<svg xmlns="http://www.w3.org/2000/svg" height="1024" preserveAspectRatio="none" style="display: block;" version="1.1" viewBox="0 0 2048 2048" width="1024">
<path d="M 0 0 L 2048 0 L 2048 2048 L 0 2048 L 0 0 z" fill="rgb(39,36,36)" transform="translate(0,0)"></path>
<path d="M 1493.43 568.545 C 1497.63 564.692 1501.51 561.751 1505.98 558.253 C 1501.83 568.105 1496.42 581.863 1491.6 591.198 C 1487.63 603.638 1469.99 639.527 1463.54 653.756 L 1423.03 743.016 C 1418.36 753.398 1407.8 778.999 1401.98 787.575 C 1399.58 791.112 1374.14 808.199 1368.61 811.999 L 1300.07 859.055 C 1215.61 917.485 1131.73 976.73 1048.42 1036.78 L 1050.33 1038.39 C 1062.62 1029.94 1088.98 1015.98 1102.81 1008.16 C 1139.64 987.281 1176.6 966.623 1213.68 946.191 C 1282.07 908 1349.25 867.458 1418.62 829.553 C 1429.53 823.591 1548.06 835.542 1569.97 833.83 C 1576.64 833.309 1611.03 835.127 1619.31 836.048 C 1620.35 835.973 1646.57 834.424 1634.97 839.563 C 1618.22 851.214 1580.18 871.099 1560.81 881.982 L 1412.65 965.721 L 1183.6 1098.13 C 1144.65 1120.62 1096.11 1150.36 1056.86 1170.07 C 1042.58 1167.32 1026.05 1162.56 1011.67 1159.05 L 919.713 1136.47 C 938.552 1078.93 951.327 1026.09 967.842 968.659 C 996.819 945.049 1032.47 919.358 1062.45 896.836 L 1202.15 790.969 C 1258 747.712 1314.14 704.817 1370.56 662.285 C 1410.82 631.294 1452.45 598.559 1493.43 568.545 z" fill="rgb(214,88,4)" transform="translate(0,0)"></path>
<path d="M 1493.43 568.545 C 1497.63 564.692 1501.51 561.751 1505.98 558.253 C 1501.83 568.105 1496.42 581.863 1491.6 591.198 C 1491.22 582.143 1500.39 570.789 1500.48 566.544 C 1497.15 564.426 1497.27 570.703 1493.43 568.545 z" fill="rgb(229,94,4)" transform="translate(0,0)"></path>
<path d="M 1048.42 1036.78 L 1050.33 1038.39 C 1048.13 1039.9 1032.07 1050.01 1030.68 1049.42 L 1030.64 1049.31 C 1031.11 1047.99 1046.32 1037.89 1048.42 1036.78 z" fill="rgb(132,65,25)" transform="translate(0,0)"></path>
<path d="M 1619.31 836.048 C 1620.35 835.973 1646.57 834.424 1634.97 839.563 C 1630.17 836.457 1621.72 838.488 1619.31 836.048 z" fill="rgb(229,94,4)" transform="translate(0,0)"></path>
<path d="M 882.812 1031.07 C 892.521 1032.44 899.972 1036.72 897.426 1047.97 C 894.65 1060.24 890.335 1072.4 886.491 1084.4 L 865.973 1148.21 C 891.479 1168.06 965.519 1190.43 998.235 1201.68 C 835.006 1301.39 667.705 1397.11 504.476 1497.08 C 473.33 1516.17 441.874 1534.76 410.12 1552.82 C 419.264 1531.45 432.773 1506.66 443.316 1485.61 C 463.531 1444.64 483.995 1403.8 504.708 1363.08 L 537.668 1298.57 C 540.579 1292.91 553.012 1267.33 556.999 1264.03 C 573.354 1250.49 594.253 1235.91 611.448 1223.34 C 690.421 1165.62 770.126 1108.91 850.542 1053.22 C 859.446 1047.11 874.238 1035.84 882.812 1031.07 z" fill="rgb(214,88,4)" transform="translate(0,0)"></path>
<path d="M 672.997 1440.85 C 676.807 1439.55 691.671 1430.65 696.011 1428.13 L 743.016 1400.82 L 947.59 1283.71 C 1034.12 1235.09 1121.88 1188.68 1210.77 1144.53 C 1236.24 1131.86 1262.12 1119.75 1287.72 1107.29 C 1327.6 1087.88 1367.09 1065.76 1407.19 1046.97 L 1409.44 1048.57 C 1340.11 1091.99 1270.38 1134.77 1200.26 1176.91 C 1169.88 1195.13 1138.85 1212.51 1108.41 1230.64 C 1104.96 1232.69 1099.33 1236.73 1098.21 1240.74 C 1100.38 1245.3 1109.74 1242.56 1113.65 1241.24 C 1147.78 1229.66 1181.29 1216.02 1214.85 1202.84 L 1301.7 1167.86 C 1315.26 1162.41 1331.38 1156.76 1344.45 1150.86 L 1347.31 1152.45 C 1252.47 1202.09 1158.25 1253.42 1063.38 1303.12 C 1005.28 1333.57 948.404 1360.3 889.462 1388.58 C 940.927 1349.14 998.259 1315.64 1051.93 1279.24 C 1055.08 1277.1 1058.92 1274.23 1059.55 1270.42 C 1051.2 1265.19 990.463 1295.94 977.494 1302.12 L 887.008 1344.58 C 818.14 1376.9 743.023 1407.78 675.373 1442.15 L 672.997 1440.85 z" fill="rgb(214,88,4)" transform="translate(0,0)"></path>
<path d="M 1250.57 685.06 L 1251.43 687.382 C 1128.52 783.362 1008.43 882.952 883.121 976.229 C 826.458 1017.94 769.501 1059.26 712.253 1100.17 C 673.561 1127.56 626.225 1159.63 589.611 1188.99 L 587.527 1187.54 C 625.726 1156.92 682.007 1106.46 718.027 1075.29 C 743.613 1053.14 889.605 933.671 895.964 917.492 L 894.838 915.739 C 892.087 915.525 890.484 916.021 888.023 917.434 C 829.517 951.019 772.151 986.559 714.203 1021.13 L 713.415 1018.59 C 727.369 1008.63 744.708 994.167 758.442 983.378 L 846.035 914.712 C 910.888 864.206 976.301 813.414 1045.27 768.664 C 1056.66 761.279 1068.02 753.897 1079.37 746.461 L 1079.94 749.235 C 1049.65 775.901 1019.73 803.005 990.221 830.537 C 982.64 837.567 954.909 860.124 952.692 867.978 C 954.675 871.918 958.759 869.928 962.009 868.206 C 973.436 862.15 984.416 855.073 995.385 848.219 L 1050.76 813.562 C 1118.17 771.993 1184.78 729.152 1250.57 685.06 z" fill="rgb(214,88,4)" transform="translate(0,0)"></path>
<path d="M 1373.67 498.851 C 1376.41 501.699 1371.23 546.119 1370.71 552.863 C 1360.25 559.395 1347.42 564.726 1336.16 570.097 C 1317.71 578.893 1299.58 587.752 1280.81 595.819 C 1280.75 595.763 1280.01 595.118 1280.2 594.935 C 1310.93 564.866 1343.81 529.21 1373.67 498.851 z" fill="rgb(214,88,4)" transform="translate(0,0)"></path>
<path d="M 1577.78 954.937 C 1580.43 956.992 1576.17 976.802 1575.6 981.598 L 1547.99 986.825 C 1532.39 989.627 1516.95 992.438 1501.22 994.526 C 1501.2 994.511 1500.18 993.833 1500.58 993.567 C 1513.86 984.794 1567.5 959.958 1577.78 954.937 z" fill="rgb(229,94,4)" transform="translate(0,0)"></path>
<path d="M 1121.2 636.228 C 1125.2 637.4 1128.93 638.641 1133.01 639.659 L 1137.52 640.788 L 1143.55 642.299 C 1131.59 656.945 1117.41 673.628 1106.14 688.444 C 1102.26 693.065 1098.77 698.366 1095.11 703.218 C 1102.29 685.982 1115.25 653.764 1121.2 636.228 z" fill="rgb(229,94,4)" transform="translate(0,0)"></path>
<path d="M 956.744 696.622 C 961.473 698.475 972.337 701.381 977.444 702.618 C 966.908 716.315 956.169 729.856 945.231 743.236 C 941.378 748.175 937.565 753.146 933.794 758.147 C 938.57 745.805 943.228 733.418 947.765 720.986 C 950.494 713.432 953.459 703.613 956.744 696.622 z" fill="rgb(229,94,4)" transform="translate(0,0)"></path>
<path d="M 1476.16 1101.59 C 1480.07 1103.29 1489.46 1110.54 1493.66 1113.48 C 1485.49 1115.6 1477.14 1117.14 1469.1 1119.72 L 1467.76 1120.13 C 1462.63 1121.54 1457.04 1123.3 1451.86 1124.8 C 1459.38 1117.4 1468.45 1108.89 1476.16 1101.59 z" fill="rgb(229,94,4)" transform="translate(0,0)"></path>
<path d="M 589.611 1188.99 C 588.285 1190.41 571.728 1203.28 570.652 1203.07 C 569.023 1201.2 585.471 1188.99 587.527 1187.54 L 589.611 1188.99 z" fill="rgb(132,65,25)" transform="translate(0,0)"></path>
<path d="M 1079.37 746.461 C 1083.53 742.719 1088.51 740.057 1093.34 737.309 C 1090.08 740.498 1083.72 746.789 1079.94 749.235 L 1079.37 746.461 z" fill="rgb(132,65,25)" transform="translate(0,0)"></path>
<path d="M 1407.19 1046.97 C 1413.3 1043.09 1417.64 1041.27 1424.18 1038.4 C 1419.14 1042.14 1414.66 1045.16 1409.44 1048.57 L 1407.19 1046.97 z" fill="rgb(171,88,31)" transform="translate(0,0)"></path>
<path d="M 1250.57 685.06 C 1253.19 682.067 1260.57 678.499 1264.14 676.612 C 1260.36 680.131 1255.68 684.443 1251.43 687.382 L 1250.57 685.06 z" fill="rgb(132,65,25)" transform="translate(0,0)"></path>
<path d="M 714.203 1021.13 C 711.284 1023.33 706.174 1026.65 702.808 1028.08 L 702.812 1027.74 L 702.64 1027.82 C 702.444 1026.57 712.01 1019.65 713.415 1018.59 L 714.203 1021.13 z" fill="rgb(171,88,31)" transform="translate(0,0)"></path>
<path d="M 1356.62 1145.56 L 1355.41 1148.51 C 1353.08 1149.14 1349.59 1151.28 1347.31 1152.45 L 1344.45 1150.86 C 1348.03 1149.45 1353.25 1147.23 1356.62 1145.56 z" fill="rgb(171,88,31)" transform="translate(0,0)"></path>
<path d="M 660.862 1448.49 C 665.018 1445.48 668.356 1442.95 672.997 1440.85 L 675.373 1442.15 C 670.253 1445.31 666.427 1446.41 660.862 1448.49 z" fill="rgb(97,57,33)" transform="translate(0,0)"></path>
<path d="M 1356.62 1145.56 C 1363.34 1141.73 1361.36 1145.45 1355.41 1148.51 L 1356.62 1145.56 z" fill="rgb(97,57,33)" transform="translate(0,0)"></path>
<metadata><recraft-signature>{"signed_by": "recraft", "signature_b64": "zpzHUACKmdryWKJn3ENZVFWOetf/yhDx2qW1gvZRn2hb+89pGTFNS6B+y8LHQVDgqN2rKqr4g4A706sKhwaHAA==", "signing_algo": "Ed25519", "generation_timestamp": 1773297716, "identifier": "25d9f907-a1f1-451b-a341-4f96a1ab968d"}</recraft-signature></metadata></svg>