<svg xmlns="http://www.w3.org/2000/svg" height="1024" preserveAspectRatio="none" style="display: block;" version="1.1" viewBox="0 0 2048 2048" width="1024">
<path d="M 0 0 L 2048 0 L 2048 2048 L 0 2048 L 0 0 z" fill="rgb(1,1,1)" transform="translate(0,0)"></path>
<path d="M 358.58 528.103 C 444.709 526.376 531.57 529.261 617.764 527.624 C 623.404 527.517 641.786 526.85 646.007 528.579 C 661.398 534.887 691.337 555.151 704.603 563.555 L 815.333 634.19 L 1011.2 757.114 C 1059.9 788.2 1108.77 818.995 1157.83 849.498 C 1182.67 865.087 1208.04 881.984 1233.29 896.811 C 1225 922.257 1217.38 947.92 1210.46 973.773 C 1241.01 992.248 1275.25 1016.86 1305.53 1036.95 L 1475.6 1148.38 L 1473.61 1150.3 C 1425.96 1121.11 1373.33 1092.04 1324.67 1064.16 C 1288.59 1043.49 1242.02 1014.69 1204.99 996.855 C 1197.61 1022.38 1188.13 1053.57 1182.16 1079.09 C 1343.35 1188.07 1505.51 1295.59 1668.64 1401.64 L 1666.54 1403.39 C 1641.58 1387.76 1615.74 1374.26 1590.31 1359.67 C 1534.85 1327.35 1479.12 1295.51 1423.11 1264.17 C 1339.66 1216.99 1256.34 1167.07 1173 1120.25 C 1164.9 1142.19 1157.39 1169.7 1150.46 1192.61 L 1522.36 1419.25 L 1629.68 1484.91 C 1640.8 1491.81 1670.66 1511.81 1680.68 1516.69 L 1684.41 1519.33 C 1682.42 1520.97 1683.47 1520.27 1680.6 1520.81 C 1670.4 1519.63 1634.02 1520.89 1621.13 1520.93 L 1497.33 1520.89 L 1285.81 1393.47 C 1252.78 1373.55 1219.58 1352.17 1186.54 1332.67 L 1036.04 1243.02 C 1002.26 1222.99 965.296 1202.24 932.519 1180.9 C 935.68 1167.5 938.754 1154.07 941.739 1140.63 C 926.179 1132.71 905.266 1117.93 890.079 1107.83 C 866.156 1091.88 842.119 1076.1 817.972 1060.5 L 603.945 919.485 C 572.098 898.515 537.894 874.889 505.972 854.941 L 507.803 853.013 C 534.04 868.781 563.794 884.528 590.742 899.899 L 797.104 1017.3 C 831.376 1037.23 865.769 1056.95 900.281 1076.46 C 912.967 1083.67 938.392 1099.02 950.473 1103.94 C 955.718 1077.34 961.483 1052.61 967.843 1026.19 C 955.696 1019.38 931.961 1002.35 919.036 993.813 L 803.496 916.97 C 698.796 846.362 593.451 776.715 487.473 708.04 C 454.278 686.51 421.826 663.885 387.997 643.094 L 389.048 640.303 C 442.651 672.371 497.912 702.525 552.174 733.39 C 627.758 777.184 703.615 820.504 779.741 863.347 L 909.677 937.855 C 929.661 949.387 958.731 967.606 979.024 977.301 C 983.099 954.819 988.484 931.864 993.465 909.508 L 561.957 651.347 C 515.058 623.59 468.404 595.423 421.999 566.848 C 402.638 555.038 376.563 540.764 358.58 528.103 z" fill="rgb(245,158,11)" transform="translate(0,0)"></path>
<path d="M 724.833 1124.24 C 821.057 1178.58 916.817 1233.73 1012.1 1289.7 C 1023.19 1296.27 1034.43 1302.54 1045.68 1308.84 C 1080.29 1328.21 1113.13 1351.2 1146.52 1372.64 C 1192.05 1401.46 1237.27 1430.77 1282.17 1460.56 L 1281.61 1463.08 L 1114.78 1366.6 C 1074.82 1343.69 1033.15 1321.25 994.056 1297.06 C 903.341 1240.91 812.729 1183.46 722.959 1125.82 L 724.833 1124.24 z" fill="rgb(245,158,11)" transform="translate(0,0)"></path>
<path d="M 862.197 607.412 C 934.29 648.27 1005.94 689.904 1077.13 732.307 C 1115.61 755.087 1157 778.571 1194.79 802.276 C 1241.03 831.465 1286.98 861.13 1332.61 891.266 C 1351.07 903.322 1371.94 918.169 1390.42 929.281 L 1389.82 932.141 C 1377.86 925.002 1364.87 918.229 1352.71 911.191 L 1243.18 847.313 C 1204.1 824.93 1164.91 802.602 1126.3 779.409 C 1102.54 765.135 1079.27 749.178 1055.9 734.155 L 937.583 658.647 C 915.457 644.501 883.665 622.522 860.993 610.011 L 862.197 607.412 z" fill="rgb(245,158,11)" transform="translate(0,0)"></path>
<path d="M 387.997 643.094 L 386.215 641.964 C 385.559 641.556 341.357 614.781 355.44 620.271 C 359.165 621.723 369.96 628.767 374.064 631.324 C 377.261 633.316 386.41 638.223 389.048 640.303 L 387.997 643.094 z" fill="rgb(136,62,32)" transform="translate(0,0)"></path>
<path d="M 860.993 610.011 C 857.364 607.8 829.495 590.73 828.841 588.589 C 828.968 588.519 829.095 588.449 829.223 588.379 C 831.122 588.685 859.15 605.391 862.197 607.412 L 860.993 610.011 z" fill="rgb(136,62,32)" transform="translate(0,0)"></path>
<path d="M 1668.64 1401.64 C 1676.04 1405.4 1687.66 1413.64 1694.28 1418.7 L 1698.5 1421.87 C 1692.2 1418.92 1672.35 1407.55 1666.54 1403.39 L 1668.64 1401.64 z" fill="rgb(136,62,32)" transform="translate(0,0)"></path>
<path d="M 473.939 835.061 C 485.722 840.059 497.053 846.066 507.803 853.013 L 505.972 854.941 C 495.233 848.274 484.435 842.07 473.939 835.061 z" fill="rgb(136,62,32)" transform="translate(0,0)"></path>
<path d="M 1390.42 929.281 C 1396.13 932.496 1401.87 936.904 1407.71 940.429 L 1404.7 941.081 C 1399.89 938.14 1394.4 935.259 1389.82 932.141 L 1390.42 929.281 z" fill="rgb(136,62,32)" transform="translate(0,0)"></path>
<path d="M 722.959 1125.82 C 718.955 1123.15 709.229 1117.63 705.357 1114.3 C 705.241 1114.2 705.308 1114.13 705.399 1113.95 C 708.939 1113.72 721.756 1121.95 724.833 1124.24 L 722.959 1125.82 z" fill="rgb(136,62,32)" transform="translate(0,0)"></path>
<path d="M 1475.6 1148.38 C 1479.94 1150.97 1484.39 1154.35 1488.72 1157.14 L 1486.67 1158.29 C 1482.39 1155.75 1477.63 1153.11 1473.61 1150.3 L 1475.6 1148.38 z" fill="rgb(136,62,32)" transform="translate(0,0)"></path>
<path d="M 1282.17 1460.56 L 1295.81 1469.16 L 1293.71 1470.27 C 1289.34 1467.78 1285.85 1466.06 1281.61 1463.08 L 1282.17 1460.56 z" fill="rgb(136,62,32)" transform="translate(0,0)"></path>
<path d="M 1295.81 1469.16 C 1299.13 1470.57 1307.6 1476.56 1310.98 1478.89 C 1303.55 1476.09 1300.4 1474.9 1293.71 1470.27 L 1295.81 1469.16 z" fill="rgb(80,37,23)" transform="translate(0,0)"></path>
<path d="M 1407.71 940.429 C 1411.82 942.262 1417.81 946.531 1421.64 949.082 C 1414.71 946.922 1410.56 945.719 1404.7 941.081 L 1407.71 940.429 z" fill="rgb(80,37,23)" transform="translate(0,0)"></path>
<path d="M 1488.72 1157.14 C 1493.16 1159.23 1500.54 1164.4 1504.71 1167.22 C 1497.61 1164.49 1493.12 1162.59 1486.67 1158.29 L 1488.72 1157.14 z" fill="rgb(80,37,23)" transform="translate(0,0)"></path>
<path d="M 1091.61 764.168 C 1092.12 764.029 1092.63 763.889 1093.13 763.75 C 1093.03 764.055 1092 764.727 1092.02 764.715 C 1091.26 765.151 1091.54 765.037 1091.11 765.166 C 1091.1 764.855 1091.52 764.319 1091.61 764.168 z" fill="rgb(60,48,48)" transform="translate(0,0)"></path>
<path d="M 619.98 941.965 C 620.358 942.043 620.134 941.965 620.67 942.264 C 620.088 942.071 620.299 942.179 619.98 941.965 z" fill="rgb(1,1,1)" transform="translate(0,0)"></path>
<metadata><recraft-signature>{"signed_by": "recraft", "signature_b64": "oIZLFgxzH2O4iOU31kLqs2NDV0PaVkdnpAhtv6GN784WyealvnBQdUW2ZhZYBHu56QoPJYIjHaV1VGWIjhh0Ag==", "signing_algo": "Ed25519", "generation_timestamp": 1773297718, "identifier": "540fdfc5-8625-4e90-be93-bc31a3afbae4"}</recraft-signature></metadata></svg>