<svg xmlns="http://www.w3.org/2000/svg" height="1024" preserveAspectRatio="none" style="display: block;" version="1.1" viewBox="0 0 2048 2048" width="1024">
<path d="M 0 0 L 2048 0 L 2048 2048 L 0 2048 L 0 0 z" fill="rgb(36,27,26)" transform="translate(0,0)"></path>
<path d="M 607.602 1114.2 C 595.018 1066.4 600.64 1002.64 609.295 954.753 C 651.955 718.722 891.432 548.993 1127.94 617.391 C 1233.29 647.86 1306.69 702.703 1367.61 794.581 C 1351.32 800.801 1333.95 808.453 1317.77 815.215 C 1307.22 804.708 1296.57 792.839 1285.68 782.82 C 1260.54 759.692 1227.9 738.517 1196.6 724.76 C 1134.12 697.096 1064.03 691.749 998.082 709.616 C 973.6 716.078 952.815 724.317 929.308 733.451 L 929.623 735.555 C 939.893 731.511 954.382 730.436 965.465 728.89 C 1072.97 713.894 1179.61 758.58 1242.38 848.034 C 1210.71 859.783 1174.62 877.483 1143.66 887.889 C 1123.56 872.424 1108.57 862.929 1084.81 853.97 C 1006.19 824.329 922.597 854.676 873.232 920.734 C 849.23 952.852 839.408 987.588 833.886 1027 C 799.313 1040.52 764.015 1055.03 729.352 1067.97 C 728.637 1043.38 728.142 1021.1 731.767 996.416 C 742.44 923.731 777.451 863.203 826.686 809.82 C 830.414 805.778 834.755 801.444 839.129 798.202 L 838.418 796.582 C 781.341 826.228 741.36 852.094 705.896 908.893 C 668.454 968.858 656.897 1026.55 655.949 1095.79 C 639.694 1102.89 624.273 1108.27 607.602 1114.2 z" fill="rgb(245,158,11)" transform="translate(0,0)"></path>
<path d="M 929.623 735.555 C 928.138 736.056 918.362 739.857 918.108 738.121 L 918.456 737.821 L 918.543 738.068 C 918.992 737.173 928.13 733.789 929.308 733.451 L 929.623 735.555 z" fill="rgb(181,70,14)" transform="translate(0,0)"></path>
<path d="M 838.418 796.582 C 842.887 793.598 844.437 794.892 839.129 798.202 L 838.418 796.582 z" fill="rgb(130,43,15)" transform="translate(0,0)"></path>
<path d="M 1385.73 924.803 C 1400.36 918.686 1414.77 912.072 1428.94 904.971 C 1462.37 997.151 1442.47 1112.79 1403.37 1200.11 C 1307.11 1415.03 1045.63 1510.38 836.119 1399.95 C 793.063 1377.26 725.104 1327.13 698.07 1286.16 C 714.541 1276.91 732.258 1268.41 749.069 1259.59 C 808.569 1318.62 884.944 1351.38 968.994 1351.1 C 1028.99 1351.35 1087.92 1335.23 1139.44 1304.47 L 1135.75 1302.62 C 1055.8 1328.05 972.626 1325.23 897.526 1286.17 C 873.356 1273.6 836.136 1245.33 819.657 1223.57 C 852.538 1207.92 884.146 1189.82 916.538 1174.01 C 962.335 1201.43 1011.63 1216.19 1064.59 1202.67 C 1113.3 1190.5 1155.08 1159.28 1180.57 1116.03 C 1198.52 1085.59 1210.2 1046.1 1209.01 1010.57 C 1244.84 994.148 1277.7 977.362 1312.79 959.526 C 1325.92 1051.52 1299.9 1136.87 1244.44 1210.49 C 1237.26 1220.16 1229.39 1229.31 1220.9 1237.86 C 1241.09 1225.39 1263.52 1211.6 1281.34 1195.59 C 1329.54 1152.27 1363.59 1092.9 1378.58 1029.98 C 1387.3 993.379 1388.37 961.732 1385.73 924.803 z" fill="rgb(245,158,11)" transform="translate(0,0)"></path>
<path d="M 1144.58 1299.59 L 1145.06 1301.05 C 1143.16 1302.22 1141.32 1303.25 1139.44 1304.47 L 1135.75 1302.62 C 1138.78 1301.68 1141.64 1300.79 1144.58 1299.59 z" fill="rgb(54,6,3)" transform="translate(0,0)"></path>
<path d="M 1150.67 1296.53 L 1151.33 1298.31 C 1149.15 1299.06 1147.16 1300.1 1145.06 1301.05 L 1144.58 1299.59 C 1146.8 1298.24 1148.27 1297.62 1150.67 1296.53 z" fill="rgb(130,43,15)" transform="translate(0,0)"></path>
<path d="M 1150.67 1296.53 C 1155.68 1293.62 1156.75 1295.45 1151.33 1298.31 L 1150.67 1296.53 z" fill="rgb(181,70,14)" transform="translate(0,0)"></path>
<path d="M 1724.51 698.75 L 1727.08 700.393 C 1679.31 725.745 1628.75 750.04 1580.26 774.375 L 1305.01 912.158 L 554.066 1290.03 C 566.374 1296.88 592.223 1306.32 605.49 1311.34 C 634.071 1322.2 662.747 1332.81 691.513 1343.17 C 660.898 1341.08 629.818 1341.07 599.169 1339.4 C 558.919 1337.2 517.533 1333.18 477.561 1327.89 C 419.259 1320.18 364.135 1303.14 307.285 1289.03 C 320.361 1282.69 337.841 1276.22 351.534 1270.83 L 418.843 1244.23 C 503.214 1210.75 587.371 1176.74 671.311 1142.19 L 1366.16 849.318 C 1485.99 800.03 1605.44 749.84 1724.51 698.75 z" fill="rgb(245,158,11)" transform="translate(0,0)"></path>
<path d="M 1739.41 692.585 L 1740.1 694.288 C 1735.51 696.429 1731.9 698.53 1727.08 700.393 L 1724.51 698.75 C 1729.73 696.536 1734.05 694.643 1739.41 692.585 z" fill="rgb(181,70,14)" transform="translate(0,0)"></path>
<path d="M 1739.41 692.585 C 1745.26 689.235 1746.59 690.745 1740.1 694.288 L 1739.41 692.585 z" fill="rgb(130,43,15)" transform="translate(0,0)"></path>
<metadata><recraft-signature>{"signed_by": "recraft", "signature_b64": "GCi5PKpbYxTYLKgWQZ87hQXgUXmnJaAsziEZHFfEn3sEbo2jlHUR6Xs3gmPeiHNgeHmVFa7S2xLgCZSpJVihCw==", "signing_algo": "Ed25519", "generation_timestamp": 1773297697, "identifier": "7dcb994d-38e6-47b6-a118-30f801d0f043"}</recraft-signature></metadata></svg>