<svg xmlns="http://www.w3.org/2000/svg" height="1024" preserveAspectRatio="none" style="display: block;" version="1.1" viewBox="0 0 2048 2048" width="1024">
<path d="M 0 0 L 2048 0 L 2048 2048 L 0 2048 L 0 0 z" fill="rgb(37,34,34)" transform="translate(0,0)"></path>
<path d="M 1593.67 419.913 C 1593.78 425.593 1541.84 505.692 1534.76 516.876 C 1442.14 662.32 1351.77 809.195 1263.71 957.446 C 1269.08 962.277 1279.37 969.659 1285.34 974.269 C 1300.55 985.848 1315.53 997.712 1330.29 1009.86 C 1297.19 1032.76 1247.94 1059.66 1212.31 1080.68 L 1026.24 1192.47 L 453.494 1540.7 C 438.552 1550.05 423.469 1559.17 408.252 1568.07 C 452.977 1522.83 503.382 1476.76 549.354 1432.37 L 904.086 1092.64 C 1137.67 872.241 1367.56 647.969 1593.67 419.913 z" fill="rgb(245,158,11)" transform="translate(0,0)"></path>
<path d="M 1205.13 585.127 L 1291.93 585.329 C 1304.46 585.366 1324.67 586.074 1336.77 585.309 C 1319.08 605.735 1295.4 629.184 1276.39 648.954 C 1220.65 706.224 1164.06 762.665 1106.64 818.26 L 766.762 1148.41 L 647.58 1262.33 L 611.902 1295.84 C 607.179 1300.27 597.242 1309.17 593.21 1313.9 L 590.314 1312.74 C 609.198 1292.38 628.011 1270.05 646.336 1249.04 C 674.436 1217.44 702.311 1185.64 729.958 1153.64 C 831.232 1039.23 930.627 923.168 1028.1 805.503 C 1068.49 756.291 1108.49 706.755 1148.08 656.901 L 1184.91 610.38 C 1190.66 603.053 1199.12 591.394 1205.13 585.127 z" fill="rgb(245,158,11)" transform="translate(0,0)"></path>
<path d="M 853.901 1361.14 L 1464.35 1004.16 L 1429.79 1117.04 C 1393.5 1131.66 1357.18 1147.94 1321.2 1163.35 L 1068.62 1272.14 L 928.42 1331.71 C 909.313 1339.75 874.122 1353.27 856.37 1362.39 L 853.901 1361.14 z" fill="rgb(245,158,11)" transform="translate(0,0)"></path>
<path d="M 961.713 648.886 C 994.155 643.251 1027.76 636.028 1060.28 631.691 L 965.16 752.29 C 913.933 817.933 862.583 884.454 810.679 949.505 C 755.851 1018.22 697.899 1085.27 644.234 1155.04 L 642.649 1153.64 C 690.418 1084.06 733.995 1012.19 779.163 940.963 L 915.078 723.585 C 930.427 698.758 946.739 673.82 961.713 648.886 z" fill="rgb(245,158,11)" transform="translate(0,0)"></path>
<path d="M 1475.49 719.764 C 1478.7 724.913 1481.91 743.731 1483.27 750.472 C 1494.89 807.99 1493.24 853.067 1487.73 910.668 C 1480.58 916.091 1465.63 924.825 1457.64 929.788 C 1434.9 943.865 1411.98 957.656 1388.89 971.159 L 1374.96 960.5 C 1365.32 953.215 1355.74 945.832 1346.24 938.352 C 1362.78 906.915 1382.96 876.041 1401.2 845.588 L 1475.49 719.764 z" fill="rgb(245,158,11)" transform="translate(0,0)"></path>
<path d="M 881.252 1425.57 C 976.351 1388.83 1071.2 1351.44 1165.8 1313.43 L 1273.83 1270.3 C 1291.27 1263.34 1312.19 1255.77 1328.89 1248.32 C 1316.36 1272.58 1301.06 1301.01 1287.08 1324.4 C 1189.03 1350.74 1089.05 1374.34 990.691 1399.96 C 967.71 1406 944.696 1411.91 921.649 1417.7 C 913.975 1419.64 890.82 1425.06 884.993 1427.36 L 881.252 1425.57 z" fill="rgb(245,158,11)" transform="translate(0,0)"></path>
<path d="M 725.018 800.04 C 745.473 789.619 769.342 780.334 790.626 769.962 C 732.396 874.368 666.307 976.171 607.292 1080.35 L 604.364 1079.9 C 644.11 986.411 684.328 893.123 725.018 800.04 z" fill="rgb(245,158,11)" transform="translate(0,0)"></path>
<path d="M 590.314 1312.74 L 593.21 1313.9 C 587.986 1319.85 574.067 1333.71 568.201 1338.61 C 574.295 1329.95 582.612 1320.12 590.314 1312.74 z" fill="rgb(155,84,36)" transform="translate(0,0)"></path>
<path d="M 607.292 1080.35 C 606.3 1082.48 596.633 1100.85 595.588 1101.39 C 594.999 1099.51 602.925 1082.07 604.364 1079.9 L 607.292 1080.35 z" fill="rgb(155,84,36)" transform="translate(0,0)"></path>
<path d="M 866.806 1431.38 C 870.933 1429.46 876.901 1426.52 881.252 1425.57 L 884.993 1427.36 C 878.538 1428.89 874.454 1430.1 867.859 1431.2 L 866.806 1431.38 z" fill="rgb(155,84,36)" transform="translate(0,0)"></path>
<path d="M 856.37 1362.39 C 854.023 1363.73 843.549 1368.94 841.599 1368.52 L 841.576 1368.4 C 842.759 1366.55 851.65 1361.95 853.901 1361.14 L 856.37 1362.39 z" fill="rgb(155,84,36)" transform="translate(0,0)"></path>
<path d="M 642.649 1153.64 L 644.234 1155.04 C 641.469 1159.96 636.953 1164.63 633.151 1168.8 C 635.951 1163.52 638.792 1158.27 642.649 1153.64 z" fill="rgb(155,84,36)" transform="translate(0,0)"></path>
<metadata><recraft-signature>{"signed_by": "recraft", "signature_b64": "vuQbd2zC9sfE5eATmAbJIy3FFPA466MJG4YgyrvCBxnwWPtouL+5jXWqcZiS+6GlJhIDdDI3ebBdabDj5bEDCQ==", "signing_algo": "Ed25519", "generation_timestamp": 1773297717, "identifier": "0314b294-c208-4d0a-a703-afc3d4b6de0e"}</recraft-signature></metadata></svg>