<svg xmlns="http://www.w3.org/2000/svg" height="1024" preserveAspectRatio="none" style="display: block;" version="1.1" viewBox="0 0 2048 2048" width="1024">
<path d="M 0 0 L 2048 0 L 2048 2048 L 0 2048 L 0 0 z" fill="rgb(38,36,36)" transform="translate(0,0)"></path>
<path d="M 692.725 677.678 C 700.114 683.558 712.203 696.445 719.028 703.37 L 763.002 747.724 L 927.217 912.75 C 1070.75 1059.27 1216.54 1203.57 1364.54 1345.58 C 1410.68 1389.99 1458.27 1437.29 1505.42 1480.57 C 1484.03 1498.57 1454.15 1518.87 1431.05 1536.75 C 1420.34 1545 1409.56 1553.15 1398.7 1561.21 C 1387 1551.73 1369.55 1533.88 1358.63 1523.02 C 1359.57 1506.71 1364.31 1476.29 1366.38 1458.52 C 1355.16 1446.16 1330.9 1424.77 1317.67 1412.38 C 1291.87 1388.21 1265.88 1362.79 1239.93 1339.05 C 1206.6 1350.67 1173.17 1361.98 1139.64 1372.98 C 1116.15 1352.81 1087.2 1322.58 1064.66 1300.44 L 947.126 1185.44 L 840.533 1080.39 C 800.78 1041.06 765.405 1009.7 736.133 961.65 C 684.525 876.514 668.907 774.344 692.725 677.678 z" fill="rgb(245,158,11)" transform="translate(0,0)"></path>
<path d="M 898.981 1188.84 C 918.327 1205.89 938.478 1226.48 957.793 1244.39 C 923.433 1276.8 889.906 1311.62 856.502 1345.18 L 761.644 1439.58 C 731.378 1470.25 697.133 1506.07 665.816 1535.19 L 605.5 1534.98 L 545.187 1534.98 C 553.97 1524.61 571.748 1508.29 581.81 1498.54 L 650.459 1431.72 C 732.858 1350.31 815.7 1269.35 898.981 1188.84 z" fill="rgb(245,158,11)" transform="translate(0,0)"></path>
<path d="M 1030.13 498.618 C 1033.28 503.719 1044.44 546.7 1047.27 556.148 C 1054.46 579.76 1061.47 603.427 1068.29 627.149 C 1070.9 636.127 1079.01 662.315 1079.49 670.135 C 1080.86 692.305 1080.02 719.434 1080.05 741.889 L 1080.54 900.49 C 1064.6 917.616 1041.99 939.259 1024.67 955.152 C 1021.26 954.112 980 913.133 974.753 908.039 C 975.595 852.055 974.108 795.245 974.908 739.177 C 975.148 722.405 973.697 687.439 975.645 672.122 C 976.933 661.994 988.754 626.472 992.324 615.167 L 1030.13 498.618 z" fill="rgb(245,158,11)" transform="translate(0,0)"></path>
<path d="M 1346.16 750.025 L 1454.09 750.031 C 1442.98 762.224 1427.9 776.381 1416.11 788.356 C 1390.3 814.792 1364.32 841.061 1338.17 867.162 L 1160.18 1045.18 L 1134.78 1069.88 C 1115.88 1052.11 1094.8 1033.08 1077.07 1014.51 C 1125.99 965.176 1176.47 916.927 1225.76 867.852 L 1300.89 793.875 C 1314.98 780.039 1331.5 762.886 1346.16 750.025 z" fill="rgb(245,158,11)" transform="translate(0,0)"></path>
<path d="M 1402.92 926.461 L 1502.3 926.892 C 1466.47 963.942 1428.34 1001.43 1391.84 1037.9 L 1269.67 1160.47 L 1248.64 1181.05 C 1228.81 1162.87 1209.31 1144.32 1190.16 1125.42 C 1258.11 1061.35 1324.49 992.237 1391.47 926.869 L 1402.92 926.461 z" fill="rgb(245,158,11)" transform="translate(0,0)"></path>
<path d="M 974.187 1262.47 C 984.443 1269.2 1007.76 1293.85 1017.33 1303.53 C 1038.31 1324.85 1059.64 1345.82 1081.29 1366.46 L 1081.3 1537.02 L 974.5 1536.97 C 973.883 1445.47 973.778 1353.97 974.187 1262.47 z" fill="rgb(245,158,11)" transform="translate(0,0)"></path>
<path d="M 787.296 1079.02 C 805.838 1095.12 824.919 1113.79 842.691 1130.94 C 832.03 1144.2 809.137 1166.14 796.401 1178.95 C 769.167 1206.7 741.509 1234.03 713.435 1260.93 L 656.432 1260.76 C 637.927 1260.85 619.422 1260.82 600.917 1260.68 C 663.248 1201.42 724.773 1138.68 787.296 1079.02 z" fill="rgb(245,158,11)" transform="translate(0,0)"></path>
<metadata><recraft-signature>{"signed_by": "recraft", "signature_b64": "JqN5AALUQFCAqDml+0fHewPlyZ5AoxGabu993EDVwTn87Y4uv5bQ7GLLCcpvXRSdcUzrTlM6RYm10M2AcBirBA==", "signing_algo": "Ed25519", "generation_timestamp": 1773297312, "identifier": "91dd9ea2-c745-4555-a921-f661f5afd486"}</recraft-signature></metadata></svg>