<svg xmlns="http://www.w3.org/2000/svg" height="1024" preserveAspectRatio="none" style="display: block;" version="1.1" viewBox="0 0 2048 2048" width="1024">
<path d="M 0 0 L 2048 0 L 2048 2048 L 0 2048 L 0 0 z" fill="rgb(33,27,26)" transform="translate(0,0)"></path>
<path d="M 686.499 1203.45 C 670.433 1172.62 658.216 1139.92 650.124 1106.11 C 627.771 1011.76 643.395 912.407 693.628 829.475 C 747.776 739.127 835.765 674.147 938.044 648.973 C 1033.51 625.962 1135.78 646.725 1218.96 697.489 C 1122.49 774.479 1026.63 852.214 931.365 930.688 L 934.945 932.066 L 1279.52 743.103 L 1375.63 690.786 C 1399.16 677.733 1428.07 660.956 1451.83 648.996 C 1437.7 662.74 1420.84 676.694 1405.97 689.908 L 1318.21 768.147 C 1235.62 843.066 1152.18 917.049 1067.91 990.081 L 1080.1 993.486 C 1096.57 985.693 1114.22 975.488 1130.4 966.629 C 1155.74 952.674 1181.18 938.917 1206.73 925.361 L 1302.54 874.817 C 1322.07 864.694 1343.26 854.706 1362.22 843.91 C 1407.86 928.567 1417.06 1041.27 1389.06 1133 C 1359 1231.5 1285.16 1317.76 1194.5 1366.4 C 1112.33 1410.48 1011.23 1418.23 922.127 1391.97 C 892.896 1383.36 852.476 1366.64 827.801 1349.6 L 1114.26 1118.15 L 1112.49 1116.66 C 1099.4 1124.73 1084.13 1132.63 1070.57 1140.19 L 987.81 1186.36 C 903.028 1233.87 817.954 1280.85 732.592 1327.31 L 597.952 1398.78 C 612.129 1383.65 641.229 1358.94 657.292 1344.48 L 764.961 1247.19 L 897.389 1126.7 C 926.248 1100.24 957.549 1070.49 987.341 1045.52 L 984.297 1044.34 C 975.495 1048.03 953.685 1060.41 944.329 1065.41 L 866.462 1107.04 L 760.058 1164.25 C 735.96 1177.01 709.938 1189.97 686.499 1203.45 z" fill="rgb(248,86,1)" transform="translate(0,0)"></path>
<path d="M 928.15 932.843 L 929.421 935.321 C 926.934 937.015 919.338 942.083 916.532 943.518 C 904.703 949.567 927.624 933.22 928.15 932.843 z" fill="rgb(143,46,8)" transform="translate(0,0)"></path>
<path d="M 1112.49 1116.66 C 1117.5 1113.42 1122.68 1110.4 1127.95 1107.6 C 1123.68 1111.11 1118.96 1115.27 1114.26 1118.15 L 1112.49 1116.66 z" fill="rgb(143,46,8)" transform="translate(0,0)"></path>
<path d="M 984.297 1044.34 C 985.335 1043.72 991.022 1039.96 992.179 1040.65 C 992.367 1042.01 988.273 1044.81 987.341 1045.52 L 984.297 1044.34 z" fill="rgb(80,25,8)" transform="translate(0,0)"></path>
<path d="M 931.365 930.688 L 934.945 932.066 C 933.084 933.117 931.242 934.202 929.421 935.321 L 928.15 932.843 C 929.406 931.956 930.1 931.489 931.365 930.688 z" fill="rgb(80,25,8)" transform="translate(0,0)"></path>
<metadata><recraft-signature>{"signed_by": "recraft", "signature_b64": "XxTIkOUwzRmbq8Uio3BTHGnzSidfTi9+ZRkrZCcNd4xnFrQC9ELs0nlAHbDf6H/117bdYxf2KRRqVds4bY3DCw==", "signing_algo": "Ed25519", "generation_timestamp": 1773297697, "identifier": "6c2aed59-0ba7-4da8-b7ab-7f44fbadc10c"}</recraft-signature></metadata></svg>