<svg xmlns="http://www.w3.org/2000/svg" height="1024" preserveAspectRatio="none" style="display: block;" version="1.1" viewBox="0 0 2048 2048" width="1024">
<path d="M 0 0 L 2048 0 L 2048 2048 L 0 2048 L 0 0 z" fill="rgb(37,37,39)" transform="translate(0,0)"></path>
<path d="M 1323.77 553.951 C 1411.2 565.73 1473.67 607.186 1499.22 694.142 C 1481.53 711.562 1459.55 736.06 1441.1 753.124 C 1439.06 754.832 1432.62 753.957 1430.92 751.989 C 1412.96 731.203 1402.64 718.569 1374.91 710.219 C 1351 702.829 1325.11 705.545 1303.25 717.735 C 1237.43 754.18 1231.18 849.559 1286.4 898.654 C 1313.26 920.569 1329.45 916.213 1298.08 946.629 C 1145.71 1094.35 988.648 1210.68 785.216 1280.01 C 713.124 1305.93 621.624 1323.25 545.909 1331.53 L 1095.95 781.856 L 1237.48 640.189 L 1288.54 588.646 C 1299.14 577.895 1312.48 563.548 1323.77 553.951 z" fill="rgb(245,158,11)" transform="translate(0,0)"></path>
<path d="M 1019.55 569.418 C 1024.11 568.764 1039.41 568.698 1044.75 568.636 C 1089.75 568.361 1134.64 572.971 1178.65 582.386 C 1143.36 620.776 1102.35 657.056 1066.38 695.113 C 1052.78 709.499 1034.45 728.931 1019.24 740.516 C 1013.53 744.871 980.824 750.62 971.361 753.206 C 926.199 765.447 884.181 787.214 848.13 817.043 C 785.354 868.871 745.694 943.479 737.846 1024.51 C 727.771 1035.67 713.509 1048.42 702.385 1059.09 C 685.067 1075.74 667.899 1092.54 650.885 1109.5 C 626.781 1133.83 602.465 1157.95 577.942 1181.85 C 498.943 881.133 712.341 593.484 1019.55 569.418 z" fill="rgb(245,158,11)" transform="translate(0,0)"></path>
<path d="M 1479.94 858.598 L 1481.27 859.336 C 1496.44 886.304 1504.2 967.06 1504.5 999.438 C 1505.76 1135.27 1456.39 1249.39 1360.78 1345.42 C 1276.94 1429.62 1175.65 1474.39 1057.77 1487.01 C 1019.27 1491.14 979.922 1490.42 941.25 1490.54 C 931.436 1490.52 921.623 1490.4 911.813 1490.17 L 1051.71 1355.71 C 1073.78 1334.56 1096.29 1312.6 1118.86 1291.98 C 1131.64 1280.78 1149.15 1277.75 1164.21 1271 C 1251.92 1231.72 1309.67 1140.1 1329.39 1048.36 C 1332.52 1033.82 1331.21 1015.69 1337.43 1002.24 C 1340.46 995.697 1352.36 986.476 1357.28 980.836 C 1371.87 966.479 1386.55 952.396 1401.05 938.053 L 1479.94 858.598 z" fill="rgb(245,158,11)" transform="translate(0,0)"></path>
<path d="M 1186.11 1118.93 L 1187.04 1121.14 C 1181.25 1126.51 1175.53 1131.97 1169.89 1137.51 C 1097.57 1204.43 1026.71 1272.9 957.349 1342.88 L 862.91 1437.83 C 845.019 1455.74 823.49 1478.39 804.598 1494.44 C 769.699 1492.79 738.451 1488.43 706.148 1473.91 C 660.525 1453.4 625.488 1417.13 607.874 1370.16 C 640.158 1364.35 672.449 1360.72 705.208 1354.38 C 884.161 1319.72 1024.78 1242.57 1168.83 1134.32 C 1169.27 1133.68 1184.49 1120.37 1186.11 1118.93 z" fill="rgb(245,158,11)" transform="translate(0,0)"></path>
<path d="M 1186.11 1118.93 C 1186.66 1118.36 1190.09 1114.35 1191.29 1115.41 C 1191.82 1116.88 1188 1120.26 1187.04 1121.14 L 1186.11 1118.93 z" fill="rgb(101,71,46)" transform="translate(0,0)"></path>
<metadata><recraft-signature>{"signed_by": "recraft", "signature_b64": "kqSGSCHW/h22eieJmJTxHgfrozsu0RTfm7p4qnvQWA30UAtw19RQUM1ml3xzFXgf3+vTQxMFOYmH8R0+KJliAw==", "signing_algo": "Ed25519", "generation_timestamp": 1773297312, "identifier": "8570e307-2e86-45a8-8867-4f50cb43aeca"}</recraft-signature></metadata></svg>