<svg xmlns="http://www.w3.org/2000/svg" height="1024" preserveAspectRatio="none" style="display: block;" version="1.1" viewBox="0 0 2048 2048" width="1024">
<path d="M 0 0 L 2048 0 L 2048 2048 L 0 2048 L 0 0 z" fill="rgb(39,36,36)" transform="translate(0,0)"></path>
<path d="M 1605.67 403.446 C 1608.94 403.147 1608.84 403.096 1612.04 403.775 C 1615.09 408.001 1616.38 421.466 1617.08 427.276 C 1622.06 468.675 1622.91 513.212 1616.14 554.617 C 1600.65 649.207 1565.05 734.957 1514.27 815.826 C 1481.7 867.691 1467.08 877.268 1415.65 908.111 L 1346.86 949.327 C 1318.85 966.555 1291.16 984.318 1263.83 1002.61 C 1234.31 1022.02 1204.98 1041.11 1176.5 1062.05 C 1180.02 1071.88 1182.2 1080.61 1184.8 1090.67 C 1176.01 1096.05 1164.34 1104.76 1155.72 1110.84 C 1137.72 1123.5 1119.79 1136.27 1101.94 1149.13 C 1045.86 1189.28 990.362 1230.24 935.46 1271.98 C 805.291 1371.19 674.086 1469.04 541.867 1565.5 L 460.219 1625.3 C 452.824 1630.76 429.54 1649.73 422.708 1652.2 C 420.506 1650.91 420.375 1651.09 419.16 1648.91 C 421.132 1644.09 442.996 1611.07 447.252 1604.45 C 472.092 1565.01 497.579 1525.97 523.701 1487.36 C 666.461 1276.75 820.712 1074.68 968.202 867.66 C 973.906 875.17 978.243 881.332 981.661 890.166 C 997.382 867.699 1014.32 845.53 1029.35 822.684 C 1059.07 777.509 1088.62 731.019 1116.84 684.911 C 1131.7 660.405 1146.4 635.808 1160.96 611.121 C 1164.7 604.686 1180.13 576.677 1183.43 573.4 C 1197.51 560.679 1217.78 553.664 1233.19 542.65 C 1340.24 466.139 1472.67 411.039 1605.67 403.446 z" fill="rgb(218,90,9)" transform="translate(0,0)"></path>
<path d="M 1523.34 652.629 L 1524.15 658.503 C 1516.39 681.096 1506.23 703.733 1496.64 725.629 C 1486.75 748.518 1476.54 771.268 1466.01 793.871 C 1458.36 809.894 1448.99 827.751 1441.94 843.774 C 1452.26 846.56 1464.82 850.264 1475.06 852.463 C 1370.66 875.822 1252.86 962.453 1168.17 1026.29 C 1129.41 1055.45 1090.8 1084.82 1052.34 1114.39 C 914.322 1221.25 777.671 1329.87 642.425 1440.22 L 641.028 1438.55 C 654.688 1428.7 674.226 1412.09 687.663 1401.12 C 724.437 1371.03 760.617 1340.23 796.184 1308.73 L 998.784 1128.53 C 1108.15 1031.06 1222.09 930.367 1349.48 857.237 C 1371.05 844.857 1395.7 834.972 1418.52 824.979 C 1456.48 768.175 1491.62 713.142 1523.34 652.629 z" fill="rgb(39,36,36)" transform="translate(0,0)"></path>
<path d="M 1214.57 612.09 C 1280.91 571.642 1347.73 532.244 1419.41 501.805 L 1420.93 504.142 C 1359.51 540.398 1281.47 587.845 1225.55 632.686 C 1209.37 692.422 1185.39 725.945 1150.17 775.019 C 1063.38 895.936 959.275 1002.52 863.093 1115.73 C 837.338 1146 811.423 1174.35 786.474 1205.54 L 783.393 1204.74 C 797.066 1185.27 815.298 1162.71 829.91 1143.7 L 900.203 1051.69 C 951.372 985.306 1001.78 918.338 1051.42 850.8 C 1071.74 823.775 1091.86 796.599 1111.78 769.276 C 1131.73 741.693 1149.86 717.332 1164.75 686.537 C 1184.21 646.314 1190.47 623.795 1190.6 579.767 L 1214.57 612.09 z" fill="rgb(39,36,36)" transform="translate(0,0)"></path>
<path d="M 783.393 1204.74 L 786.474 1205.54 C 765.339 1232.09 739.907 1262.52 720.404 1289.77 C 720.04 1290.54 720.123 1290.65 719.519 1290.89 C 712.65 1298.49 712.427 1303.92 701.966 1311.52 C 703.405 1308.23 716.441 1292.31 719.408 1288.36 C 740.386 1260.22 761.717 1232.34 783.393 1204.74 z" fill="rgb(104,43,15)" transform="translate(0,0)"></path>
<path d="M 641.028 1438.55 L 642.425 1440.22 C 639.935 1442.64 607.249 1468.92 606.05 1469.05 L 605.817 1468.71 C 607.165 1465.81 633.253 1445.38 637.014 1442.06 C 638.334 1440.87 639.672 1439.7 641.028 1438.55 z" fill="rgb(104,43,15)" transform="translate(0,0)"></path>
<path d="M 1440.76 492.518 L 1439.38 495.225 C 1433.02 497.443 1426.98 501.44 1420.93 504.142 L 1419.41 501.805 C 1426.67 498.28 1433.55 495.73 1440.76 492.518 z" fill="rgb(65,25,11)" transform="translate(0,0)"></path>
<path d="M 1523.34 652.629 C 1523.59 651.125 1529.04 637.883 1529.53 637.568 C 1530.81 639.857 1525.1 655.147 1524.15 658.503 L 1523.34 652.629 z" fill="rgb(104,43,15)" transform="translate(0,0)"></path>
<path d="M 1440.76 492.518 C 1442.07 491.828 1445.88 489.463 1447.22 490.547 C 1447.2 492.193 1442.3 494.068 1441.17 494.512 L 1439.38 495.225 L 1440.76 492.518 z" fill="rgb(144,72,28)" transform="translate(0,0)"></path>
<path d="M 597.475 1475.14 C 598.139 1474.93 597.923 1474.94 598.225 1474.98 C 597.98 1475.3 597.735 1475.63 597.49 1475.95 C 597.22 1476.07 596.949 1476.2 596.679 1476.32 L 596.617 1476.26 C 596.903 1475.89 597.189 1475.52 597.475 1475.14 z" fill="rgb(144,72,28)" transform="translate(0,0)"></path>
<path d="M 602.474 1471.14 C 603.138 1470.93 602.923 1470.94 603.225 1470.98 C 602.98 1471.3 602.735 1471.63 602.49 1471.95 C 602.22 1472.08 601.95 1472.2 601.68 1472.32 L 601.618 1472.26 C 601.903 1471.89 602.189 1471.52 602.474 1471.14 z" fill="rgb(144,72,28)" transform="translate(0,0)"></path>
<path d="M 1195.93 444.181 L 1197.57 446.381 C 1168.12 484.665 1139.77 525.455 1110.89 564.317 C 1039.42 659.685 969.173 755.958 900.159 853.114 C 839.498 940.885 778.22 1028.23 716.33 1115.13 C 668.498 1180.97 619.845 1246.21 570.385 1310.84 C 544.383 1343.73 518.665 1376.85 493.233 1410.19 C 477.712 1430.3 461.008 1450.95 446.679 1471.87 L 444.699 1470.71 C 455.191 1455.67 467.026 1435.97 476.943 1420.25 L 545.157 1310.61 C 607.106 1210.91 669.857 1111.34 738.576 1016.17 C 761.776 984.04 786.458 953.901 811.926 923.568 L 810.586 920.139 C 746.859 974.351 682.564 1027.89 617.711 1080.75 C 568.274 1120.61 519.755 1161.59 472.194 1203.67 C 468.71 1204.5 470.563 1205.62 466.593 1206.43 C 476.33 1195.87 490.438 1182.94 501.039 1172.43 L 569.734 1103.87 L 797.923 873.414 C 934.069 733.6 1066.78 590.48 1195.93 444.181 z" fill="rgb(218,90,9)" transform="translate(0,0)"></path>
<path d="M 827.537 906.29 C 823.294 911.3 816.591 918.563 811.926 923.568 L 810.586 920.139 C 815.416 915.444 822.16 910.344 827.537 906.29 z" fill="rgb(65,25,11)" transform="translate(0,0)"></path>
<path d="M 1611.52 848.611 L 1613.01 850.925 C 1592.36 869.45 1572.28 889.097 1551.95 908.04 C 1418.85 1032.04 1284.1 1154.2 1155.63 1283.07 C 1133.96 1304.81 1112.21 1326.59 1090.31 1348.1 C 1049.18 1389.04 1007.73 1429.65 965.952 1469.92 C 935.512 1498.92 896.082 1533.94 868.543 1564.47 L 866.8 1562.7 C 932.718 1488.81 996.78 1413.3 1058.93 1336.22 C 1081.58 1308.02 1112.52 1271.23 1132.82 1242.43 C 1110.15 1258.05 1087.06 1276.71 1064.33 1293.21 C 1004.39 1336.78 943.952 1379.65 883.018 1421.82 C 825.057 1461.27 766.68 1500.12 707.898 1538.34 C 675.836 1559.33 639.093 1582.14 608.331 1604.2 L 606.548 1602.8 C 639.799 1578.3 673.423 1550.84 705.954 1525.25 L 907.323 1365.94 C 934.835 1344.18 963.107 1320.45 991.117 1299.64 C 1033.98 1267.81 1078.65 1238.44 1122.24 1207.31 L 1412.59 995.719 C 1477.24 948.4 1548.95 898.022 1611.52 848.611 z" fill="rgb(218,90,9)" transform="translate(0,0)"></path>
<path d="M 853.65 1579.5 L 852.428 1580.65 C 851.865 1581.18 850.5 1582.43 849.685 1582.55 L 849.666 1582.51 C 852.916 1577.46 862.488 1566.83 866.8 1562.7 L 868.543 1564.47 C 865.946 1567.97 858.81 1574.39 855.349 1577.8 C 854.875 1579.01 854.9 1578.86 853.65 1579.5 z" fill="rgb(144,72,28)" transform="translate(0,0)"></path>
<path d="M 853.65 1579.5 C 854.184 1578.27 854.073 1578.4 855.349 1577.8 C 854.875 1579.01 854.9 1578.86 853.65 1579.5 z" fill="rgb(65,25,11)" transform="translate(0,0)"></path>
<path d="M 466.593 1206.43 C 470.563 1205.62 468.71 1204.5 472.194 1203.67 C 470.205 1207.21 454.678 1219.56 450.723 1222.45 C 454.716 1217.75 461.43 1209.58 466.593 1206.43 z" fill="rgb(104,43,15)" transform="translate(0,0)"></path>
<path d="M 1195.93 444.181 C 1196.73 442.562 1206.79 430.422 1208.17 429.857 L 1208.37 429.906 C 1208.41 430.028 1208.45 430.151 1208.49 430.273 L 1207.53 430.69 L 1208.11 431.37 C 1206.04 435.498 1200.57 442.848 1197.57 446.381 L 1195.93 444.181 z" fill="rgb(144,72,28)" transform="translate(0,0)"></path>
<path d="M 446.679 1471.87 C 446.392 1472.55 435.138 1489.22 435.107 1489.25 C 433.247 1489.1 436.361 1484.51 436.688 1483.84 C 438.61 1479.95 442.076 1473.91 444.699 1470.71 L 446.679 1471.87 z" fill="rgb(104,43,15)" transform="translate(0,0)"></path>
<path d="M 1629.18 835.83 C 1624.08 840.937 1618.67 846.439 1613.01 850.925 L 1611.52 848.611 C 1617.6 843.065 1622.34 840.047 1629.18 835.83 z" fill="rgb(144,72,28)" transform="translate(0,0)"></path>
<path d="M 606.548 1602.8 L 608.331 1604.2 C 606.339 1606.22 605.337 1606.64 603.018 1608.3 L 599.877 1610.56 C 598.956 1611.24 595.176 1614.3 593.856 1613.3 C 593.678 1611.58 604.683 1603.88 606.548 1602.8 z" fill="rgb(104,43,15)" transform="translate(0,0)"></path>
<metadata><recraft-signature>{"signed_by": "recraft", "signature_b64": "OF2F1iWGhlR6rEN1vL7JWN9vTrssJaTeyDDaK+aOb3ndJVQxg5tDtORJo1VRSAvHxQ3qQ+HGhXllkdWFJGc3Dw==", "signing_algo": "Ed25519", "generation_timestamp": 1773297717, "identifier": "d8ca31ff-2c4d-4a6c-a977-9593fa92069d"}</recraft-signature></metadata></svg>