<svg xmlns="http://www.w3.org/2000/svg" height="1024" preserveAspectRatio="none" style="display: block;" version="1.1" viewBox="0 0 2048 2048" width="1024">
<path d="M 0 0 L 2048 0 L 2048 2048 L 0 2048 L 0 0 z" fill="rgb(42,33,32)" transform="translate(0,0)"></path>
<path d="M 624.992 637.869 C 636.873 641.106 659.445 652.078 672.22 657.462 C 699.085 668.737 725.888 680.161 752.626 691.732 C 760.051 694.926 788.749 706.654 793.401 710.68 C 808.21 723.495 825.36 742.462 839.306 756.71 L 921.228 839.2 L 1168.34 1089.78 C 1162 1095.74 1155.72 1101.76 1149.5 1107.85 C 1149.37 1128.57 1149.94 1149.18 1149.51 1169.95 L 1148.79 1170.3 L 1147.07 1166.94 C 1145.54 1163.43 1143.91 1159.97 1142.2 1156.54 C 1116.53 1104.79 1067.57 1139.07 1032.42 1158 C 967.677 1088.12 894.963 1015.38 827.789 947.17 L 771.542 890.296 C 765.014 883.696 744.233 863.377 740.104 856.734 C 727.12 835.839 714.25 809.474 702.638 787.524 C 676.214 737.922 650.33 688.035 624.992 637.869 z" fill="rgb(245,158,11)" transform="translate(0,0)"></path>
<path d="M 1416.87 677.877 C 1419.07 680.956 1417.68 780.749 1417.62 793.011 C 1409.87 802.145 1397.44 814.04 1388.87 822.675 C 1368.88 842.749 1348.77 862.692 1328.52 882.503 L 1176.54 1034.33 C 1167.3 1026.42 1157.96 1016.54 1149.36 1007.82 C 1138.91 997.165 1128.6 986.383 1118.42 975.477 C 1144.05 948.347 1173.55 920.886 1199.98 894.278 L 1416.87 677.877 z" fill="rgb(245,158,11)" transform="translate(0,0)"></path>
<path d="M 1264.88 637.014 C 1302.02 636.256 1341.15 636.872 1378.44 636.978 C 1352.18 665.694 1314.87 700.665 1286.64 728.777 L 1107.31 907.417 C 1097.87 917.155 1088.53 926.925 1078.68 936.259 C 1060.95 919.887 1038.75 895.772 1021.48 877.983 C 1072.34 828.534 1122.72 778.593 1172.61 728.167 C 1198.55 702.06 1237.6 660.338 1264.88 637.014 z" fill="rgb(245,158,11)" transform="translate(0,0)"></path>
<path d="M 946.889 1131.81 C 951.62 1135.45 962.574 1146.8 966.995 1151.26 L 1003.64 1188.37 C 985.64 1204.68 962.846 1228.97 945.083 1246.74 L 845.928 1345.55 C 826.168 1365.43 802.603 1390.73 781.665 1408.35 L 725.094 1408.28 C 706.395 1408.56 687.693 1408.55 668.995 1408.26 C 679.755 1395.67 699.58 1376.87 711.655 1364.86 L 787.63 1289.14 C 819.999 1256.64 852.572 1224.34 885.346 1192.24 C 903.591 1174.07 927.91 1148.31 946.889 1131.81 z" fill="rgb(245,158,11)" transform="translate(0,0)"></path>
<path d="M 851.367 1033.94 C 869.077 1049.54 890.05 1072.69 908.234 1089.93 C 888.012 1112.18 857.707 1140.69 835.877 1162.6 L 663.99 1333.66 C 654.013 1343.65 644.078 1353.83 633.57 1363.24 C 631.695 1331.73 633.183 1283.04 633.17 1250.29 L 851.367 1033.94 z" fill="rgb(245,158,11)" transform="translate(0,0)"></path>
<path d="M 1095.38 1182.74 C 1098.51 1183.44 1141.42 1233.88 1146.78 1239.71 C 1131.46 1257.8 1098.42 1288.59 1080.51 1306.31 C 1063.01 1323.62 1031.71 1356.72 1013.68 1371.77 L 954.75 1371.48 C 937.03 1371.56 919.31 1371.43 901.593 1371.07 C 921.896 1348.48 949.379 1322.63 971.33 1300.36 C 991.992 1279.2 1012.83 1258.21 1033.85 1237.4 C 1054.44 1216.85 1070.06 1196.98 1095.38 1182.74 z" fill="rgb(245,158,11)" transform="translate(0,0)"></path>
<path d="M 1034.95 670.026 L 1149.12 670.077 C 1134.93 685.408 1118.29 701.402 1103.5 716.364 L 1008.99 811.33 C 999.969 820.656 990.878 829.915 981.719 839.107 C 964.334 819.221 941.326 799.457 924.859 779.487 C 946.856 758.845 968.267 737.588 989.067 715.742 C 1001.91 702.459 1021.12 681.412 1034.95 670.026 z" fill="rgb(245,158,11)" transform="translate(0,0)"></path>
<path d="M 1379.91 911.807 C 1379.96 911.864 1380.03 911.913 1380.08 911.978 C 1382.51 915.259 1380.95 1014.55 1380.9 1027.08 C 1372.31 1038.64 1349.96 1059.62 1339.03 1070.32 L 1274.57 1133.72 C 1265.61 1125.08 1256.66 1116.01 1247.81 1107.22 C 1237.51 1096.76 1227.39 1086.14 1217.44 1075.34 C 1271.29 1020.5 1326.29 966.912 1379.91 911.807 z" fill="rgb(245,158,11)" transform="translate(0,0)"></path>
<path d="M 752.513 931.738 C 756.508 934.568 769.144 948.165 773.243 952.473 C 785.087 964.919 799.232 977.843 810.327 990.711 C 772.747 1026.85 734.113 1067.21 696.5 1104.26 C 687.159 1113.87 676.805 1124.95 666.879 1133.73 C 665.929 1098.37 666.2 1053.17 667.064 1017.74 C 672.515 1008.88 697.197 985.833 705.783 977.529 C 720.5 963.296 737.429 944.963 752.513 931.738 z" fill="rgb(245,158,11)" transform="translate(0,0)"></path>
<path d="M 1184.07 1114.23 C 1193.31 1118.36 1243.96 1166.41 1255.1 1176.61 C 1281.72 1200.62 1308.18 1224.8 1334.47 1249.16 C 1318.1 1249.18 1301.72 1249.16 1285.35 1249.25 C 1280.98 1249.28 1269.96 1248.43 1267 1251.04 C 1267.12 1274.42 1267.07 1297.8 1266.84 1321.18 C 1253.6 1308.81 1239.1 1292.91 1226.49 1279.61 C 1212.83 1265.2 1197.42 1249.6 1184.81 1234.59 C 1184.26 1194.47 1184.01 1154.35 1184.07 1114.23 z" fill="rgb(245,158,11)" transform="translate(0,0)"></path>
<path d="M 1309.9 1280.5 L 1366.73 1279.95 C 1386.07 1299.36 1404.43 1319.44 1424.15 1338.98 C 1409.03 1345.74 1381.78 1354.79 1368.98 1361.83 C 1362.63 1376.81 1356.83 1393.07 1351.09 1408.38 C 1334.43 1390.53 1315.92 1374.56 1299.97 1357.13 C 1300.34 1331.8 1300.21 1306.09 1300.3 1280.73 L 1309.9 1280.5 z" fill="rgb(245,158,11)" transform="translate(0,0)"></path>
<metadata><recraft-signature>{"signed_by": "recraft", "signature_b64": "AtfuPoMFaYXp6YvV+gSiHj15msOdgu/EnUefB1XYhNBuyx1Ct4zePA2jcrw3xA7D99kfSXqhEhprjhYZlKXfBg==", "signing_algo": "Ed25519", "generation_timestamp": 1773297312, "identifier": "2e8571ee-4d05-4f08-a0bc-7e516c1a8626"}</recraft-signature></metadata></svg>