<svg xmlns="http://www.w3.org/2000/svg" height="1024" preserveAspectRatio="none" style="display: block;" version="1.1" viewBox="0 0 2048 2048" width="1024">
<path d="M 0 0 L 2048 0 L 2048 2048 L 0 2048 L 0 0 z" fill="rgb(9,26,77)" transform="translate(0,0)"></path>
<path d="M 1714.83 276.746 L 1716.14 279.294 C 1704.41 293.435 1693.56 308.351 1682.03 322.63 L 1576.4 453.73 L 1270.81 829.87 C 1231.71 878.152 1192.29 926.169 1152.54 973.917 C 1136.98 992.745 1119.05 1016.27 1103.34 1034.07 C 1187.42 981.725 1270.82 934.167 1351.5 875.407 L 1352.45 877.299 L 673.373 1476.46 L 462.549 1661.62 L 389.067 1724.82 C 372.481 1738.95 347.811 1759.56 332.557 1774.69 L 330.717 1772.56 C 367.408 1728.16 401.982 1682.89 437.895 1638.07 L 624.861 1406.4 C 682.913 1332.85 741.53 1259.74 800.705 1187.08 C 846.333 1131.94 893.107 1077.76 940.995 1024.57 L 939.797 1021.04 C 896.744 1045.74 851.951 1071.11 810.324 1097.93 C 775.925 1120.09 740.729 1145.5 707.797 1169.68 L 703.875 1169.23 C 719.355 1154.87 735.793 1137.77 751.29 1122.78 C 789.501 1086.02 828.142 1049.71 867.205 1013.85 C 924.614 962.855 982.569 912.475 1041.06 862.722 L 1330.47 611.788 L 1600.5 376.811 C 1638.48 343.453 1677.89 311.553 1714.83 276.746 z" fill="rgb(245,158,11)" transform="translate(0,0)"></path>
<path d="M 939.797 1021.04 C 941.921 1018.74 945.84 1016.98 948.568 1015.36 C 945.879 1018.86 944.061 1021.37 940.995 1024.57 L 939.797 1021.04 z" fill="rgb(64,41,53)" transform="translate(0,0)"></path>
<path d="M 1675.6 743.607 C 1737.61 876.541 1751.23 1022.58 1715.83 1164.67 C 1680.68 1305.7 1595.19 1410.23 1463.38 1471.63 C 1354.09 1522.54 1236.59 1531.6 1122.38 1489.47 C 1048.73 1462.69 970.518 1411.41 928.002 1344.3 C 958.299 1318.6 988.91 1293.27 1019.83 1268.32 C 1033.16 1257.45 1048.07 1244.49 1061.57 1234.28 C 1082.08 1251.87 1102.13 1268.59 1125.11 1282.48 C 1203.94 1330.11 1309.35 1327.23 1393.95 1294.66 C 1583.11 1221.83 1706.11 1017.57 1686.75 816.328 C 1684.66 794.544 1681.38 765.218 1673.64 745.197 L 1675.6 743.607 z" fill="rgb(245,158,11)" transform="translate(0,0)"></path>
<path d="M 368.193 1293.9 C 264.084 1052.78 300.49 733.246 547.013 596.912 C 653.393 538.08 773.38 513.873 892.287 547.08 C 979.067 571.314 1074.23 627.786 1119.38 707.893 C 1082.45 740.74 1028.99 782.357 989.274 811.956 C 977.566 801.589 965.302 791.866 952.538 782.832 C 888.62 737.485 817.322 716.194 738.988 729.876 C 622.516 750.596 518.935 816.461 450.768 913.148 C 372.087 1024.82 347.085 1158.22 370.249 1291.97 L 368.193 1293.9 z" fill="rgb(245,158,11)" transform="translate(0,0)"></path>
<path d="M 1537.49 532.682 C 1552.02 547.747 1567.55 569.573 1578.69 587.443 C 1640.8 689.294 1659.99 811.619 1632.06 927.599 C 1588.79 1112.43 1414.31 1293.56 1210.75 1245.31 C 1174.43 1235.62 1144.27 1220.86 1117.38 1194.14 C 1180.82 1138.42 1206.52 1124.78 1283.39 1093.09 C 1437.02 1029.75 1488.58 818.539 1427.79 673.187 C 1464.57 629.169 1500.91 577.689 1537.49 532.682 z" fill="rgb(245,158,11)" transform="translate(0,0)"></path>
<path d="M 770.557 793.432 C 829.253 790.64 888.458 810.943 931.611 851.055 C 905.449 874.028 867.283 903.057 837.912 922.125 C 821.387 932.854 787.862 940.85 768.063 950.265 C 604.978 1027.81 561.702 1221.43 618.489 1381.11 C 593.371 1411.61 569.452 1442.35 544.823 1473.21 C 533.291 1487.67 521.907 1502.25 510.672 1516.94 C 498.242 1505.45 487.266 1491.23 477.562 1477.71 C 357.188 1309.99 388.872 1053.37 531.771 908.373 C 597.397 841.783 676.826 799.091 770.557 793.432 z" fill="rgb(245,158,11)" transform="translate(0,0)"></path>
<path d="M 879.384 1384.56 C 1063.87 1621.36 1385.43 1629.93 1602.41 1431.48 C 1602.15 1433.99 1601.95 1434.12 1600.96 1436.51 C 1593.63 1444.38 1586.68 1455.43 1579.63 1463.97 C 1450.49 1620.43 1251.17 1752.19 1038.64 1707.4 C 933.312 1684.96 838.246 1628.6 768.006 1546.97 C 757.053 1534.19 745.407 1520.08 736.221 1506.02 C 781.621 1464.59 833.901 1426.77 879.384 1384.56 z" fill="rgb(245,158,11)" transform="translate(0,0)"></path>
<path d="M 449.111 612.802 C 465.775 587.343 488.377 562.413 509.212 540.131 C 600.002 443.03 709.664 369.114 841.374 341.685 C 961.635 316.64 1075.4 349.094 1177.98 413.889 C 1234.45 449.563 1275.45 492.644 1316.59 544.391 L 1169.29 666.259 C 1093.23 564.777 980.047 497.575 854.539 479.37 C 764.112 465.692 660.26 486.738 578.081 525.32 C 539.5 543.433 481.884 582.87 452.505 614.011 L 449.111 612.802 z" fill="rgb(245,158,11)" transform="translate(0,0)"></path>
<path d="M 692.47 1543.38 C 706.129 1558.68 717.237 1573.52 732.155 1588.48 C 800.661 1657.17 878.151 1707.02 972.764 1730.35 C 970.026 1731.77 969.73 1731.7 966.668 1732.4 C 844.049 1719.22 721.363 1676.41 621.925 1602.37 C 638.899 1586.07 673.697 1558.11 692.47 1543.38 z" fill="rgb(245,158,11)" transform="translate(0,0)"></path>
<path d="M 1089.75 319.573 C 1214.66 332.585 1326.18 377.205 1429.54 448.342 C 1407.69 469.013 1383.05 487.092 1360.64 507.438 C 1282.96 413.804 1199.88 355.081 1082.16 321.645 C 1083.79 320.752 1084.19 320.464 1086.09 320.163 L 1089.75 319.573 z" fill="rgb(245,158,11)" transform="translate(0,0)"></path>
<path d="M 452.505 614.011 C 451.109 615.462 438.32 628.791 437.691 629.08 L 437.265 628.91 C 436.823 627.451 447.547 613.934 449.111 612.802 L 452.505 614.011 z" fill="rgb(195,101,37)" transform="translate(0,0)"></path>
<path d="M 1602.41 1431.48 C 1604.5 1427.54 1609.78 1423.78 1613.35 1420.76 C 1609.59 1425.93 1605.37 1431.86 1600.96 1436.51 C 1601.95 1434.12 1602.15 1433.99 1602.41 1431.48 z" fill="rgb(145,78,45)" transform="translate(0,0)"></path>
<path d="M 321.397 1783.9 C 324.698 1779.59 326.921 1776.53 330.717 1772.56 L 332.557 1774.69 C 328.886 1778.78 325.978 1780.98 321.397 1783.9 z" fill="rgb(145,78,45)" transform="translate(0,0)"></path>
<path d="M 1365.17 864.884 C 1361.27 869.268 1357.18 873.81 1352.45 877.299 L 1351.5 875.407 C 1353.96 872.27 1361.64 867.316 1365.17 864.884 z" fill="rgb(145,78,45)" transform="translate(0,0)"></path>
<path d="M 703.875 1169.23 L 707.797 1169.68 C 706.354 1170.84 698.533 1177.46 697.339 1176.68 C 696.949 1175.17 702.639 1170.37 703.875 1169.23 z" fill="rgb(195,101,37)" transform="translate(0,0)"></path>
<path d="M 1714.83 276.746 C 1719.44 271.974 1720.89 270.848 1726.22 267.597 C 1723.05 271.577 1719.69 275.651 1716.14 279.294 L 1714.83 276.746 z" fill="rgb(145,78,45)" transform="translate(0,0)"></path>
<path d="M 1077.79 318.432 C 1081.9 318.885 1085.66 318.999 1089.75 319.573 L 1086.09 320.163 C 1084.19 320.464 1083.79 320.752 1082.16 321.645 C 1079.67 321.212 1077.2 320.682 1074.76 320.057 C 1075.76 319.498 1076.77 318.957 1077.79 318.432 z" fill="rgb(195,101,37)" transform="translate(0,0)"></path>
<path d="M 972.764 1730.35 C 974.809 1730.64 976.634 1730.96 978.665 1731.31 C 978.27 1732.49 978.156 1732.43 977.194 1733.45 C 973.538 1733.12 970.31 1732.96 966.668 1732.4 C 969.73 1731.7 970.026 1731.77 972.764 1730.35 z" fill="rgb(195,101,37)" transform="translate(0,0)"></path>
<path d="M 978.665 1731.31 C 980.114 1731.56 985.953 1731.78 986.554 1733.37 C 985.766 1734.71 978.91 1734.08 977.194 1733.45 C 978.156 1732.43 978.27 1732.49 978.665 1731.31 z" fill="rgb(145,78,45)" transform="translate(0,0)"></path>
<path d="M 1673.64 745.197 C 1673.29 744.018 1670.42 736.877 1671.79 736.438 L 1671.88 736.547 L 1672.03 736.472 C 1673.41 737.666 1675.03 741.848 1675.6 743.607 L 1673.64 745.197 z" fill="rgb(195,101,37)" transform="translate(0,0)"></path>
<path d="M 1068.43 317.957 L 1069.32 317.971 C 1072.18 317.994 1075.19 317.519 1077.79 318.432 C 1076.77 318.957 1075.76 319.498 1074.76 320.057 C 1072.5 319.951 1070.33 319.493 1068.11 319.168 L 1068.43 317.957 z" fill="rgb(121,64,54)" transform="translate(0,0)"></path>
<path d="M 1068.11 319.168 C 1057.12 319.134 1060.38 316.064 1068.43 317.957 L 1068.11 319.168 z" fill="rgb(64,41,53)" transform="translate(0,0)"></path>
<path d="M 370.249 1291.97 L 371.505 1297.43 L 369.536 1298.38 C 369.095 1296.82 368.689 1295.46 368.193 1293.9 L 370.249 1291.97 z" fill="rgb(195,101,37)" transform="translate(0,0)"></path>
<path d="M 371.505 1297.43 C 373.266 1302.81 372.539 1303.66 369.536 1298.38 L 371.505 1297.43 z" fill="rgb(145,78,45)" transform="translate(0,0)"></path>
<metadata><recraft-signature>{"signed_by": "recraft", "signature_b64": "MAhFmlpPqnALvv4oT9GWPnPCQ+1XiUWLxtIgPABMj5JnyCScJwxvjAwrBfybpK87VojgiJPkR+wzlkxe8/CIDQ==", "signing_algo": "Ed25519", "generation_timestamp": 1773297697, "identifier": "8cfce3f1-d3f4-4f85-ac50-eaa439dbe891"}</recraft-signature></metadata></svg>