<svg xmlns="http://www.w3.org/2000/svg" height="1024" preserveAspectRatio="none" style="display: block;" version="1.1" viewBox="0 0 2048 2048" width="1024">
<path d="M 0 0 L 2048 0 L 2048 2048 L 0 2048 L 0 0 z" fill="rgb(8,33,89)" transform="translate(0,0)"></path>
<path d="M 437.055 326.254 C 440.666 327.955 452.784 336.914 456.657 339.658 C 471.432 350.119 486.145 360.668 500.794 371.305 L 681.68 503.179 C 849.526 628.211 1016.39 754.555 1182.26 882.199 C 1288.19 962.991 1387.39 1040.45 1496.51 1117.61 C 1477.58 1163.12 1463.71 1203.93 1480.23 1253.45 C 1505.36 1328.77 1594.19 1381.72 1672.34 1361.13 C 1685.06 1357.78 1697.82 1352.83 1710.37 1348.7 C 1723.78 1357.63 1750.38 1380.52 1764.12 1391.48 C 1725.55 1476.93 1683.79 1532.96 1620.13 1602.19 C 1579.49 1645.21 1542.55 1674.61 1492.9 1707.52 C 1472.54 1684.16 1448.56 1659.78 1429.41 1636.59 C 1446.93 1614.68 1457.35 1598.11 1464.9 1570.44 C 1489.48 1480.32 1434.18 1394.79 1345.26 1371.88 C 1293.12 1358.44 1237.14 1380.71 1192.52 1407.09 C 1177.91 1392.91 1162.51 1375.65 1148.37 1360.63 L 1057.12 1263.27 L 823.932 1014.99 C 763.589 948.823 702.329 883.495 640.17 819.027 C 627.189 805.812 614.701 791.368 603.202 776.849 C 504.097 651.714 435.517 487.52 437.055 326.254 z" fill="rgb(245,158,11)" transform="translate(0,0)"></path>
<path d="M 638.186 523.739 C 643.823 526.82 667.152 545.232 674.478 550.506 C 724.923 586.818 773.818 626.103 823.364 663.56 C 1012.63 803.767 1197.94 949.251 1379.05 1099.84 C 1356.72 1123.42 1331.4 1147.35 1308.16 1170.49 L 1235.73 1242.47 C 1213.03 1218.45 1187.86 1194.16 1164.59 1170.08 L 896.781 894.258 C 837.454 833.093 767.564 767.562 718.162 698.327 C 685.653 652.767 651.231 578.415 638.186 523.739 z" fill="rgb(8,33,89)" transform="translate(0,0)"></path>
<path d="M 836.323 1111.61 L 927.385 1206.03 C 868.748 1275.85 806.269 1345 746.852 1414.74 L 645.351 1534.78 C 624.538 1559.8 602.879 1587.39 581.622 1611.74 L 583.371 1613.26 C 607.754 1588.65 634.177 1563.84 659.272 1539.83 C 674.41 1525.35 695.111 1504.3 710.778 1491.4 C 756.805 1490.87 802.815 1489.36 848.778 1486.87 C 832.313 1506.99 815.129 1525.19 797.623 1544.33 C 773.13 1571.12 748.338 1599.2 722.842 1624.98 C 695.859 1626.76 665.798 1629.69 639.182 1630.71 L 639.04 1632.9 C 663.777 1632.89 689.289 1635.07 714.694 1635.05 C 686.92 1666.63 656.176 1699.2 627.771 1730.8 C 478.536 1674.66 344.514 1561.92 284.53 1411.67 C 292.193 1404.41 302.533 1396.27 310.805 1389.1 C 321.209 1380.09 332.836 1368.98 343.664 1360.95 C 376.299 1360.86 409.736 1364.78 442.441 1365.34 C 460.667 1365.65 478.58 1367.32 496.859 1366.03 C 472.283 1389.91 444.121 1413.49 418.794 1437.54 L 419.451 1440.21 L 699.605 1218.99 C 744.105 1183.92 791.014 1145 836.323 1111.61 z" fill="rgb(245,158,11)" transform="translate(0,0)"></path>
<path d="M 403.292 1451.18 L 406.182 1451.27 C 404.726 1452.68 395.597 1461.37 393.834 1460.41 C 393.575 1458.48 401.482 1452.5 403.292 1451.18 z" fill="rgb(164,76,12)" transform="translate(0,0)"></path>
<path d="M 418.794 1437.54 L 419.451 1440.21 C 416.66 1442.68 413.982 1444.61 411.174 1447.17 L 408.866 1446.17 C 412.379 1443.17 415.095 1440.37 418.794 1437.54 z" fill="rgb(62,40,29)" transform="translate(0,0)"></path>
<path d="M 572.362 1621.72 C 575.686 1618.65 578.357 1615.09 581.622 1611.74 L 583.371 1613.26 C 580.16 1616.59 576.743 1619.58 573.849 1623.13 L 572.362 1621.72 z" fill="rgb(62,40,29)" transform="translate(0,0)"></path>
<path d="M 631.021 1633.05 C 629.507 1633.06 620.778 1633.46 620.41 1632.02 C 620.494 1631.72 620.41 1631.86 620.683 1631.63 L 620.708 1632.07 C 622.4 1630.49 627.125 1630.91 629.774 1630.87 L 631.021 1633.05 z" fill="rgb(164,76,12)" transform="translate(0,0)"></path>
<path d="M 629.774 1630.87 C 632.932 1630.87 636.03 1630.76 639.182 1630.71 L 639.04 1632.9 C 636.367 1632.93 633.694 1632.98 631.021 1633.05 L 629.774 1630.87 z" fill="rgb(62,40,29)" transform="translate(0,0)"></path>
<path d="M 408.866 1446.17 L 411.174 1447.17 C 409.453 1448.49 407.761 1449.78 406.182 1451.27 L 403.292 1451.18 C 405.281 1449.23 406.674 1447.94 408.866 1446.17 z" fill="rgb(99,47,12)" transform="translate(0,0)"></path>
<path d="M 573.849 1623.13 L 572.464 1624.33 C 572.021 1624.73 571.269 1625.56 570.553 1625.46 C 569.832 1624.46 571.798 1622.44 572.362 1621.72 L 573.849 1623.13 z" fill="rgb(164,76,12)" transform="translate(0,0)"></path>
<path d="M 1609.14 413.76 C 1617.24 417.498 1635.59 432.246 1642.94 438.251 C 1608.44 480.965 1568.33 524.22 1532.25 565.941 L 1263.77 875.173 C 1252.27 866.817 1240.81 858.387 1229.42 849.884 L 1167.69 802.559 C 1190.63 769.445 1203.47 759.953 1233.85 734.05 L 1302.6 674.966 L 1499.5 506.58 C 1534.5 476.944 1575.88 444.32 1609.14 413.76 z" fill="rgb(245,158,11)" transform="translate(0,0)"></path>
<path d="M 505.955 1221.99 C 551.332 1224.88 596.948 1229.14 641.91 1231.85 C 596.474 1271.42 552.118 1313.16 506.759 1352.54 C 499.921 1352.22 491.079 1352.69 484.071 1352.89 L 348.248 1356.02 C 367.267 1338.04 396.549 1314.96 417.47 1297.19 C 444.337 1274.37 478.65 1242.02 505.955 1221.99 z" fill="rgb(245,158,11)" transform="translate(0,0)"></path>
<path d="M 967.348 1342.43 L 980.326 1341.97 C 947.588 1382.31 903.493 1426.22 867.916 1464.87 C 827.157 1467.46 778.306 1474.24 736.756 1478.39 L 722.502 1479.68 L 808.189 1389.18 C 820.396 1376.41 834.371 1361.1 847.031 1349.07 C 886.348 1347.73 927.86 1344.59 967.348 1342.43 z" fill="rgb(245,158,11)" transform="translate(0,0)"></path>
<path d="M 663.132 1092.06 C 674.496 1091.74 690.636 1092.85 702.887 1092.93 C 733.644 1092.85 764.401 1093.22 795.148 1094.05 C 775.129 1113.13 755.21 1129.95 734.59 1148.15 C 713.138 1167.44 691.561 1186.6 669.86 1205.61 C 663.828 1205.21 656.024 1205.4 649.856 1205.4 C 605.744 1206.98 561.601 1207.51 517.464 1206.97 C 529.593 1195.23 554.077 1177.64 568.217 1166.23 C 587.576 1150.58 607.087 1135.12 626.746 1119.85 C 636.824 1111.88 652.684 1098.57 663.132 1092.06 z" fill="rgb(245,158,11)" transform="translate(0,0)"></path>
<path d="M 1215.12 616.005 C 1245.46 615.007 1280.91 616.57 1311.67 617.269 C 1300.28 630.65 1265.11 658.024 1250.52 670.997 C 1239.72 680.599 1212.48 704.92 1201.51 712.563 L 1177.75 714.215 L 1126.81 717.842 C 1117.26 718.55 1102.67 720.194 1093.5 719.704 L 1092.62 718.57 C 1094.08 716.208 1094.17 716.223 1094.91 713.581 C 1093.34 712.016 1093.52 712.503 1092.57 710.618 C 1095.07 706.392 1204.19 623.829 1215.12 616.005 z" fill="rgb(245,158,11)" transform="translate(0,0)"></path>
<path d="M 1447.78 498.537 L 1449.55 498.453 L 1449.47 499.728 C 1418.3 528.322 1377.39 562.094 1344.62 589.326 C 1315.44 593.113 1269.05 597.754 1239.93 599.403 L 1238.52 598.471 C 1238.87 597.876 1239.46 596.808 1239.94 596.418 C 1273.89 568.692 1309.25 542.412 1342.98 514.298 C 1356.55 502.99 1368.39 505.48 1385.18 504.044 C 1406.04 502.06 1426.91 500.224 1447.78 498.537 z" fill="rgb(245,158,11)" transform="translate(0,0)"></path>
<path d="M 1505.56 735.411 C 1506.37 735.258 1507.52 735.42 1508.41 735.477 L 1508.48 737.08 C 1498.19 752.369 1475.65 777.281 1463.42 791.943 C 1452.47 805.073 1438.36 823.097 1427.29 835.219 C 1401.53 838.707 1375.82 842.495 1350.15 846.583 L 1347.98 846.48 L 1346.91 845.093 C 1347.33 842.547 1348.21 840.874 1349.74 838.853 C 1359.39 826.163 1429.32 751.609 1440.89 746.573 C 1453.25 741.195 1490.43 737.375 1505.56 735.411 z" fill="rgb(245,158,11)" transform="translate(0,0)"></path>
<path d="M 955.731 1239.74 C 959.32 1242.89 962.764 1246.38 966.04 1249.86 C 981.717 1266.5 998.75 1282.27 1013.97 1299.3 C 1008.14 1306.82 999.566 1315.66 992.994 1322.81 C 973.236 1321.97 948.594 1322.88 928.5 1323.15 C 910.222 1323.11 889.567 1324.27 871.067 1324.8 C 874.109 1320.82 877.539 1317.11 881.038 1313.52 C 905.473 1288.46 931.061 1264.56 955.731 1239.74 z" fill="rgb(245,158,11)" transform="translate(0,0)"></path>
<path d="M 1598.76 602.097 L 1599.42 603.354 C 1593.54 616.879 1529.2 708.192 1516.51 718.013 C 1494.7 719.839 1475.29 721.424 1453.36 723.806 L 1452.49 722.326 C 1457.71 711.984 1517.83 643.899 1531.06 634.536 C 1534.93 631.804 1555.19 622.998 1560.81 620.506 C 1573.7 614.867 1586.36 608.726 1598.76 602.097 z" fill="rgb(245,158,11)" transform="translate(0,0)"></path>
<path d="M 1383.99 482.613 C 1438.67 451.152 1502.13 422.162 1565.16 414.143 C 1538.05 435.542 1510.25 455.993 1481.85 475.603 C 1475.46 480.017 1466.56 485.268 1458.93 484.897 C 1443 484.123 1420.8 487.576 1405.5 486.145 C 1398.08 487.124 1384.78 486.989 1376.89 487.138 L 1383.99 482.613 z" fill="rgb(245,158,11)" transform="translate(0,0)"></path>
<path d="M 1393.54 860.435 C 1397.28 860.093 1403.87 860.16 1407.85 860.067 C 1389.84 883.911 1363.64 913.185 1343.89 936.003 C 1338.65 931.165 1332.06 926.451 1326.3 922.115 C 1315.95 914.578 1305.73 906.859 1295.64 898.962 C 1307.31 887.525 1318.56 875.606 1330.24 864.111 L 1393.54 860.435 z" fill="rgb(245,158,11)" transform="translate(0,0)"></path>
<path d="M 750.28 1020.09 C 753.78 1023.42 761.953 1033.46 765.406 1037.47 L 795.083 1071.96 C 777.308 1075.5 739.083 1077.12 719.247 1078.76 C 704.293 1079.6 689.123 1080.93 674.025 1081.8 C 698.241 1061.26 725.036 1041.41 750.28 1020.09 z" fill="rgb(245,158,11)" transform="translate(0,0)"></path>
<path d="M 1649.73 476.8 C 1650.84 493.3 1610.69 578.775 1601.76 598.12 C 1586.91 598.156 1574.25 598.941 1559.41 599.935 C 1560.36 591.694 1638.77 491.011 1649.73 476.8 z" fill="rgb(245,158,11)" transform="translate(0,0)"></path>
<path d="M 1088.15 727.896 C 1116.35 729.043 1146.49 729.422 1174.87 729.833 C 1167.17 736.513 1157.57 744.257 1149.43 750.419 C 1141.76 756.725 1134.29 762.62 1126.86 769.279 C 1111.37 759.729 1094.52 748.806 1079.23 738.866 C 1082.26 735.155 1085.04 731.567 1088.15 727.896 z" fill="rgb(245,158,11)" transform="translate(0,0)"></path>
<metadata><recraft-signature>{"signed_by": "recraft", "signature_b64": "YsDpG2gnMoe3LN6723fDQTR75ZjrJA7Rar4Ztc7EJ+nc9hmfAlOsRtdmC/iTRs4cxdgJuzT40F1nKygO8UqVAQ==", "signing_algo": "Ed25519", "generation_timestamp": 1773297312, "identifier": "2c0defdb-4225-4776-90e3-5195571e4a00"}</recraft-signature></metadata></svg>