<svg xmlns="http://www.w3.org/2000/svg" height="1024" preserveAspectRatio="none" style="display: block;" version="1.1" viewBox="0 0 2048 2048" width="1024">
<path d="M 0 0 L 2048 0 L 2048 2048 L 0 2048 L 0 0 z" fill="rgb(253,253,252)" transform="translate(0,0)"></path>
<path d="M 645.087 586.877 C 642.816 585.739 643.478 586.196 641.679 584.556 C 644.221 583.002 647.859 583.544 651.294 583.504 L 840.274 583.721 C 888.178 583.77 937.198 584.463 984.948 583.597 L 1207.44 1125.54 C 1201.77 1142.04 1195.54 1159.48 1191.08 1176.19 C 1169.5 1257.23 1168 1339.82 1179.33 1422.56 C 1182.23 1443.74 1184.37 1472.5 1188.69 1493.16 C 1188.19 1495.9 1188.07 1495.81 1186.59 1498.19 C 1142.48 1385.05 1093.06 1270.14 1046.79 1157.67 C 980.371 998.914 916.513 839.096 855.242 678.281 C 785.442 650.933 715.451 615.53 645.087 586.877 z" fill="rgb(245,158,11)" transform="translate(0,0)"></path>
<path d="M 1351.41 787.443 C 1357.64 792.441 1416.48 1008.04 1422.47 1029.72 C 1401.14 1075.89 1381.84 1123.71 1361.52 1170.32 L 1219.05 1495.76 C 1215.71 1503.22 1208.35 1521.72 1204.53 1527.76 L 1203.4 1527.77 C 1201.15 1524.17 1198.1 1504.1 1197.17 1498.71 C 1193.48 1477.63 1190.04 1456.51 1186.83 1435.35 C 1172.78 1342.67 1173.15 1248.77 1201.34 1158.61 C 1211.85 1125.01 1227.62 1089.41 1240.15 1056.05 C 1274.19 965.419 1315.08 877.169 1351.41 787.443 z" fill="rgb(245,158,11)" transform="translate(0,0)"></path>
<path d="M 695.139 785.805 C 708.658 820.919 727.921 861.328 743.166 896.546 C 775.856 973.168 809.362 1049.44 843.679 1125.35 C 820.79 1184.42 810.901 1272.11 813.297 1334.93 C 815.093 1382.05 822.799 1448.36 832.764 1495.16 C 832.208 1497.88 832.074 1497.84 830.5 1500.15 L 626.823 1030.6 C 645.769 951.919 672.247 864.081 695.139 785.805 z" fill="rgb(245,158,11)" transform="translate(0,0)"></path>
<path d="M 257.112 585.489 C 256.436 585.326 254.278 584.539 253.549 584.288 L 253.983 583.477 C 260.862 582.531 280.586 583.057 288.3 583.082 L 357.477 583.289 L 469.709 583.167 C 491.08 583.14 517.308 582.601 538.44 583.826 L 608.308 583.365 C 623.375 618.139 638.114 653.055 652.523 688.106 C 660.425 707.098 671.227 731.078 678.141 749.981 C 671.089 770.782 662.575 792.174 656.385 813.131 C 641.356 864.014 628.615 915.772 615.217 967.108 C 613.165 975.063 611.064 983.911 609.849 991.991 C 587.556 937.531 562.861 883.827 540.992 829.782 L 499.326 729.153 C 493.499 714.819 486.24 693.152 479.961 680.197 C 404.355 649.645 332.046 617.296 257.112 585.489 z" fill="rgb(245,158,11)" transform="translate(0,0)"></path>
<path d="M 1703.83 583.833 C 1714.38 583.09 1785.19 581.745 1793.96 583.553 L 1793.73 584.747 L 1791.71 585.462 C 1778.38 591.801 1756.72 599.874 1742.47 605.864 L 1638.78 650.319 C 1616.87 659.581 1589.78 669.941 1568.92 680.065 C 1561.86 698.305 1555.37 717.201 1547.94 735.261 C 1528.5 782.562 1508 829.344 1487.63 876.223 L 1438.7 989.874 C 1436.69 975.451 1426.42 939.158 1422.17 923.309 C 1407.06 866.996 1394.08 804.626 1370.03 751.763 C 1382.15 721.464 1396.97 690.386 1409.28 659.537 C 1418.63 636.085 1430.22 605.45 1440.89 583.496 L 1600.95 583.745 C 1634.86 583.744 1670 583.217 1703.83 583.833 z" fill="rgb(245,158,11)" transform="translate(0,0)"></path>
<path d="M 921.208 930.653 C 923.772 934.333 939.975 974.869 942.783 981.867 L 983.455 1084.09 C 991.548 1104.81 998.991 1125.8 1007.75 1146.24 C 991.876 1181.98 976.085 1222.37 960.988 1258.81 L 864.88 1489.63 C 858.657 1503.59 853.235 1517.53 847.631 1531.75 C 823.524 1420.66 804.961 1313.57 829.184 1200.74 C 839.331 1153.47 856.287 1108.13 872.907 1062.92 C 889.234 1018.92 905.335 974.825 921.208 930.653 z" fill="rgb(245,158,11)" transform="translate(0,0)"></path>
<path d="M 1313.54 583.831 C 1343.49 581.824 1381.68 583.441 1412.2 583.017 C 1410.6 583.693 1403.26 586.942 1402.06 587.258 C 1359.87 606.536 1317.39 625.2 1274.66 643.245 C 1250.11 653.574 1215.15 666.739 1192.64 678.778 C 1186.68 692.401 1179.9 711.963 1174.62 726.123 C 1158.94 768.22 1144.56 809.666 1127.81 851.414 C 1119.58 833.501 1111.14 811.28 1103.49 792.75 C 1089.88 759.417 1075.94 726.223 1061.66 693.172 C 1055.93 679.657 1048.82 658.483 1042.5 646.678 C 1050.28 625.754 1057.58 604.411 1065.26 583.389 C 1120.52 583.238 1175.78 583.399 1231.04 583.87 C 1257.41 583.979 1287.74 582.93 1313.54 583.831 z" fill="rgb(245,158,11)" transform="translate(0,0)"></path>
<path d="M 839.748 1524.58 C 843.066 1526.58 844.256 1528.89 848.113 1529.77 C 851.28 1530.49 847.669 1536.17 846.845 1538.33 C 845.733 1545.07 839.822 1524.81 839.748 1524.58 z" fill="rgb(245,158,11)" transform="translate(0,0)"></path>
<path d="M 1188.69 1493.16 C 1189.11 1494.34 1193.54 1514.63 1193.49 1516.44 C 1191.66 1510.86 1188.09 1503.99 1186.59 1498.19 C 1188.07 1495.81 1188.19 1495.9 1188.69 1493.16 z" fill="rgb(245,187,117)" transform="translate(0,0)"></path>
<path d="M 832.764 1495.16 C 834.011 1500.8 834.982 1506.49 835.919 1512.19 C 834.017 1508.59 832.323 1504.9 830.846 1501.11 C 830.731 1500.79 830.615 1500.47 830.5 1500.15 C 832.074 1497.84 832.208 1497.88 832.764 1495.16 z" fill="rgb(245,187,117)" transform="translate(0,0)"></path>
<metadata><recraft-signature>{"signed_by": "recraft", "signature_b64": "cJ78Piggcbmvt9C15HIrbcvRZHLsInE1lIyvWqA+1+XuIKfnf9R6svreU17GjIY8qBtsZZYVeKlv7VypzjlzCg==", "signing_algo": "Ed25519", "generation_timestamp": 1773296842, "identifier": "3ab5c047-3aba-4017-8062-be19543a3c69"}</recraft-signature></metadata></svg>