<svg xmlns="http://www.w3.org/2000/svg" height="1024" preserveAspectRatio="none" style="display: block;" version="1.1" viewBox="0 0 2048 2048" width="1024">
<path d="M 0 0 L 2048 0 L 2048 2048 L 0 2048 L 0 0 z" fill="rgb(32,24,20)" transform="translate(0,0)"></path>
<path d="M 1789.81 468.034 L 1790.56 469.688 L 1488.46 1159.81 L 1367.77 1436 C 1354.26 1467.68 1340.51 1499.27 1326.53 1530.76 C 1319.18 1547.56 1311.41 1566.43 1303.22 1582.69 C 1292.86 1559.8 1283.05 1535.67 1272.98 1512.52 L 1192.58 1325.75 C 1184.37 1304.68 1173.97 1282.13 1165.16 1261.55 C 1148.91 1223.57 1137.05 1212.54 1160.03 1173.35 C 1176.45 1145.35 1190.25 1111.46 1206.62 1082.59 C 1230.24 1126.15 1249.86 1173.19 1272.13 1217.56 C 1285.55 1244.3 1297.59 1270.65 1303.95 1300.08 C 1308.18 1292.01 1314.22 1276.66 1318.04 1267.84 L 1341.22 1215.24 L 1402.55 1077.3 L 1517.93 818.303 C 1556.31 730.247 1595.39 642.496 1635.16 555.06 C 1656.03 541.389 1681.33 528.686 1703.06 516.097 C 1731.68 499.519 1760.29 482.971 1789.81 468.034 z" fill="rgb(245,158,11)" transform="translate(0,0)"></path>
<path d="M 255.121 465.483 C 306.023 495.347 360.241 522.662 410.553 553.266 C 445.234 627.318 479.739 707.638 512.412 782.665 L 619.897 1027.64 C 642.78 1080.74 666.061 1133.67 689.74 1186.42 C 703.382 1217.41 727.095 1261.35 728.971 1293.63 L 731.576 1294.09 C 734.591 1275.95 745.722 1248.41 756.907 1233.99 C 781.065 1282.5 805.251 1337.02 830.791 1383.97 C 821.585 1406.44 810.79 1429.22 800.931 1451.49 L 741.51 1585.34 C 685.56 1449.32 623.125 1310.72 564.493 1175.55 L 255.121 465.483 z" fill="rgb(245,158,11)" transform="translate(0,0)"></path>
<path d="M 728.971 1293.63 L 731.576 1294.09 C 731.327 1295 730.616 1298.88 729.488 1299.39 C 728.734 1298.57 728.968 1294.71 728.971 1293.63 z" fill="rgb(52,24,5)" transform="translate(0,0)"></path>
<path d="M 452.806 473.622 C 459.244 475.645 499.405 498.157 507.436 502.804 C 540.664 522.03 577.336 540.63 609.946 560.427 C 616.754 579.202 629.237 605.28 637.602 624.036 L 680.466 721.215 C 719.851 812.042 760.136 902.478 801.314 992.507 C 788.16 1018.88 774.739 1045.11 761.054 1071.21 L 739.223 1114.52 C 727.035 1088.9 714.761 1059.33 702.95 1033.03 L 627.773 866.346 C 568.663 735.79 510.34 604.88 452.806 473.622 z" fill="rgb(245,158,11)" transform="translate(0,0)"></path>
<path d="M 1591.77 475.975 C 1591.44 483.069 1522.42 634.795 1516.23 648.811 L 1372.3 973.527 C 1351.14 1020.92 1329.88 1071.53 1307.74 1118.11 C 1300.86 1104.35 1293.18 1090.23 1286 1076.57 C 1272.06 1049.41 1258.43 1022.1 1245.11 994.636 C 1252.36 981.383 1260.99 961.003 1267.3 946.889 L 1306.44 858.275 C 1332.81 798.631 1359.52 739.138 1386.57 679.801 C 1404.08 640.555 1420.74 601.458 1438.78 562.387 C 1486.59 533.149 1542.54 503.482 1591.77 475.975 z" fill="rgb(245,158,11)" transform="translate(0,0)"></path>
<path d="M 1115.7 1585.49 C 1101.71 1556.62 1088.39 1523.59 1075.3 1493.87 L 995.435 1309.72 C 988.345 1292.98 981.073 1276.32 973.62 1259.74 C 968.672 1248.58 953.332 1216.21 958.103 1204.36 C 967.753 1180.37 982.041 1155.21 994.291 1132.18 C 1002.88 1116.04 1012.37 1093.75 1021.97 1078.77 C 1040.77 1116.22 1057.64 1157.78 1074.85 1196.11 C 1087.57 1224.43 1105.6 1259.66 1109.98 1289.71 L 1113.51 1291.04 C 1121.8 1263.63 1120.11 1263.22 1136.55 1239 C 1157.54 1287 1183.31 1338.03 1205.89 1385.86 C 1174.8 1450.51 1147.65 1521.89 1115.7 1585.49 z" fill="rgb(245,158,11)" transform="translate(0,0)"></path>
<path d="M 1109.98 1289.71 L 1113.51 1291.04 L 1113.37 1291.74 C 1113.03 1293.51 1112.65 1295.19 1112.14 1296.91 L 1112.34 1296.39 C 1111.61 1298.1 1111.89 1297.73 1111.49 1298.15 C 1110.73 1297.05 1110.12 1291.2 1109.98 1289.71 z" fill="rgb(52,24,5)" transform="translate(0,0)"></path>
<path d="M 929.643 1585.01 C 918.243 1561.7 906.469 1532.93 895.675 1508.61 C 870.268 1451.84 845.403 1394.83 821.082 1337.59 C 811.153 1314.43 800.236 1291.52 790.231 1268.35 C 782.038 1249.37 771.986 1232.22 767.828 1211.68 C 764.241 1193.96 770.805 1186.8 778.428 1171.59 C 782.415 1163.66 786.681 1155.76 790.733 1147.86 L 826.739 1077 C 831.393 1083.95 836.809 1096.33 840.445 1104.13 L 861.234 1148.64 L 896.444 1222.06 C 909.098 1248.63 918.373 1264.07 922.03 1293.72 L 925.482 1294.91 C 933.255 1269.54 934.413 1264.8 948.784 1242.82 C 967.493 1287.45 996.546 1344.09 1017.96 1387.96 C 1005.93 1419.47 987.305 1458.75 973.204 1490.01 C 959.986 1519.32 943.983 1557.33 929.643 1585.01 z" fill="rgb(245,158,11)" transform="translate(0,0)"></path>
<path d="M 922.03 1293.72 L 925.482 1294.91 C 925.22 1296.36 924.466 1301.25 923.461 1302.22 C 921.898 1301.64 922.062 1295.07 922.03 1293.72 z" fill="rgb(52,24,5)" transform="translate(0,0)"></path>
<path d="M 707.395 603.077 C 718.732 607.58 748.359 625.236 759.959 631.79 L 856.666 686.543 C 862.284 698.183 867.31 709.856 872.599 721.625 C 913.586 812.824 951.636 905.577 992.542 996.781 C 978.237 1023.91 964.281 1051.56 950.304 1078.88 C 943.094 1092.64 936.08 1106.5 929.264 1120.46 C 920.928 1099.56 910.573 1077.56 901.539 1056.82 L 856.199 951.76 L 759.454 724.986 C 747.813 697.633 736.007 670.35 724.034 643.141 C 720.253 634.45 709.429 610.971 707.395 603.077 z" fill="rgb(245,158,11)" transform="translate(0,0)"></path>
<path d="M 901.532 607.529 C 912.296 611.65 932.654 623.635 943.468 629.151 C 977.818 646.671 1012.75 667.93 1047.23 684.78 C 1062.28 712.362 1080.39 757.427 1093.58 786.96 C 1124.05 855.225 1154.14 923.664 1183.83 992.273 C 1171.45 1019.44 1155.66 1048.81 1141.94 1075.51 C 1135.22 1089.32 1128.32 1103.04 1121.25 1116.67 L 974.967 777.242 L 929.222 671.84 C 920.07 651.008 909.444 628.673 901.532 607.529 z" fill="rgb(245,158,11)" transform="translate(0,0)"></path>
<path d="M 1337.99 606.947 L 1338.98 608.111 C 1337.03 614.371 1330.11 629.054 1327.05 636.03 L 1301.34 694.146 L 1215.52 887.928 L 1199.42 851.746 C 1185.73 821.697 1173.34 791.227 1159.5 761.228 C 1170.94 737.07 1182.05 712.755 1192.82 688.291 C 1208.6 677.928 1230.04 666.795 1246.88 657.425 L 1337.99 606.947 z" fill="rgb(245,158,11)" transform="translate(0,0)"></path>
<metadata><recraft-signature>{"signed_by": "recraft", "signature_b64": "07liloVAuQf1Q29KeI+b3v/d7IYxd5P/QGCWhhfqaQmFDfMYhVQhayMoxttJg3hs6hXq9Fiomk5E51YaCGixCQ==", "signing_algo": "Ed25519", "generation_timestamp": 1773296841, "identifier": "667d0b21-ffbd-4743-8ac2-76da7337a650"}</recraft-signature></metadata></svg>