<svg xmlns="http://www.w3.org/2000/svg" height="1024" preserveAspectRatio="none" style="display: block;" version="1.1" viewBox="0 0 2048 2048" width="1024">
<path d="M 0 0 L 2048 0 L 2048 2048 L 0 2048 L 0 0 z" fill="rgb(252,251,250)" transform="translate(0,0)"></path>
<path d="M 1543.87 411.547 L 1546.3 408.523 L 1547.37 408.907 C 1547.43 411.617 1547.5 412.762 1547.18 415.49 L 1546.83 809.866 C 1524.32 831.904 1499.24 859.21 1477.98 882.773 L 1477.82 1087.74 C 1477.64 1128.1 1476.43 1172.68 1477.46 1212.49 C 1524.71 1178.69 1570.82 1141.47 1618.47 1107.07 L 1620.17 1110.31 C 1588.98 1147.3 1557.45 1187.61 1528.06 1226.04 C 1525.77 1229.03 1517.23 1279.49 1515.73 1287.21 L 1242.28 1542.28 C 1208.45 1573.73 1173.78 1608.59 1139.37 1638.63 C 1153.11 1556.47 1163.13 1471.63 1177.35 1389.29 C 1169.65 1375 1159.56 1359.19 1151.1 1345.14 L 1099.88 1260.84 C 1075.22 1220.41 1049.98 1175.4 1024.45 1135.93 C 998.324 1175.81 974.758 1217.6 950.082 1258.35 L 890.959 1356.48 C 884.421 1367.4 877.356 1377.94 871.093 1388.98 C 877.488 1419.95 882.39 1461.09 886.95 1493 C 894.032 1541.89 901.433 1590.74 909.153 1639.54 C 900.898 1630.87 888.171 1619.89 879.157 1611.53 L 828.326 1563.79 L 619.948 1368.52 C 601.443 1350.95 582.471 1333.79 563.798 1316.39 C 554.986 1308.17 545.082 1300.03 537.299 1290.87 C 525.612 1277.12 528.181 1247.11 521.894 1229.68 C 516.993 1216.1 436.213 1119.63 420.347 1100.55 C 447.753 1118.98 472.572 1137.88 498.734 1157.99 C 522.046 1175.92 548.718 1194.24 570.804 1213.43 C 572.004 1178.1 570.95 1135.75 570.923 1100.14 L 570.832 882.956 C 549.613 858.004 523.496 833.945 502.94 809.021 C 501.72 682.137 502.334 552.693 503.269 425.715 L 503.057 406.59 L 507.347 415.914 L 545.571 491.331 C 549.603 499.344 561.446 524.787 565.663 530.326 C 574.254 541.609 595.9 557.659 607.728 568.18 L 760.293 701.942 C 759.69 827.754 759.839 953.569 760.74 1079.38 C 760.948 1115.41 760.195 1152.27 760.788 1188.15 L 867.874 1012.53 C 883.908 986.26 907.202 950.891 920.622 924.536 C 908.327 900.178 890.219 867.244 875.041 844.15 C 866.96 840.158 859.724 836.619 851.373 833.124 C 837.69 743.222 828.57 657.083 816.934 567.449 C 832.043 583.527 843.699 591.238 859.385 605.512 C 897.092 639.842 935.231 673.695 973.792 707.062 C 990.152 721.466 1009.56 737.381 1025.12 752.237 C 1061.97 717.487 1103.42 683.021 1141.49 648.907 C 1160.69 631.568 1180.02 614.381 1199.49 597.349 C 1210.14 587.886 1221.25 576.711 1232.46 568.355 L 1213.58 713.445 C 1209.26 748.668 1204.05 797.095 1197.44 831.702 C 1190.03 835.816 1179.39 839.893 1173.28 845.662 C 1167.9 850.746 1132.51 914.093 1127.41 924.566 L 1284.55 1183.13 C 1286.5 1181.51 1286.46 1181.59 1287.78 1179.46 L 1288.19 900.528 L 1288.1 774.992 C 1288.09 751.388 1287.58 725.564 1288.45 702.094 C 1292.85 697.312 1297.84 693.452 1302.71 689.184 C 1361.94 637.058 1422.41 586.374 1480.58 533.098 C 1489.73 524.72 1512.12 471.416 1520.14 458.062 C 1525.95 448.396 1539.63 422.211 1543.87 411.547 z" fill="rgb(245,158,11)" transform="translate(0,0)"></path>
<path d="M 1284.55 1183.13 C 1286.5 1181.51 1286.46 1181.59 1287.78 1179.46 C 1287.75 1180.94 1288.06 1185.06 1287.3 1186.34 C 1287.15 1186.38 1287.01 1186.43 1286.86 1186.48 C 1285.77 1185.98 1284.99 1184.21 1284.55 1183.13 z" fill="rgb(251,249,240)" transform="translate(0,0)"></path>
<path d="M 1618.47 1107.07 C 1621.57 1104.6 1625.08 1102.46 1628.39 1100.23 C 1625.47 1104.32 1623.81 1106.73 1620.17 1110.31 L 1618.47 1107.07 z" fill="rgb(231,176,98)" transform="translate(0,0)"></path>
<metadata><recraft-signature>{"signed_by": "recraft", "signature_b64": "Qi4M7TyMk5QpPu1MG3OED4zFHGBuVOgeNvqomIyDr7nnUa5PoMXPGydXu0DvKCFQM1b3nUHI7fbub3OkS5ABAw==", "signing_algo": "Ed25519", "generation_timestamp": 1773296842, "identifier": "e4a2b6c0-ca51-4216-9542-1779eeb01227"}</recraft-signature></metadata></svg>