<svg xmlns="http://www.w3.org/2000/svg" height="1024" preserveAspectRatio="none" style="display: block;" version="1.1" viewBox="0 0 2048 2048" width="1024">
<path d="M 0 0 L 2048 0 L 2048 2048 L 0 2048 L 0 0 z" fill="rgb(28,27,27)" transform="translate(0,0)"></path>
<path d="M 254.75 414.401 C 301.724 435.575 353.583 463.721 400.491 487.017 L 795.907 686.378 C 753.66 691.131 711.372 698.073 669.06 702.688 C 662.048 703.453 654.411 704.324 647.535 705.668 C 654.065 708.534 682.956 720.454 685.818 724.628 C 728.3 786.569 754.966 858.014 785.05 926.572 C 803.328 968.223 823.203 1010.92 840.056 1052.97 C 840.401 1053.83 840.723 1054.7 841.024 1055.57 L 811.841 1131.43 C 806.554 1145.33 799.408 1165.88 793.19 1178.92 L 566.691 671.153 C 577.136 668.993 622.343 663.028 627.772 659.249 L 617.983 654.339 C 566.241 630.631 515.355 603.061 464.379 577.839 C 444.854 568.178 420.248 555.282 400.352 547.001 C 415.235 580.535 437.153 614.159 452.701 647.818 C 459.122 661.718 468.351 674.348 473.837 689.062 C 462.719 682.605 448.333 676.369 436.468 670.704 C 420.933 663.187 405.438 655.585 389.985 647.899 C 380.369 643.228 367.964 637.621 358.993 632.052 C 350.342 616.655 340.943 595.478 333.207 579.269 L 286.324 480.809 C 276.217 459.237 265.897 435.127 254.75 414.401 z" fill="rgb(245,158,11)" transform="translate(0,0)"></path>
<path d="M 1789.78 414.925 L 1790.69 415.857 C 1789.69 420.084 1781.86 435.446 1779.55 440.221 L 1756.86 487.225 L 1711.19 583.262 C 1704.03 598.191 1694.72 619.193 1686.83 632.826 C 1677.19 638.814 1656.58 647.726 1645.74 652.775 L 1577.84 684.786 C 1591.58 655.076 1608.86 623.927 1623.78 594.643 C 1631.87 578.761 1641 563.482 1648.48 547.202 C 1630.8 555.568 1612.8 565.015 1595.31 573.914 C 1537.75 603.209 1478.03 630.103 1420.74 659.72 C 1436.62 663.996 1464.79 668.532 1478.58 673.762 C 1471.32 692.01 1460.49 714.337 1452.29 732.513 L 1403.26 841.622 L 1276.61 1130.75 C 1269.78 1147.53 1262.49 1164.11 1254.73 1180.48 C 1237.68 1139.69 1223.85 1093.81 1207.05 1052.38 C 1233.22 997.308 1257.83 940.075 1283.31 884.517 C 1307.99 830.429 1334 776.957 1361.31 724.149 C 1372.43 718.457 1387.7 713.923 1397.97 707.901 C 1349.35 699.899 1299.49 693.903 1251.42 685.89 L 1789.78 414.925 z" fill="rgb(245,158,11)" transform="translate(0,0)"></path>
<path d="M 391.927 906.307 C 389.427 904.536 389.191 904.675 387.752 902.058 C 391.233 901.979 391.795 902.816 395.199 904.454 C 462.713 938.063 530.057 972.013 597.227 1006.3 C 628.127 1022.11 668.642 1041.51 697.778 1059.26 C 671.691 1059.34 645.604 1058.98 619.529 1058.17 C 626.846 1066.29 632.5 1071.28 641.377 1077.79 C 646.903 1090.64 653.379 1102.68 659.229 1115.37 L 704.15 1213.35 C 735.644 1282.45 766.925 1354.39 800.217 1422.37 C 802.768 1401.35 804.408 1380.22 805.135 1359.06 C 814.716 1375.37 826.253 1400.45 834.752 1417.95 C 844.25 1437.51 855.529 1459.12 864.401 1478.68 C 853.991 1504.77 841.144 1532.22 829.479 1557.83 C 818.628 1581.67 807.644 1606.86 796.309 1630.38 C 787.409 1612.84 778.375 1590.61 770.393 1572.39 C 754.03 1535.18 737.875 1497.88 721.93 1460.49 L 576.915 1122.83 C 567.755 1101.93 558.725 1080.97 549.824 1059.95 C 546.835 1052.94 535.533 1024.46 531.808 1020.82 C 517.403 1006.77 495.659 990.757 479.777 977.93 C 450.337 954.153 421.804 929.303 391.927 906.307 z" fill="rgb(245,158,11)" transform="translate(0,0)"></path>
<path d="M 1658.95 903.742 C 1616.18 942.329 1560.53 978.675 1517.44 1017.78 C 1512.73 1022.06 1497.65 1059.49 1493.74 1068.65 L 1454.81 1160.14 L 1335.24 1438.13 L 1285.7 1553.68 C 1274.86 1579.26 1264.49 1606.01 1252.9 1631.14 C 1244.88 1614.98 1237.89 1598.57 1230.27 1582.23 C 1214.25 1548.47 1198.52 1514.57 1183.1 1480.52 C 1201.78 1440.78 1221.18 1398.67 1240.61 1359.42 C 1242.59 1381.4 1244.7 1403.37 1246.94 1425.33 C 1254.46 1412.9 1268.53 1379.85 1275.62 1364.38 L 1364.62 1170.18 C 1373.29 1151.73 1382.05 1133.32 1390.9 1114.96 C 1398.02 1099.97 1405.32 1079.23 1418.01 1068.72 C 1421.4 1060.05 1424.08 1064.99 1422.13 1057.58 C 1403.17 1058.41 1367.79 1058.11 1350.64 1059.92 C 1373.37 1046.92 1401.28 1033.76 1424.9 1021.94 L 1498.9 983.991 L 1624.87 920.919 C 1636.13 915.41 1647.74 908.88 1658.95 903.742 z" fill="rgb(245,158,11)" transform="translate(0,0)"></path>
<path d="M 1422.13 1057.58 C 1423.86 1057.54 1428.41 1057.12 1429.9 1058.06 L 1430.11 1058.49 C 1429.26 1060.13 1420.08 1067.18 1418.01 1068.72 C 1421.4 1060.05 1424.08 1064.99 1422.13 1057.58 z" fill="rgb(48,29,23)" transform="translate(0,0)"></path>
<path d="M 1024.35 786.501 C 1029.47 790.934 1080.42 906.774 1085.42 920.586 C 1078.88 939.151 1061.52 973.944 1052.9 992.879 C 1032.03 1039.35 1010.86 1085.69 989.408 1131.9 C 981.067 1149.82 966.02 1179 960.37 1197.05 C 958.192 1204 965.032 1243.07 966.573 1253.26 C 951.109 1289.51 933.417 1326.1 917.045 1362 C 913.995 1368.69 899.534 1401.51 896.865 1405.4 L 895.495 1404.67 C 882.288 1375.04 868.796 1345.53 855.023 1316.15 C 844.576 1293.69 832.633 1269.03 823.411 1246.16 C 829.668 1227.86 844.185 1197.6 852.295 1179.22 C 869.156 1140.04 886.366 1101.01 903.925 1062.14 C 914.119 1039.54 923.28 1016.48 933.26 993.802 L 1024.35 786.501 z" fill="rgb(245,158,11)" transform="translate(0,0)"></path>
<path d="M 1112.5 997.654 C 1116.18 1001.22 1218.83 1229.58 1226.32 1248.3 C 1220.14 1264.58 1210.22 1285.41 1202.95 1301.64 C 1189.12 1332.27 1175.48 1363 1162.03 1393.8 L 1155.48 1409 C 1140.84 1381.34 1127.26 1349.72 1113.07 1321.24 C 1104.3 1303.61 1090.83 1276.45 1084.66 1258.32 C 1081.45 1248.87 1088.46 1207.82 1086.83 1197.24 C 1083.37 1174.9 1069.85 1139.98 1062.11 1117.9 C 1079.19 1077.94 1095.99 1037.86 1112.5 997.654 z" fill="rgb(245,158,11)" transform="translate(0,0)"></path>
<path d="M 384.042 704.05 C 394.092 707.2 419.662 721.961 430.665 727.971 C 453.509 740.536 476.474 752.879 499.558 764.997 C 504.499 767.632 520.17 775.718 522.783 779.629 C 533.495 795.658 542.252 817.021 549.854 834.649 L 576.54 896.688 C 581.106 907.289 593.726 934.161 596.628 943.685 C 575.832 932.183 549.18 920.48 527.292 909.922 C 507.521 900.384 481.143 887.029 461.155 879.12 L 384.042 704.05 z" fill="rgb(245,158,11)" transform="translate(0,0)"></path>
<path d="M 1661.35 705.782 C 1662.44 705.993 1661.86 705.735 1662.84 706.973 C 1661.63 711.982 1658.75 716.509 1656.63 721.204 C 1632.32 774.967 1605.35 827.789 1581.53 881.732 C 1557.17 894.149 1532.57 906.089 1507.74 917.546 C 1490.7 925.455 1470.36 934.196 1454.09 943.125 L 1452.75 942.623 C 1452.92 939.393 1459.24 926.494 1461 922.512 C 1467.82 906.944 1474.75 891.419 1481.78 875.939 C 1493.9 849.331 1505.22 822.432 1517.48 795.887 C 1525.62 778.267 1528.05 776.932 1544.64 767.975 C 1583.41 747.053 1622.72 726.94 1661.35 705.782 z" fill="rgb(245,158,11)" transform="translate(0,0)"></path>
<metadata><recraft-signature>{"signed_by": "recraft", "signature_b64": "V4jWdvNUT+MKRbb/hnunbdw9Pku/0yQMH8ILXAVUDN+MqygZP7N9arnknifOXfaNkiRCT9jHX4ya5CrTFdSkAw==", "signing_algo": "Ed25519", "generation_timestamp": 1773296842, "identifier": "0fe16def-4bc9-45c0-8319-ac8d0856647c"}</recraft-signature></metadata></svg>