<svg xmlns="http://www.w3.org/2000/svg" height="1024" preserveAspectRatio="none" style="display: block;" version="1.1" viewBox="0 0 2048 2048" width="1024">
<path d="M 0 0 L 2048 0 L 2048 2048 L 0 2048 L 0 0 z" fill="rgb(8,9,11)" transform="translate(0,0)"></path>
<path d="M 961.959 989.426 C 971.784 988.386 992.703 988.901 1003.05 988.915 L 1075.76 988.96 L 1322.17 988.729 L 984.743 1327.18 C 911.352 1399.4 844.812 1419.54 743.5 1418.77 L 381.528 1419.19 C 401.692 1398.45 422.681 1379.6 443.508 1359.64 L 568.047 1240.04 L 659.531 1151.43 C 710.602 1101.29 755.395 1052.58 821.766 1022.96 C 870.81 1001.07 908.484 993.184 961.959 989.426 z" fill="rgb(213,96,3)" transform="translate(0,0)"></path>
<path d="M 1036.68 1103.5 L 1049.58 1103.49 C 1008.11 1149.79 957.369 1193.96 914.504 1240.18 C 850.581 1309.1 772.308 1300.11 686.293 1299.54 L 670.492 1299.59 C 696.512 1273.93 722.749 1248.5 749.202 1223.29 C 766.129 1206.95 786.402 1186.29 804.119 1171.5 C 844.361 1137.64 893.014 1115.3 944.921 1106.84 C 971.502 1102.66 1009.04 1103.66 1036.68 1103.5 z" fill="rgb(8,9,11)" transform="translate(0,0)"></path>
<path d="M 1371.02 639.492 L 1671.46 639.641 C 1652.26 660.347 1625.22 685.437 1604.51 706.051 C 1562.28 748.655 1519.7 790.92 1476.79 832.841 C 1440.06 868.721 1398.38 913.754 1361.36 947.376 C 1311.9 949.544 1249.3 947.51 1198.76 947.608 C 1247.53 898.589 1299.16 851.021 1348.14 802.002 C 1364.64 785.49 1382.15 769.897 1398.61 753.109 L 1379.88 753.466 C 1362.94 753.669 1344.61 753.762 1327.87 755.702 C 1270.14 762.392 1210.12 786.851 1165.55 824.288 C 1149.86 837.466 1132.06 856.304 1117.28 871.211 L 1042.56 947.24 L 881.802 947.912 C 934.046 897.178 984.426 844.49 1037.47 794.598 C 1059.07 774.278 1078.31 753.024 1101.49 734.196 C 1163.21 684.972 1237.09 653.35 1315.32 642.676 C 1335.21 640.097 1350.92 639.773 1371.02 639.492 z" fill="rgb(213,96,3)" transform="translate(0,0)"></path>
<path d="M 410.954 1319.6 C 428.799 1287.41 444.562 1253.1 461.806 1220.54 C 468.385 1208.12 476.82 1189.51 484.772 1178.8 C 488.734 1173.47 502.612 1160.57 508.331 1155.04 C 522.557 1141.48 536.646 1127.77 550.594 1113.91 L 733.6 934.914 L 901.561 769.847 C 1000.49 672.741 1026.78 631.924 1177.48 636.227 C 1093.58 664.163 1057.02 692.117 995.45 752.818 L 936.832 810.512 L 729.139 1014.12 L 520.018 1217.95 L 451.637 1283.63 C 439.79 1295.04 423.667 1309.89 412.906 1322.02 L 410.954 1319.6 z" fill="rgb(213,96,3)" transform="translate(0,0)"></path>
<path d="M 410.954 1319.6 L 412.906 1322.02 C 412.677 1322.28 409.608 1326.66 408.501 1325.38 C 408.058 1324.86 408.949 1323.26 409.239 1322.73 L 410.954 1319.6 z" fill="rgb(186,90,10)" transform="translate(0,0)"></path>
<metadata><recraft-signature>{"signed_by": "recraft", "signature_b64": "yDU9uFri5nhKjdHk2DAKjcdDIJc76MmxpzBl1YbpXGJwsrtwvrJPNEfbU61QUw1VxNabH52sF0yOWLbhTfQyDQ==", "signing_algo": "Ed25519", "generation_timestamp": 1773297076, "identifier": "63de9453-5461-41b1-be6a-8fddf3503b7b"}</recraft-signature></metadata></svg>