<svg xmlns="http://www.w3.org/2000/svg" height="1024" preserveAspectRatio="none" style="display: block;" version="1.1" viewBox="0 0 2048 2048" width="1024">
<path d="M 0 0 L 2048 0 L 2048 2048 L 0 2048 L 0 0 z" fill="rgb(14,15,16)" transform="translate(0,0)"></path>
<path d="M 441.465 1211.78 L 846.281 812.127 L 968.659 691.569 C 988.705 671.722 1017.35 641.585 1038.41 624.297 C 1050.94 614.011 1085.93 593.367 1100.87 583.8 C 1150.2 552.35 1199.74 521.223 1249.49 490.421 L 1609.22 263.856 C 1673.93 223.191 1745.23 181.033 1808.01 138.403 C 1788.26 162.834 1769.14 188.89 1750.12 213.951 L 1687.88 294.837 L 1480.8 564.549 L 1398.61 671.769 C 1381.91 693.741 1360.64 723.662 1343.11 743.837 C 1323.47 766.441 1292.21 794.282 1270.45 815.811 L 1119.93 963.715 C 1096.23 986.884 1064.62 1016.06 1042.33 1039.84 C 1077.57 1072.01 1112.61 1105.95 1147.97 1138.54 C 1118.54 1167.03 1089.29 1195.71 1060.23 1224.57 C 1013.5 1269.87 967.067 1315.48 920.944 1361.4 L 920.676 1605.13 L 855.652 1669.82 C 836.218 1689.24 816.434 1709.68 796.459 1728.37 L 796.132 1423.78 C 796.153 1385.82 795.573 1345.95 796.334 1308.16 C 834.025 1271.58 871.411 1234.69 908.488 1197.5 C 924.544 1181.69 951.369 1157.09 965.747 1141.01 C 932.47 1108.45 898.706 1076.39 864.467 1044.85 C 914.77 996.131 964.612 946.937 1013.99 897.277 L 1171.21 741.909 L 1264.13 649.616 C 1271.48 642.343 1301.92 611.488 1308.61 606.517 L 1305.93 605.169 L 1158.54 698.744 C 1134.55 713.962 1108.5 729.847 1085.37 746.297 C 1077.06 752.208 1062.04 767.912 1054.28 775.62 L 1011.63 817.729 L 864.672 963.222 L 703.658 1122.5 C 684.503 1141.12 665.449 1159.84 646.498 1178.66 C 637.072 1187.98 626.125 1198.17 617.362 1207.89 C 656.866 1245.74 696.751 1283.19 737.009 1320.24 L 736.902 1782.7 C 697.689 1821.71 653.9 1863.58 616.069 1903.25 C 617.019 1791.49 617.311 1679.73 616.944 1567.96 L 616.91 1445.34 C 616.898 1425.2 617.581 1398.33 616.462 1378.68 L 496.506 1265.21 C 479.624 1249.09 456.846 1228.39 441.465 1211.78 z" fill="rgb(204,97,2)" transform="translate(0,0)"></path>
<path d="M 1305.93 605.169 L 1307.62 604.16 C 1312.11 601.291 1310.43 604.188 1308.61 606.517 L 1305.93 605.169 z" fill="rgb(40,11,2)" transform="translate(0,0)"></path>
<metadata><recraft-signature>{"signed_by": "recraft", "signature_b64": "5FcgsG+muxXg1qRgeSo+sV1s0OxXSYqWpwNsHafkVFsXkYdY+UTVYRbOYRtzG2wAxPcRqEdhyj6UcsURRx5DBA==", "signing_algo": "Ed25519", "generation_timestamp": 1773297075, "identifier": "a25834e4-c1b7-4711-9062-221e97fe7ed1"}</recraft-signature></metadata></svg>