<svg xmlns="http://www.w3.org/2000/svg" height="1024" preserveAspectRatio="none" style="display: block;" version="1.1" viewBox="0 0 2048 2048" width="1024">
<path d="M 0 0 L 2048 0 L 2048 2048 L 0 2048 L 0 0 z" fill="rgb(27,22,21)" transform="translate(0,0)"></path>
<path d="M 678.359 520.444 C 709.016 519.047 748.304 520.107 779.493 520.105 L 968.046 520.096 L 1085.05 520.169 C 1108.72 520.202 1142.36 519.269 1165.11 522.87 C 1206.62 529.577 1245.41 547.807 1277.06 575.484 C 1301.47 596.591 1320.1 624.67 1339.3 650.592 L 1395.43 725.99 C 1439.98 786.172 1488.09 847.803 1531.61 908.219 C 1492.26 909.444 1449.54 908.863 1410.03 908.905 L 1208.92 908.754 L 1128.24 908.286 C 1103.23 908.181 1075.22 907.574 1050.78 912.208 C 1021.88 917.93 994.743 930.387 971.567 948.568 C 931.884 978.898 906.018 1023.87 899.756 1073.42 C 895.678 1106.45 900.79 1139.97 914.53 1170.28 C 932.713 1211.04 983.49 1268.52 1013.81 1305.83 C 1038.33 1336.3 1062.56 1367.01 1086.49 1397.95 C 1032.39 1387.71 993.723 1364.88 943.676 1343.36 C 924.918 1335.3 895.812 1322.97 879.108 1313.49 C 862.743 1304.27 847.534 1293.13 833.801 1280.31 C 813.88 1261.49 799.41 1240.35 782.947 1218.61 L 726.764 1144.66 C 684.758 1090.44 642.132 1034.04 601.08 978.998 L 682.635 979.082 C 698.363 979.121 725.213 980.059 739.939 977.18 C 752.546 974.738 764.488 969.638 774.97 962.219 C 792.576 949.685 804.356 930.557 807.627 909.195 C 809.61 896.048 807.709 882.607 802.158 870.525 C 795.833 856.392 773.152 828.243 763.036 814.926 C 747.44 794.46 732.114 773.789 717.063 752.918 L 1222.15 753.036 C 1220.64 750.956 1219.11 748.896 1217.55 746.856 C 1206.43 732.386 1171.13 685.173 1153.07 683.61 C 1139.58 682.442 1110.62 682.811 1095.54 682.841 L 996.379 682.955 L 700.304 682.682 C 680.697 682.859 664.195 686.36 650.492 701.005 C 615.498 738.404 640.29 765.202 663.169 795.208 L 701.925 846.672 C 710.291 857.631 719.359 868.607 726.675 880.212 C 735.248 893.813 729.887 907.351 712.82 908.025 C 693.127 908.803 673.602 908.693 653.921 908.713 C 619.52 908.89 585.118 908.779 550.719 908.379 C 518.354 865.7 488.904 845.012 473.208 791.841 C 468.304 775.397 465.483 758.403 464.809 741.257 C 460.199 616.426 555.944 524.358 678.359 520.444 z" fill="rgb(245,158,11)" transform="translate(0,0)"></path>
<path d="M 1082.27 975.382 C 1088.2 974.558 1102.66 974.811 1109.21 974.824 L 1155.51 974.948 L 1308.93 975.301 C 1322.5 991.958 1336.66 1011.7 1349.67 1029.1 C 1367.43 1052.66 1385.07 1076.32 1402.57 1100.08 C 1314.55 1102.35 1219.72 1100.36 1131.29 1100.32 C 1142.9 1117.28 1157.39 1135.76 1169.86 1152.37 C 1192.38 1182.9 1215.17 1213.23 1238.23 1243.34 C 1257.13 1268.51 1275.39 1294.55 1294.38 1319.9 C 1342.27 1383.09 1389.67 1446.65 1436.58 1510.58 C 1459.87 1540.93 1482.76 1571.59 1505.25 1602.54 C 1485.94 1592.68 1464.03 1584.25 1444.21 1575.17 C 1392.12 1550.91 1339.8 1527.14 1287.26 1503.87 C 1264.87 1493.77 1240.36 1483.52 1218.9 1471.91 C 1215.41 1470.03 1194.42 1441.13 1190.75 1436.21 L 1131.61 1356.52 L 1031.41 1222.36 C 1015.17 1200.59 996.921 1177.67 982.174 1155.44 C 955.649 1115.45 960.178 1062.37 989.813 1025.57 C 1014.61 994.785 1043.56 979.69 1082.27 975.382 z" fill="rgb(245,158,11)" transform="translate(0,0)"></path>
<metadata><recraft-signature>{"signed_by": "recraft", "signature_b64": "vjbMjI+4owmZgWf4N0Jlu2sgElzEqJWdfz6OMWjNMJLGJeAotc2CslubpbOt/+eGH+BM3c6eWFujfXeub/lDAw==", "signing_algo": "Ed25519", "generation_timestamp": 1773297075, "identifier": "ac0f65be-5481-47b5-9cdf-8912ae6a4bdc"}</recraft-signature></metadata></svg>