<svg xmlns="http://www.w3.org/2000/svg" height="1024" preserveAspectRatio="none" style="display: block;" version="1.1" viewBox="0 0 2048 2048" width="1024">
<path d="M 0 0 L 2048 0 L 2048 2048 L 0 2048 L 0 0 z" fill="rgb(22,21,21)" transform="translate(0,0)"></path>
<path d="M 949.694 454.949 L 1923.01 454.951 L 1814.54 561.946 C 1790.11 586.124 1762.96 614.147 1737.64 636.767 C 1704.26 635.611 1666.84 636.286 1633.27 636.255 L 1450.13 636.169 L 1003.82 636.367 C 974.869 664.233 944.078 695.809 915.408 724.234 L 693.057 944.045 C 710.434 962.674 738.604 984.956 757.89 1004.47 C 812.893 951.555 868.497 893.908 922.272 839.552 L 1033.91 728.691 L 1142.5 728.694 L 1467.59 728.737 C 1523.73 728.716 1584.99 729.664 1640.74 728.342 C 1634.06 735.852 1621.78 747.008 1614.25 754.394 L 1554.07 813.081 L 1494.94 871.5 C 1481.98 884.355 1466.65 900.233 1452.74 911.664 C 1442.37 910.453 1420.71 910.962 1409.81 910.964 L 1334.61 910.995 L 1084.43 911.027 C 1075.8 918.841 1064.66 930.69 1056.23 939.166 L 1002.66 992.918 L 842.546 1152.78 C 814.498 1180.74 784.422 1212.22 755.565 1238.95 C 726.551 1210.56 695.74 1182.29 666.269 1154.16 C 616.051 1106.04 566.285 1057.46 516.979 1008.4 C 496.265 987.686 470.955 965.558 452.008 944.544 C 494.14 905.98 537.346 860.953 577.946 820.584 L 801.619 600.112 L 892.944 510.153 C 911.514 491.883 930.572 472.398 949.694 454.949 z" fill="rgb(245,158,11)" transform="translate(0,0)"></path>
<path d="M 314.676 805.899 C 314.726 805.952 314.797 805.99 314.824 806.057 C 317.269 811.88 308.045 913.655 307.072 929.568 C 330.548 954.405 366.18 985.819 391.832 1010.12 L 528.351 1140.77 C 603.901 1212.37 679.538 1289.48 756.695 1358.91 C 880.57 1240.8 1000.98 1116.23 1124.85 998.057 L 1365.47 997.942 C 1349.07 1015.71 1327.06 1035.33 1309.44 1052.93 L 1151.72 1209.15 L 884.476 1472.46 L 797.197 1558.99 C 784.101 1571.82 769.043 1587.2 755.456 1599.04 C 730.04 1572.54 695.848 1541.46 668.559 1515.21 C 617.625 1465.39 566.23 1416.04 514.381 1367.17 L 123.963 992.499 C 154.255 961.749 186.655 931.156 217.518 900.741 C 248.848 869.867 282.147 835.101 314.676 805.899 z" fill="rgb(245,158,11)" transform="translate(0,0)"></path>
<metadata><recraft-signature>{"signed_by": "recraft", "signature_b64": "prIX9Nq0LjJl5uW7BAMTgHbI76fLR3IbaYAt/LUqivGUSw+X2Bq7sIEKeGErNhjixkszC77UL8b+Gk5Ug+ERBg==", "signing_algo": "Ed25519", "generation_timestamp": 1773297075, "identifier": "021f2bd9-924c-4ff6-ae02-603374f84144"}</recraft-signature></metadata></svg>