<svg xmlns="http://www.w3.org/2000/svg" height="1024" preserveAspectRatio="none" style="display: block;" version="1.1" viewBox="0 0 2048 2048" width="1024">
<path d="M 0 0 L 2048 0 L 2048 2048 L 0 2048 L 0 0 z" fill="rgb(37,35,37)" transform="translate(0,0)"></path>
<path d="M 1209.15 575.511 C 1273.2 546.022 1338.74 518.796 1403.31 490.364 C 1410.47 487.208 1418.13 483.777 1425.44 481.037 C 1309.85 623.22 1197.41 774.468 1085.06 919.847 C 1007.8 1019.22 931.484 1119.32 856.115 1220.14 C 812.234 1279.53 765.266 1343.95 724.975 1405.63 L 725.44 1409.35 C 747.211 1387.12 778.273 1359.54 801.34 1337.54 C 852.335 1288.82 902.618 1239.36 952.171 1189.17 C 989.69 1150.74 1019.8 1113.41 1055.64 1074.2 L 1254.09 858.925 C 1278.07 832.532 1306.32 801.845 1328.2 773.924 C 1378.89 709.223 1435.21 650.938 1488.61 588.642 C 1494.29 582.012 1501.02 573.537 1507.34 567.749 C 1503.69 580.645 1498.72 593.228 1494.91 606.071 C 1470.87 687.303 1443.33 767.697 1420.06 849.119 C 1377.27 853.98 1363.62 870.508 1336.34 902.739 C 1324.9 916.247 1313.26 930.194 1301.86 943.798 L 1177.23 1094.74 C 1227.45 1071.6 1277.1 1039.8 1323.62 1010.07 C 1385.06 970.81 1445.16 929.159 1505.83 888.699 C 1482.13 945.337 1456.93 1006.49 1431.01 1061.89 C 1377.43 1096.23 1318.65 1128.92 1264.31 1162.87 L 1035.31 1305.65 C 1008.52 1322.31 981.962 1340.36 955 1356.44 L 955.002 1360.03 L 1159.54 1273.88 C 1201.08 1256.46 1251.52 1236.86 1291.56 1217.67 C 1295.09 1208.73 1298.52 1199.74 1301.84 1190.72 C 1332.27 1203.89 1363.69 1215.04 1393.48 1228.03 C 1356.23 1243.88 1317.58 1258.48 1279.95 1273.56 L 1121.5 1337.98 C 1059.45 1363.15 992.94 1392.88 930.888 1416.08 L 931.508 1417.68 C 974.56 1403.82 1030.05 1389.81 1074 1378.29 C 1115.93 1367.06 1157.79 1355.55 1199.57 1343.75 C 1200.08 1368.42 1199.87 1394.61 1199.56 1419.49 C 1199.25 1445.08 1201.85 1476.13 1196.01 1500.57 C 1193.05 1512.96 1183.68 1527.53 1174.83 1536.44 C 1154.8 1556.6 1133.32 1562.65 1105.7 1562.6 C 992.612 1562.36 879.512 1562.29 766.451 1562.25 L 672.446 1562.4 C 631.854 1562.7 597.524 1568.44 566.334 1537.45 C 535.837 1507.16 539.865 1479.61 539.925 1440.57 L 540.056 1349.46 L 539.807 1037.76 C 539.961 1004.76 542.566 984.599 567.728 959.999 C 598.252 930.156 633.732 935.187 672.004 935.521 L 736.516 935.754 C 720.179 1037.05 703.042 1138.22 685.107 1239.25 L 688.766 1240.27 C 698.156 1200.33 711.116 1158.75 721.811 1118.98 L 781.731 893.531 L 816.798 757.016 C 823.146 731.406 829.953 698.823 837.778 674.248 C 840.599 679.512 843.103 684.92 845.508 690.385 C 858.023 718.826 872.307 746.477 884.407 775.101 C 875.086 782.731 863.216 791.478 854.625 799.415 L 740.894 1204.66 L 743.379 1208.04 C 754.895 1181.21 765.317 1153.9 776.508 1126.93 C 796.36 1080.37 815.94 1033.7 835.248 986.921 C 885.941 867.97 933.497 747.707 977.867 626.256 C 1002.65 613.039 1029.05 602.286 1054.11 589.485 C 1080.11 576.203 1106.72 564.262 1132.56 550.636 C 1122.21 574.888 1107.15 604.377 1095.56 628.423 C 1055.74 711.084 1015.02 788.231 982.064 874.039 C 982.889 875.462 983.722 876.881 984.562 878.296 C 1051.22 805.265 1118.44 732.671 1177.24 653.014 C 1197.25 625.898 1206.93 609.548 1209.15 575.511 z" fill="rgb(250,92,3)" transform="translate(0,0)"></path>
<path d="M 685.107 1239.25 L 688.766 1240.27 C 686.117 1249.08 682.848 1260.31 681.058 1269.3 L 679.552 1268.12 C 680.623 1262.45 681.854 1256.62 682.875 1250.97 L 685.107 1239.25 z" fill="rgb(30,14,10)" transform="translate(0,0)"></path>
<path d="M 740.894 1204.66 L 743.379 1208.04 C 742.061 1211.12 733.269 1234.23 731.598 1235.19 L 731.543 1235.18 C 731.439 1234.91 740.018 1206.92 740.894 1204.66 z" fill="rgb(84,23,6)" transform="translate(0,0)"></path>
<path d="M 941.353 1364.67 C 942.687 1363.92 943.693 1363.33 945.008 1362.49 C 948.307 1360.42 951.638 1358.41 955 1356.44 L 955.002 1360.03 C 950.42 1362.02 945.878 1364.09 941.38 1366.27 C 941.371 1365.74 941.362 1365.21 941.353 1364.67 z" fill="rgb(84,23,6)" transform="translate(0,0)"></path>
<path d="M 681.058 1269.3 C 680.539 1271.47 676.978 1286.23 675.521 1286.92 C 675.584 1286.66 675.647 1286.39 675.71 1286.13 L 675.297 1286.38 C 676.247 1285.28 676.037 1284.76 677.013 1283.78 L 675.618 1282.76 C 677.728 1279.6 677.494 1272.01 679.552 1268.12 L 681.058 1269.3 z" fill="rgb(170,53,7)" transform="translate(0,0)"></path>
<path d="M 977.943 884.912 C 979.348 881.166 980.54 877.778 982.064 874.039 C 982.889 875.462 983.722 876.881 984.562 878.296 C 982.49 880.624 980.189 882.748 977.943 884.912 z" fill="rgb(30,14,10)" transform="translate(0,0)"></path>
<path d="M 931.508 1417.68 C 929.902 1418.33 928.31 1419.05 926.678 1419.65 C 926.305 1419.79 920.398 1422.09 920.64 1419.94 C 921.084 1419.39 930.05 1416.33 930.888 1416.08 L 931.508 1417.68 z" fill="rgb(170,53,7)" transform="translate(0,0)"></path>
<path d="M 724.975 1405.63 L 725.44 1409.35 C 724.616 1410.14 721.812 1413.01 721.259 1413.22 C 717.649 1414.63 724.612 1406.13 724.975 1405.63 z" fill="rgb(84,23,6)" transform="translate(0,0)"></path>
<path d="M 941.38 1366.27 C 940.639 1366.71 939.886 1367.43 939.091 1366.81 C 938.742 1365.49 940.463 1365 941.353 1364.67 C 941.362 1365.21 941.371 1365.74 941.38 1366.27 z" fill="rgb(216,77,9)" transform="translate(0,0)"></path>
<metadata><recraft-signature>{"signed_by": "recraft", "signature_b64": "/X7uMTCxKW93FNt2kfD+LAPoEE4KwzD62GnffwaXkmyJJceCwkX1pxz1eTquxgepgcfePS2h3fQyn+4hgefpCQ==", "signing_algo": "Ed25519", "generation_timestamp": 1773297094, "identifier": "e4826cbb-deff-43fc-83b4-160982f2804f"}</recraft-signature></metadata></svg>