<svg xmlns="http://www.w3.org/2000/svg" height="1024" preserveAspectRatio="none" style="display: block;" version="1.1" viewBox="0 0 2048 2048" width="1024">
<path d="M 0 0 L 2048 0 L 2048 2048 L 0 2048 L 0 0 z" fill="rgb(37,36,37)" transform="translate(0,0)"></path>
<path d="M 847.026 1085.2 C 866.104 1084.44 941.272 1119.75 963.196 1129.1 L 1128.5 1199.03 L 1289.66 1266.81 C 1319.14 1279.24 1353.49 1292.73 1381.89 1306.6 C 1389.12 1310.14 1395.68 1314.89 1401.29 1320.66 C 1414.87 1334.54 1416.36 1345.25 1416.37 1364.24 C 1416.38 1376.64 1416.36 1389.31 1416.39 1401.73 L 1416.47 1502.63 L 1081.95 1502.07 C 1052.59 1502.01 1023.23 1502.1 993.874 1502.33 C 972.966 1502.52 949.021 1503.21 928.409 1502.17 C 935.266 1494.18 943.038 1487.04 949.805 1478.47 C 973.727 1448.19 982.395 1422.33 986.238 1384.96 L 1127.5 1385.01 C 1175.61 1384.96 1225.38 1385.58 1273.31 1384.76 L 1032.79 1282.65 C 1008.26 1272.33 975.613 1256.97 949.705 1249.08 C 944.677 1248.77 936.501 1251.59 933.426 1255.21 C 924.295 1265.98 927.44 1291.91 927.452 1305.68 C 927.511 1332.76 927.419 1359.85 927.177 1386.93 C 926.335 1437.98 901.252 1483.73 848.772 1499.01 C 835.045 1501.94 819.808 1502.19 805.874 1502.03 C 749.162 1501.36 691.814 1503.12 635.171 1502.08 C 646.863 1490.98 668.129 1475.34 681.394 1465.15 L 760.601 1404.48 C 770.845 1396.64 808.257 1371.17 809.943 1358.79 C 811.728 1345.69 810.954 1321.28 810.927 1307.01 L 810.733 1181.35 C 810.713 1167.12 810.969 1151.92 810.683 1137.77 C 810.102 1109.06 816.882 1092.18 847.026 1085.2 z" fill="rgb(245,158,11)" transform="translate(0,0)"></path>
<path d="M 929.434 548.163 L 1232.5 548.478 L 1321.47 548.347 C 1337.42 548.334 1364.76 546.741 1379.5 550.384 C 1410.63 558.074 1426.33 590.297 1420.6 619.467 C 1412.55 650.007 1382.77 668.192 1358.89 685.714 C 1337.58 701.346 1316.1 716.764 1294.47 731.966 L 1163.1 826.4 L 975.747 960.751 C 954.451 975.942 933.067 991.007 911.594 1005.95 C 896.956 1016.32 872.248 1037.41 855.236 1039.16 C 844.602 1040.29 833.963 1037.08 825.724 1030.26 C 820.077 1025.55 812.636 1014.85 811.938 1007.95 C 809.771 986.53 810.686 959.718 810.684 938.259 L 810.863 765.727 L 810.942 715.215 C 810.962 704.365 812.858 677.894 804.879 670.925 C 780.617 649.735 750.678 632.469 724.486 613.537 C 694.332 591.741 662.675 571.832 633.605 548.649 L 830.66 548.49 C 899.475 549.026 929.429 618.032 927.061 678.045 C 926.509 692.039 927.105 708.757 927.278 722.91 C 927.904 774.207 926.696 825.64 927.574 876.909 C 933.852 866.882 941.554 857.821 950.439 850.01 C 968.334 834.089 1006.03 808.757 1026.87 793.89 C 1089.24 749.121 1152.88 706.153 1217.71 665.04 C 1141.17 664.017 1062.43 664.662 985.872 664.81 C 983.986 613.665 969.055 580.556 929.434 548.163 z" fill="rgb(245,158,11)" transform="translate(0,0)"></path>
<path d="M 1401.6 1260.58 C 1362.95 1246.17 1325.63 1229.68 1287.59 1213.75 L 1123.88 1145.24 L 1025.1 1103.46 C 1006.32 1095.53 987.208 1087.73 968.896 1078.76 C 965.916 1077.3 961.76 1073.38 960.245 1070.4 C 952.295 1054.79 956.905 1037.95 970.732 1027.55 C 981.667 1019.49 993.002 1011.88 1004.16 1004.11 L 1068.01 959.311 C 1142.73 906.515 1217.92 854.383 1293.56 802.922 C 1385.9 739.328 1479.13 677.027 1573.21 616.039 L 1647.37 568.146 C 1660.07 559.795 1680.09 545.422 1692.84 538.698 C 1680.98 550.367 1659.31 567.174 1646.16 578.298 C 1614.54 605.041 1582.11 631.144 1550.68 658.153 L 1139.99 1006.06 L 1141.81 1007.68 C 1216.34 965.284 1291.51 918.608 1365.38 874.733 C 1398.19 855.25 1444.11 828.937 1474.67 807.572 L 1476.28 809.412 L 1282.09 987.066 C 1251.81 1014.77 1219.41 1042.4 1189.93 1070.72 L 1191.94 1073.08 C 1208.27 1064.74 1227.25 1052.78 1243 1043.28 C 1266.65 1029.01 1290.4 1014.92 1314.25 1001 C 1363.12 973.012 1411.59 944.339 1459.65 914.984 C 1476.17 904.98 1492.98 895.786 1509.17 885.244 L 1511.06 886.829 C 1488.12 905.766 1463.14 929.267 1440.58 949.379 L 1243.51 1127.41 L 1245.25 1129.27 C 1323.13 1086.9 1404.83 1048.84 1483.74 1006.22 C 1488.03 1003.4 1491.64 1001.45 1496.12 999.032 C 1492.05 1002.96 1489.01 1005.88 1484.53 1009.44 C 1422.45 1065.63 1360.71 1122.18 1299.29 1179.08 C 1312.44 1173.22 1325.04 1166.38 1337.83 1159.79 C 1411.63 1121.8 1483.52 1083.62 1554.72 1040.83 L 1556.48 1042.22 C 1546.79 1048.61 1522.92 1072.26 1512.53 1081.6 C 1464.61 1125.21 1417.2 1169.39 1370.33 1214.13 C 1399.1 1201.2 1423.46 1187.94 1451.28 1173.09 C 1492.26 1151.72 1532.49 1128.96 1571.92 1104.84 C 1594.97 1090.79 1623.87 1069.61 1646.15 1057.46 C 1636.58 1066.9 1617.21 1082.05 1606.18 1091.17 L 1529.97 1154.19 L 1443.43 1226.65 C 1430.5 1237.36 1414.91 1251.1 1401.6 1260.58 z" fill="rgb(245,158,11)" transform="translate(0,0)"></path>
<path d="M 1189.93 1070.72 L 1191.94 1073.08 C 1187.56 1076.18 1182.95 1078.48 1178.25 1081.02 C 1181.16 1078.28 1186.78 1072.83 1189.93 1070.72 z" fill="rgb(97,40,10)" transform="translate(0,0)"></path>
<path d="M 1139.99 1006.06 L 1141.81 1007.68 C 1137.93 1010.34 1133.56 1012.65 1129.44 1014.96 C 1132.73 1012.09 1136.56 1008.66 1139.99 1006.06 z" fill="rgb(97,40,10)" transform="translate(0,0)"></path>
<path d="M 1243.51 1127.41 L 1245.25 1129.27 C 1238.89 1133.18 1236.71 1132.54 1243.51 1127.41 z" fill="rgb(97,40,10)" transform="translate(0,0)"></path>
<path d="M 632.047 606.514 C 640.553 611.523 649.344 618.142 657.498 623.898 C 681.916 641.136 706.539 657.887 730.806 675.357 C 736.835 679.697 745.163 685.752 746.102 693.781 C 747.779 708.128 747.279 722.265 747.317 736.71 L 747.488 799.243 C 747.847 875.703 747.719 952.165 747.103 1028.62 L 747.303 1240.61 L 747.436 1305.48 C 747.472 1318.4 747.926 1333.83 746.841 1346.52 C 739.815 1358.53 710.616 1379.15 698.56 1388.57 C 676.297 1405.18 654.123 1421.92 632.04 1438.77 L 632.392 891.152 C 632.403 797.468 630.556 699.859 632.047 606.514 z" fill="rgb(245,158,11)" transform="translate(0,0)"></path>
<path d="M 1696.62 683.43 L 1698.03 685.182 C 1677.43 701.993 1656.76 722.87 1635.83 739.797 C 1628.75 745.516 1618.18 755.856 1610.84 760.574 C 1588.89 774.685 1563.02 785.712 1539.61 797.735 C 1552.28 785.423 1592.51 747.836 1606.43 738.442 C 1633.93 719.885 1667.6 702.466 1696.62 683.43 z" fill="rgb(245,158,11)" transform="translate(0,0)"></path>
<path d="M 1672.27 867.491 L 1674.11 868.919 C 1646.36 889.173 1613.21 924.609 1585.04 944.709 C 1572.36 953.753 1532.01 972.504 1516.19 980.445 C 1534.47 962.47 1559.53 939.779 1579.4 923.745 C 1587.76 916.993 1613.76 902.679 1623.95 896.748 C 1640.16 887.165 1656.27 877.412 1672.27 867.491 z" fill="rgb(245,158,11)" transform="translate(0,0)"></path>
<path d="M 1474.67 807.572 C 1475.39 806.984 1481.66 801.752 1482.38 803.48 C 1482.14 805.074 1477.55 808.441 1476.28 809.412 L 1474.67 807.572 z" fill="rgb(178,107,27)" transform="translate(0,0)"></path>
<path d="M 1509.17 885.244 C 1517.17 878.81 1522.41 878.059 1511.06 886.829 L 1509.17 885.244 z" fill="rgb(147,93,35)" transform="translate(0,0)"></path>
<path d="M 1696.62 683.43 C 1697.73 682.334 1701.96 678.568 1703.59 679.365 C 1704.16 680.768 1698.99 684.439 1698.03 685.182 L 1696.62 683.43 z" fill="rgb(178,107,27)" transform="translate(0,0)"></path>
<path d="M 1672.27 867.491 C 1678.45 862.657 1681.67 863.221 1674.11 868.919 L 1672.27 867.491 z" fill="rgb(147,93,35)" transform="translate(0,0)"></path>
<path d="M 1554.72 1040.83 C 1561.16 1036.2 1561.9 1038.84 1556.48 1042.22 L 1554.72 1040.83 z" fill="rgb(147,93,35)" transform="translate(0,0)"></path>
<metadata><recraft-signature>{"signed_by": "recraft", "signature_b64": "1hoHkUOxJswKkK7X2gf/17WYBYb1t6uzJaeP9fu4wZCzevjEFHg54nkKWlgNZE036Cp9w9ri/ZGNjEqqTaRzDg==", "signing_algo": "Ed25519", "generation_timestamp": 1773297095, "identifier": "83ff1299-681b-4ed4-852f-6bfc652e12f8"}</recraft-signature></metadata></svg>