<svg xmlns="http://www.w3.org/2000/svg" height="1024" preserveAspectRatio="none" style="display: block;" version="1.1" viewBox="0 0 2048 2048" width="1024">
<path d="M 0 0 L 2048 0 L 2048 2048 L 0 2048 L 0 0 z" fill="rgb(36,36,36)" transform="translate(0,0)"></path>
<path d="M 785.494 919.718 C 770.728 909.119 750.031 896.628 734.357 886.469 L 642.098 826.462 C 628.612 817.719 585.904 791.96 576.791 778.791 C 574.202 775.05 574.572 745.244 574.565 738.919 L 574.55 682.773 C 574.561 660.583 573.999 636.802 575.244 614.707 C 576.072 600.022 592.564 585.334 607.706 593.505 C 621.04 600.7 633.121 610.792 645.434 620.143 C 658.471 629.937 671.613 639.591 684.855 649.105 C 687.503 651.308 690.43 653.603 692.841 656.021 L 695.52 655.774 C 696.451 656.745 696.659 656.944 697.442 657.923 L 696.822 659.418 C 704.117 675.632 711.88 700.246 718.19 717.725 C 730.602 751.234 742.814 784.816 754.826 818.47 L 775.087 875.234 C 777.595 882.255 785.993 904.361 786.48 910.541 C 788.01 929.94 787.109 954.768 786.983 974.431 C 787.063 999.284 786.829 1024.14 786.282 1048.98 C 786.076 1057.9 785.88 1079.6 784.082 1087.22 C 779.227 1107.8 770.404 1129.26 764.565 1149.93 C 743.304 1225.18 718.121 1299.86 696.041 1374.77 C 716.819 1372.57 760.596 1373.86 783.564 1373.88 L 947.743 1373.97 L 1094.26 1373.94 C 1137.25 1373.93 1183.02 1367.95 1220.09 1393.93 C 1245.86 1411.98 1268.05 1436.76 1293.01 1454.75 L 1296.24 1453.79 C 1267.05 1420.12 1239.95 1379.08 1220.19 1332.45 C 1183.19 1245.11 1189.69 1109.75 1258.19 1038.05 C 1262.31 1033.74 1304.48 1016.05 1311.97 1012.75 C 1369.81 987.629 1427.91 963.078 1486.23 939.1 C 1463.01 960.342 1440.25 983.573 1420.42 1007.73 C 1308.74 1143.76 1326.64 1350.75 1450.06 1472.97 C 1460.68 1483.49 1472.07 1495.38 1482.01 1506.53 C 1456.95 1505.76 1428.35 1506.44 1403.05 1506.48 L 1262 1506.58 L 874.996 1506.08 L 724.483 1506.69 C 699.271 1506.82 672.21 1507.85 647.539 1506.53 C 624.794 1502.82 615.809 1477.8 627.788 1459.98 C 645.822 1433.15 668.694 1409.55 689.578 1385.31 L 686.318 1383.48 C 663.592 1401.21 640.615 1418.62 617.394 1435.71 C 611.277 1440.23 600.198 1447.69 592.563 1445.79 C 570.382 1440.27 574.507 1413.84 574.457 1397.69 L 574.354 1345.51 L 574.478 1273.79 C 574.651 1225.37 573.936 1207.05 620.618 1181 C 630.984 1175.21 644.926 1165.97 655.159 1159.45 L 768.966 1086.06 L 767.346 1084.02 C 762.901 1086.28 757.218 1088.43 752.535 1090.43 C 711.351 1107.98 670.376 1125.73 628.859 1142.52 C 615.025 1148.11 603.19 1145.73 602.022 1128.84 C 601.329 1118.83 601.808 1108.3 601.89 1098.21 L 602.044 1046.87 L 602.04 869.524 C 607.788 861.721 609.232 860.325 618.352 856.554 C 632.556 860.145 651.958 868.18 666.099 873.747 L 737.689 901.998 C 753.315 908.129 769.47 914.92 785.494 919.718 z" fill="rgb(245,158,11)" transform="translate(0,0)"></path>
<path d="M 686.318 1383.48 C 690.369 1380.1 694.501 1376.79 698.607 1373.48 C 695.446 1377.85 693.015 1381.17 689.578 1385.31 L 686.318 1383.48 z" fill="rgb(66,23,7)" transform="translate(0,0)"></path>
<path d="M 1296.24 1453.79 L 1297.43 1455.18 C 1299.56 1457.7 1300.21 1458.6 1302.67 1460.86 L 1299.84 1460.98 C 1297.59 1458.88 1295.31 1456.8 1293.01 1454.75 L 1296.24 1453.79 z" fill="rgb(66,23,7)" transform="translate(0,0)"></path>
<path d="M 774.527 1080.53 L 775.571 1082.2 C 773.12 1083.44 771.292 1084.6 768.966 1086.06 L 767.346 1084.02 C 769.754 1082.89 772.148 1081.73 774.527 1080.53 z" fill="rgb(66,23,7)" transform="translate(0,0)"></path>
<path d="M 1302.67 1460.86 C 1306.28 1465.4 1304.66 1465.66 1301.21 1462.29 L 1299.84 1460.98 L 1302.67 1460.86 z" fill="rgb(126,70,30)" transform="translate(0,0)"></path>
<path d="M 695.52 655.774 C 696.451 656.745 696.659 656.944 697.442 657.923 L 696.822 659.418 C 695.359 658.243 694.221 657.273 692.841 656.021 L 695.52 655.774 z" fill="rgb(184,94,26)" transform="translate(0,0)"></path>
<path d="M 774.527 1080.53 C 777.851 1077.99 779.393 1079.78 775.571 1082.2 L 774.527 1080.53 z" fill="rgb(126,70,30)" transform="translate(0,0)"></path>
<path d="M 1582.51 384.947 L 1583.51 387.072 C 1582.79 388.378 1582.89 388.268 1581.71 389.139 L 1399.09 595.87 C 1339.66 663.419 1280.63 731.643 1218.47 796.75 C 1124.68 894.998 1026.55 989.189 931.928 1086.69 C 921.31 1097.63 909.743 1107.79 899.396 1119.01 L 900.03 1121.99 C 1084.81 980.723 1273.89 845.175 1467.01 715.538 C 1525.97 676.006 1586.69 638.348 1646.19 599.09 L 1648.02 601.035 C 1620.98 620.525 1592.59 643.762 1566.4 664.492 L 1456.92 750.669 C 1421.96 777.95 1386.75 804.911 1351.3 831.55 C 1294.03 875.214 1236.29 918.261 1178.09 960.683 L 1180.11 963.324 C 1188.44 959.452 1208.85 952.188 1218.04 948.672 C 1254.31 933.98 1292.11 922.026 1328.26 907.171 C 1472.14 848.04 1619.56 801.235 1765.75 748.664 C 1766.33 749.436 1766.44 749.806 1766.86 750.719 L 1541.01 855.511 C 1423.68 908.378 1306 960.459 1187.97 1011.75 C 1116.8 1042.48 1043.37 1072.22 971.584 1102.26 L 905.437 1129.86 C 895.878 1133.91 882.411 1139.19 873.355 1143.79 C 911.286 1063.64 949.882 983.818 989.138 904.316 C 1050.19 779.671 1107.97 663.477 1175.15 541.816 L 1258.51 541.258 L 1088.48 825.285 C 1063.55 866.214 1038.95 907.334 1014.66 948.642 L 1016.46 950.966 C 1072.61 894.325 1128.02 834.865 1183.63 777.411 C 1243.46 715.953 1303.89 655.09 1364.93 594.833 C 1419.29 540.806 1475.89 488.771 1530.5 434.981 C 1547.58 418.154 1565.9 402.235 1582.51 384.947 z" fill="rgb(245,158,11)" transform="translate(0,0)"></path>
<path d="M 888.42 1130.06 C 892.146 1126.22 895.429 1122.63 899.396 1119.01 L 900.03 1121.99 C 896.398 1125.03 892.814 1128.12 889.28 1131.27 L 888.42 1130.06 z" fill="rgb(66,23,7)" transform="translate(0,0)"></path>
<path d="M 1178.09 960.683 L 1180.11 963.324 C 1175.61 964.994 1171.24 966.78 1166.63 968.46 C 1170.31 965.816 1174.11 962.782 1178.09 960.683 z" fill="rgb(66,23,7)" transform="translate(0,0)"></path>
<path d="M 1014.66 948.642 L 1016.46 950.966 C 1014.82 952.817 1013.61 954.135 1012.14 956.121 L 1010.52 955.431 C 1011.9 953.161 1013.25 950.898 1014.66 948.642 z" fill="rgb(66,23,7)" transform="translate(0,0)"></path>
<path d="M 889.28 1131.27 C 888.254 1132.41 883.74 1137.67 882.463 1137.27 L 882.383 1137.1 C 882.528 1135.63 887.19 1131.24 888.42 1130.06 L 889.28 1131.27 z" fill="rgb(126,70,30)" transform="translate(0,0)"></path>
<path d="M 1010.52 955.431 L 1012.14 956.121 C 1011.47 957.102 1010.08 959.657 1008.65 959.437 C 1007.85 958.242 1009.92 956.214 1010.52 955.431 z" fill="rgb(126,70,30)" transform="translate(0,0)"></path>
<path d="M 1581.71 389.139 C 1582.02 387.664 1582.08 387.696 1583.51 387.072 C 1582.79 388.378 1582.89 388.268 1581.71 389.139 z" fill="rgb(184,94,26)" transform="translate(0,0)"></path>
<path d="M 685.556 646.109 C 666.282 625.593 629.749 592.697 626.794 563.344 C 625.721 552.69 637.556 541.061 648.044 541.364 C 669.453 540.649 691.278 540.952 712.885 540.982 L 836.547 541.199 L 1010.65 541.403 C 1047.98 541.309 1090.32 540.469 1127.55 541.529 C 1113.66 575.539 1090.57 625.256 1074.19 658.93 L 808.836 658.849 L 736.852 659.009 C 728.408 659.022 704.811 659.478 697.442 657.923 C 696.659 656.944 696.451 656.745 695.52 655.774 L 692.841 656.021 C 690.43 653.603 687.503 651.308 684.855 649.105 L 685.556 646.109 z" fill="rgb(245,158,11)" transform="translate(0,0)"></path>
<path d="M 685.556 646.109 C 688.935 649.327 692.058 652.606 695.52 655.774 L 692.841 656.021 C 690.43 653.603 687.503 651.308 684.855 649.105 L 685.556 646.109 z" fill="rgb(66,23,7)" transform="translate(0,0)"></path>
<path d="M 1679.28 576.468 C 1674.08 582.665 1664.26 589.995 1657.41 594.34 L 1657.7 591.32 C 1661.17 587.8 1674.71 579.175 1679.28 576.468 z" fill="rgb(126,70,30)" transform="translate(0,0)"></path>
<path d="M 1582.51 384.947 C 1583.54 383.746 1592.51 373.359 1595.29 372.658 C 1595.33 372.646 1595.5 372.741 1595.51 372.787 C 1595.6 374.975 1591.64 378.141 1590.48 379.917 C 1588.85 382.4 1585.73 385.314 1583.51 387.072 L 1582.51 384.947 z" fill="rgb(126,70,30)" transform="translate(0,0)"></path>
<path d="M 1765.75 748.664 C 1770.52 746.013 1775.78 744.567 1780.9 742.455 L 1781.8 743.941 C 1777.04 745.967 1771.79 749.09 1766.86 750.719 C 1766.44 749.806 1766.33 749.436 1765.75 748.664 z" fill="rgb(126,70,30)" transform="translate(0,0)"></path>
<path d="M 1657.7 591.32 L 1657.41 594.34 L 1656.04 595.296 C 1655.05 595.969 1654.09 596.676 1653.13 597.389 C 1651.45 598.632 1649.74 599.848 1648.02 601.035 L 1646.19 599.09 C 1649.35 596.758 1654.33 593.512 1657.7 591.32 z" fill="rgb(184,94,26)" transform="translate(0,0)"></path>
<path d="M 1780.9 742.455 C 1782.31 741.755 1786.07 739.722 1787.62 740.413 C 1787.9 741.197 1785.73 741.197 1785.77 743.257 L 1785.7 743.375 C 1783.07 743.671 1784.7 743.064 1781.8 743.941 L 1780.9 742.455 z" fill="rgb(83,55,39)" transform="translate(0,0)"></path>
<metadata><recraft-signature>{"signed_by": "recraft", "signature_b64": "UddpZ2VVpLxkmpkNhYmNep3Bmfm3uiSbxeVFXMe2Mlt4ZEqgLSVEtimyzIWFDGmZWJ2f/JP9txe8MeIaKacsCA==", "signing_algo": "Ed25519", "generation_timestamp": 1773297094, "identifier": "b09c36d6-6d77-4ac1-a77d-15e327effea7"}</recraft-signature></metadata></svg>