<svg xmlns="http://www.w3.org/2000/svg" height="1024" preserveAspectRatio="none" style="display: block;" version="1.1" viewBox="0 0 2048 2048" width="1024">
<path d="M 0 0 L 2048 0 L 2048 2048 L 0 2048 L 0 0 z" fill="rgb(38,36,36)" transform="translate(0,0)"></path>
<path d="M 1611.75 429.848 L 1613.12 432.268 C 1596.48 449.964 1577.14 474.206 1561.03 493.146 C 1529.54 530.191 1497.76 566.992 1465.69 603.545 C 1366.17 715.827 1262.99 824.803 1156.3 930.295 L 1158.51 932.497 C 1237.02 866.246 1313.75 798.403 1393.63 733.592 C 1457.41 681.847 1525.76 631.716 1587.54 577.963 C 1582.46 586.001 1568.54 600.004 1561.64 607.193 L 1520.81 649.622 C 1432.38 742.563 1340.21 831.867 1244.51 917.312 C 1215.49 943.593 1184.37 973.801 1154.81 998.783 L 1157.11 1000.57 C 1238.52 936.652 1321.16 874.324 1405 813.626 L 1550.8 709.453 L 1552.29 711.259 C 1487.3 774.464 1420.76 836.065 1352.75 896.006 C 1292.78 947.21 1231.7 997.108 1169.57 1045.67 L 1170.95 1048.1 C 1286.67 971.215 1403.26 895.653 1520.7 821.425 L 1522.04 823.142 C 1462.52 871.65 1408.57 920.581 1346.46 968.008 C 1322.56 985.928 1298.42 1003.5 1274.01 1020.72 C 1253.38 1035.56 1233.39 1050.47 1212.42 1064.91 C 1191.19 1079.53 1168.59 1093.25 1147.71 1108.06 L 1148.02 1111.08 L 1486.97 922.915 L 1487.97 925.114 C 1418 978.3 1345.87 1028.59 1271.78 1075.86 C 1221.42 1107.68 1168.32 1137.5 1116.42 1166.78 L 1117.74 1169.51 L 1451.99 1012.45 L 1452.7 1015.21 C 1443.76 1020.55 1434.87 1026.06 1426.07 1031.63 C 1361.03 1072.83 1295.29 1110.8 1227.6 1147.48 C 1202.84 1160.84 1177.75 1173.59 1152.37 1185.71 C 1146.36 1188.59 1115.92 1202.47 1111.62 1205.42 L 1111.24 1208.36 C 1213.38 1166.76 1316.17 1126.8 1419.58 1088.5 L 1419.41 1091.24 C 1401.17 1098.59 1376.96 1112.5 1359.07 1121.92 C 1334.83 1134.38 1310.47 1146.59 1285.99 1158.54 C 1221.93 1189.77 1154.24 1216.99 1088.18 1243.57 C 1063.57 1234.56 1029.58 1225.22 1004.14 1217.7 C 959.264 1204.54 914.608 1190.66 870.185 1176.06 C 862.385 1098.08 852.157 1017.32 845.74 939.65 C 844.379 937.244 844.869 933.726 845.119 931.009 C 847.31 927.849 846.886 927.45 848.438 923.769 C 850.232 919.737 852.667 912.097 854.446 908.924 L 856.086 910.136 C 857.92 904.7 864.425 891.059 867.097 885.372 C 890.779 838.104 914.219 787.443 941.433 742.151 C 963.759 704.996 992.917 666.07 1017.72 630.488 C 1029.76 613.202 1044.76 589.18 1057.1 573.447 C 1034.73 622.172 1011.26 670.382 986.698 718.04 L 900.149 891.258 L 902.825 893.19 C 936.038 834.314 971.712 771.225 1011.14 716.42 C 1051.05 660.95 1097.06 606.899 1139.13 552.928 C 1138.91 554.987 1138.71 557.047 1138.52 559.109 C 1124.02 585.916 1106.6 613.076 1091.13 639.746 C 1042.41 723.055 992.577 805.713 941.652 887.697 L 943.855 889.797 C 960.514 867.613 975.779 843.933 992.287 821.611 C 1029.57 771.19 1066.95 721.666 1107.57 673.866 C 1149.05 625.051 1193.93 578.888 1234.66 529.55 L 1236.34 531.466 C 1189.83 603.192 1142.15 674.158 1093.34 744.337 C 1065.71 784.082 1036.7 827.063 1007.88 865.702 L 1009.26 868.858 C 1060.23 809.199 1108.09 750.07 1161.35 692.062 C 1221.4 626.658 1282.69 564.122 1344.72 500.686 L 1346.01 503.128 C 1323.65 531.64 1300.55 564.486 1278.76 593.859 C 1253.3 627.834 1227.53 661.583 1201.47 695.1 L 1110.44 811.394 C 1095.09 830.718 1077.44 851.656 1062.8 871.116 L 1063 875.155 C 1090.39 845.346 1117.15 818.534 1145.31 789.646 C 1202.17 731.046 1259.78 673.192 1318.15 616.097 C 1353.72 580.812 1389.73 545.977 1426.17 511.601 C 1437.8 500.625 1455.21 482.461 1466.62 473.088 C 1458.26 486.373 1443.47 504.155 1433.42 516.92 L 1377.65 587.381 C 1293.23 692.182 1205.88 794.584 1115.7 894.466 L 1116.94 897.227 C 1205.03 811.322 1294.16 726.487 1384.31 642.743 L 1544.72 493.518 C 1567.02 472.399 1590.25 451.748 1611.75 429.848 z" fill="rgb(245,158,11)" transform="translate(0,0)"></path>
<path d="M 1007.88 865.702 L 1009.26 868.858 C 1008.27 870.497 1006.69 872.36 1005.47 873.876 L 998.299 882.615 C 997.69 883.392 997.081 884.17 996.473 884.948 L 988.458 894.924 C 985.555 898.585 978.311 907.092 976.302 911.001 L 974.351 910.786 C 976.475 908.39 979.339 903.985 981.307 901.289 L 988.157 892.07 C 994.645 883.296 1001.28 874.382 1007.88 865.702 z" fill="rgb(73,28,8)" transform="translate(0,0)"></path>
<path d="M 900.149 891.258 L 902.825 893.19 C 896.094 905.64 888.499 918.742 882.148 931.158 L 880.598 930.65 C 886.875 917.984 894.317 903.775 900.149 891.258 z" fill="rgb(35,13,5)" transform="translate(0,0)"></path>
<path d="M 1096.35 1214.35 L 1086.32 1218.45 C 1083.12 1219.79 1054.83 1231.46 1053.58 1230.5 C 1053.88 1230.05 1089.58 1214.65 1093 1213.59 L 1094.26 1213.16 L 1096.35 1214.35 z" fill="rgb(161,72,14)" transform="translate(0,0)"></path>
<path d="M 1147.71 1108.06 L 1148.02 1111.08 C 1142.59 1114.09 1128.21 1121.61 1123.87 1125.13 L 1122.55 1123.56 C 1130.73 1119.48 1139.7 1112.73 1147.71 1108.06 z" fill="rgb(73,28,8)" transform="translate(0,0)"></path>
<path d="M 1156.3 930.295 L 1158.51 932.497 C 1156.37 934.228 1154.33 936.023 1152.18 937.758 C 1151.3 938.733 1151.34 938.623 1150.17 939.381 C 1147.25 942.183 1143.62 945.194 1140.96 948.003 L 1138.66 947.314 C 1142.33 944.693 1152.41 934.037 1156.3 930.295 z" fill="rgb(73,28,8)" transform="translate(0,0)"></path>
<path d="M 1116.42 1166.78 L 1117.74 1169.51 C 1111.88 1172.81 1104.24 1176.07 1098.04 1179.2 L 1096.51 1177.92 C 1103.12 1174.12 1109.78 1170.68 1116.42 1166.78 z" fill="rgb(35,13,5)" transform="translate(0,0)"></path>
<path d="M 1062.8 871.116 L 1063 875.155 C 1058.47 880.137 1053.53 885 1049.22 890.087 L 1047.43 889.27 C 1052.56 883.239 1057.57 877.059 1062.8 871.116 z" fill="rgb(35,13,5)" transform="translate(0,0)"></path>
<path d="M 1138.16 1069.57 C 1143.96 1065.6 1153.93 1056.5 1159.17 1053.54 L 1160.97 1055.11 C 1155.98 1058.74 1144.12 1066.46 1140.25 1070.04 L 1138.16 1069.57 z" fill="rgb(100,41,8)" transform="translate(0,0)"></path>
<path d="M 1042.7 897.001 C 1040.8 899.394 1028.41 914.117 1026.16 913.917 L 1025.93 913.32 C 1026.45 911.319 1038.53 898.463 1040.22 896.984 L 1042.7 897.001 z" fill="rgb(192,96,21)" transform="translate(0,0)"></path>
<path d="M 1154.81 998.783 L 1157.11 1000.57 C 1152.36 1004.47 1147.8 1008 1143.06 1012.02 L 1140.51 1011.82 C 1145.25 1007.38 1150.15 1003.19 1154.81 998.783 z" fill="rgb(35,13,5)" transform="translate(0,0)"></path>
<path d="M 938.847 896.825 C 934.344 903.458 929.316 909.889 924.759 916.508 L 923.857 914.819 C 926.968 910.434 929.939 905.952 932.767 901.38 C 933.797 899.688 933.176 900.583 934.251 899.155 L 938.847 896.825 z" fill="rgb(100,41,8)" transform="translate(0,0)"></path>
<path d="M 1094.26 1213.16 C 1100.36 1210.59 1105.19 1207.87 1111.62 1205.42 L 1111.24 1208.36 C 1108.17 1209.49 1098.93 1213.04 1096.35 1214.35 L 1094.26 1213.16 z" fill="rgb(35,13,5)" transform="translate(0,0)"></path>
<path d="M 1104.87 906.278 C 1108.43 902.435 1112.21 898.35 1115.7 894.466 L 1116.94 897.227 C 1113.72 900.56 1110.36 903.715 1107.1 907.019 L 1104.87 906.278 z" fill="rgb(35,13,5)" transform="translate(0,0)"></path>
<path d="M 880.598 930.65 L 882.148 931.158 L 881.892 931.827 C 880.31 936.074 877.649 940.439 875.809 944.624 C 875.387 945.585 874.956 946.583 874.159 947.316 C 873.916 947.539 873.48 947.458 873.359 947.085 C 873.35 944.134 879.798 931.977 880.598 930.65 z" fill="rgb(161,72,14)" transform="translate(0,0)"></path>
<path d="M 1122.55 1123.56 L 1123.87 1125.13 C 1121.55 1126.47 1112.02 1132.58 1110.03 1131.88 L 1109.86 1131.46 C 1110.21 1130.5 1111.08 1129.72 1111.99 1129.32 C 1113.83 1128.5 1115.61 1127.54 1117.3 1126.45 C 1119.62 1124.94 1119.88 1124.74 1122.55 1123.56 z" fill="rgb(192,96,21)" transform="translate(0,0)"></path>
<path d="M 1169.57 1045.67 L 1170.95 1048.1 C 1167.64 1050.51 1164.24 1052.64 1160.97 1055.11 L 1159.17 1053.54 C 1162.6 1050.96 1166.1 1048.16 1169.57 1045.67 z" fill="rgb(35,13,5)" transform="translate(0,0)"></path>
<path d="M 934.251 899.155 C 936.768 895.368 939.235 891.548 941.652 887.697 L 943.855 889.797 C 942.318 892.094 940.486 894.561 938.847 896.825 L 934.251 899.155 z" fill="rgb(35,13,5)" transform="translate(0,0)"></path>
<path d="M 854.446 908.924 L 856.086 910.136 C 854.106 914.701 852.171 919.285 850.281 923.888 L 849.846 924.929 L 848.438 923.769 C 850.232 919.737 852.667 912.097 854.446 908.924 z" fill="rgb(73,28,8)" transform="translate(0,0)"></path>
<path d="M 1143.06 1012.02 C 1141.32 1013.68 1134.47 1020.25 1132.39 1020.07 C 1130.74 1018.56 1139.11 1012.56 1140.51 1011.82 L 1143.06 1012.02 z" fill="rgb(161,72,14)" transform="translate(0,0)"></path>
<path d="M 923.857 914.819 L 924.759 916.508 C 922.653 919.921 918.708 925.456 915.984 928.457 L 915.618 928.436 C 915.539 928.345 915.459 928.255 915.379 928.164 C 915.63 926.184 922.347 916.67 923.857 914.819 z" fill="rgb(161,72,14)" transform="translate(0,0)"></path>
<path d="M 845.119 931.009 C 847.31 927.849 846.886 927.45 848.438 923.769 L 849.846 924.929 C 845.63 936.952 847.193 925.848 845.74 939.65 C 844.379 937.244 844.869 933.726 845.119 931.009 z" fill="rgb(161,72,14)" transform="translate(0,0)"></path>
<path d="M 1085.75 1183.41 C 1089 1181.94 1091.93 1180 1095.07 1178.61 L 1096.51 1177.92 L 1098.04 1179.2 C 1094.04 1181.24 1089.95 1182.91 1086.15 1185.2 L 1085.75 1183.41 z" fill="rgb(100,41,8)" transform="translate(0,0)"></path>
<path d="M 1101.08 913.013 C 1092.1 922.516 1086.43 923.632 1098.29 913.108 L 1101.08 913.013 z" fill="rgb(161,72,14)" transform="translate(0,0)"></path>
<path d="M 1086.15 1185.2 C 1074.4 1191.36 1074.11 1188.93 1085.75 1183.41 L 1086.15 1185.2 z" fill="rgb(192,96,21)" transform="translate(0,0)"></path>
<path d="M 1040.22 896.984 C 1042.79 894.443 1045.05 891.438 1047.43 889.27 L 1049.22 890.087 C 1047.08 892.428 1044.91 894.733 1042.7 897.001 L 1040.22 896.984 z" fill="rgb(100,41,8)" transform="translate(0,0)"></path>
<path d="M 1104.87 906.278 L 1107.1 907.019 C 1105.08 909.021 1102.98 910.921 1101.08 913.013 L 1098.29 913.108 C 1100.49 910.828 1102.64 908.531 1104.87 906.278 z" fill="rgb(73,28,8)" transform="translate(0,0)"></path>
<path d="M 974.351 910.786 L 976.302 911.001 C 971.82 917.482 967.257 917.446 974.351 910.786 z" fill="rgb(192,96,21)" transform="translate(0,0)"></path>
<path d="M 1140.25 1070.04 C 1135.42 1074.14 1128.63 1076.46 1138.16 1069.57 L 1140.25 1070.04 z" fill="rgb(192,96,21)" transform="translate(0,0)"></path>
<path d="M 1138.66 947.314 L 1140.96 948.003 C 1140.27 948.725 1137.71 951.876 1136.48 951.512 C 1136.31 951.461 1136.18 951.31 1136.16 951.128 C 1136.03 950.162 1137.04 949.204 1137.61 948.557 L 1138.66 947.314 z" fill="rgb(161,72,14)" transform="translate(0,0)"></path>
<path d="M 673.152 706.416 C 682.878 705.364 704.751 705.911 714.961 705.916 L 796.772 706.127 C 799.82 725.376 802.634 753.907 804.223 773.386 L 729.645 773.607 C 724.225 773.627 717.045 773.963 711.893 773.677 C 681.434 771.986 653.801 777.026 638.708 806.6 C 633.865 816.089 632.995 823.645 633.002 834.539 C 633.081 954.827 633.118 1075.16 633.092 1195.44 L 633.019 1305.7 C 632.97 1319.93 631.995 1354.48 633.748 1367.29 C 635.515 1379.87 641.404 1391.51 650.493 1400.39 C 671.442 1420.99 696.568 1417.34 723.388 1417.36 L 803.49 1417.33 L 1095.37 1417.19 C 1116.24 1417.09 1132.41 1415.48 1148.31 1399.21 C 1166.92 1380.17 1164.46 1353.26 1164.21 1328.59 L 1163.71 1283.84 C 1180.95 1289.31 1217.55 1298.14 1231.31 1303.89 C 1232.06 1316.62 1231.38 1330.39 1231.67 1343.11 C 1232.6 1383.32 1229.08 1413.76 1202.66 1446.18 C 1180.97 1472.7 1149.67 1489.55 1115.59 1493.05 C 1092.56 1495.32 1048.36 1493.93 1023.88 1493.91 L 849.039 1493.78 L 735.278 1493.79 C 683.274 1494.05 647.127 1499.26 603.762 1463.2 C 579.094 1442.31 563.544 1412.63 560.417 1380.46 C 559.207 1366.78 559.805 1350.02 559.868 1335.96 L 559.903 1271.55 L 560.021 1046.91 L 559.95 892.97 C 559.765 849.181 553.309 797.914 578.745 760.132 C 600.936 727.169 634.006 709.637 673.152 706.416 z" fill="rgb(245,158,11)" transform="translate(0,0)"></path>
<path d="M 710.965 839.089 C 743.61 838.174 779.767 838.928 812.688 838.909 C 812.896 857.093 818.224 890.512 820.757 909.46 C 803.402 909.705 786.044 909.773 768.687 909.663 L 768.16 1287.2 L 1024.61 1287 C 1024.51 1272.96 1024.31 1258.93 1024 1244.91 C 1034.36 1248 1091.51 1263.35 1094.97 1267.06 C 1095.02 1286.19 1095.06 1305.13 1095.04 1324.46 C 1095.03 1339.23 1095.38 1354.11 1075.79 1354.48 C 1050.33 1354.96 1024.69 1354.72 999.215 1354.72 L 852.558 1354.67 L 761.75 1354.85 C 746.536 1354.89 730.036 1355.33 714.875 1354.3 C 709.928 1353.97 705.35 1350.57 701.784 1347.33 C 698.691 1328.12 699.943 1276.14 699.934 1253.21 L 699.936 1073.88 L 699.905 922.313 C 699.872 899.369 699.454 874.649 700.288 851.639 C 700.482 846.288 706.896 842.025 710.965 839.089 z" fill="rgb(245,158,11)" transform="translate(0,0)"></path>
<path d="M 836.308 854.059 C 858.336 815.072 877.535 772.912 900.575 734.05 C 926.988 689.497 956.444 646.504 982.791 602.037 C 975.558 623.552 963.132 650.933 954.102 672.138 C 937.547 711.913 920.759 751.591 903.738 791.169 C 892.54 816.941 874.583 855.787 865.469 881.741 L 867.097 885.372 C 864.425 891.059 857.92 904.7 856.086 910.136 L 854.446 908.924 C 852.667 912.097 850.232 919.737 848.438 923.769 C 846.886 927.45 847.31 927.849 845.119 931.009 C 841.583 912.736 838.506 873.948 836.308 854.059 z" fill="rgb(245,158,11)" transform="translate(0,0)"></path>
<path d="M 865.469 881.741 L 867.097 885.372 C 864.425 891.059 857.92 904.7 856.086 910.136 L 854.446 908.924 C 857.637 900.357 861.73 890.023 865.469 881.741 z" fill="rgb(35,13,5)" transform="translate(0,0)"></path>
<path d="M 1376.28 1158.89 L 1377.94 1160.9 C 1344.47 1173.31 1313.49 1189.33 1281.21 1202.41 C 1234.21 1221.44 1184.14 1240.8 1136.27 1257.05 C 1123.97 1252.9 1109.23 1249.19 1096.42 1245.21 C 1188.09 1211.42 1281.51 1182.61 1376.28 1158.89 z" fill="rgb(245,158,11)" transform="translate(0,0)"></path>
<path d="M 919.621 636.039 C 919.692 637.781 919.773 639.523 919.863 641.265 C 917.508 646.017 912.414 660.502 910.17 666.103 C 900.796 689.319 891.61 712.611 882.612 735.975 C 868.81 771.094 851.179 809.203 835.885 844.009 C 833.518 825.594 830.278 805.575 828.741 787.235 C 857.767 735.608 889.344 686.652 919.621 636.039 z" fill="rgb(245,158,11)" transform="translate(0,0)"></path>
<path d="M 1326.08 1216.86 L 1326.94 1218.98 C 1281.02 1234.93 1238.11 1255.79 1190.06 1271.09 C 1174.98 1267.2 1160.19 1263.42 1145.27 1258.97 C 1183.55 1248.39 1225.06 1240.07 1263.73 1230.93 C 1281.94 1226.63 1308.7 1222.19 1326.08 1216.86 z" fill="rgb(245,158,11)" transform="translate(0,0)"></path>
<path d="M 877.739 656.808 C 877.795 662.379 833.704 769.345 828.697 776.305 L 827.732 775.657 C 826.339 764.093 825.022 752.521 823.782 740.941 C 842.184 713.166 860.172 685.118 877.739 656.808 z" fill="rgb(245,158,11)" transform="translate(0,0)"></path>
<path d="M 1198.49 1273.94 C 1219.39 1269.36 1239.3 1266.56 1260.5 1264.07 L 1274.17 1262.47 C 1276.12 1263.32 1276.05 1263.37 1277.81 1264.74 C 1262.69 1270.02 1243.33 1275.81 1227.92 1280.29 C 1218.19 1277.79 1208.38 1275.67 1198.49 1273.94 z" fill="rgb(245,158,11)" transform="translate(0,0)"></path>
<path d="M 840.707 679.768 C 840.887 684.108 824.759 723.208 822.48 725.338 C 821.446 720.889 820.446 716.438 819.404 711.99 C 826.371 701.856 832.6 691.683 839.567 681.456 L 840.707 679.768 z" fill="rgb(245,158,11)" transform="translate(0,0)"></path>
<path d="M 1274.17 1262.47 C 1277.95 1261.36 1286.15 1260.69 1290.47 1260.12 C 1286.03 1262.19 1282.71 1263.74 1277.81 1264.74 C 1276.05 1263.37 1276.12 1263.32 1274.17 1262.47 z" fill="rgb(192,96,21)" transform="translate(0,0)"></path>
<path d="M 1611.75 429.848 C 1616.12 425.121 1618.62 423.345 1623.51 419.52 C 1620.2 423.965 1617.02 428.322 1613.12 432.268 L 1611.75 429.848 z" fill="rgb(161,72,14)" transform="translate(0,0)"></path>
<path d="M 1463.6 1006.6 C 1459.61 1010.68 1457.36 1011.92 1452.7 1015.21 L 1451.99 1012.45 C 1455.59 1010.18 1459.72 1008.41 1463.6 1006.6 z" fill="rgb(192,96,21)" transform="translate(0,0)"></path>
<path d="M 1344.72 500.686 C 1348.03 496.787 1349.29 495.228 1353.34 492.306 L 1354.48 491.472 C 1351.47 495.79 1349.37 499.022 1346.01 503.128 L 1344.72 500.686 z" fill="rgb(192,96,21)" transform="translate(0,0)"></path>
<path d="M 1486.97 922.915 C 1491.14 920.11 1494.4 918.774 1499 916.738 C 1495.14 919.891 1492.17 922.341 1487.97 925.114 L 1486.97 922.915 z" fill="rgb(192,96,21)" transform="translate(0,0)"></path>
<path d="M 1242.26 519.617 C 1240.15 524.433 1239.42 527.015 1236.34 531.466 L 1234.66 529.55 C 1237.19 525.704 1239.41 523.118 1242.26 519.617 z" fill="rgb(192,96,21)" transform="translate(0,0)"></path>
<path d="M 919.621 636.039 C 920.273 633.839 923.855 628.212 925.246 625.921 C 923.289 632.388 922.25 635.158 919.863 641.265 C 919.773 639.523 919.692 637.781 919.621 636.039 z" fill="rgb(192,96,21)" transform="translate(0,0)"></path>
<path d="M 1550.8 709.453 C 1551.45 708.853 1556.16 704.376 1557.34 705.459 C 1557.76 706.8 1553.13 710.499 1552.29 711.259 L 1550.8 709.453 z" fill="rgb(192,96,21)" transform="translate(0,0)"></path>
<path d="M 1520.7 821.425 C 1521.83 820.355 1525.57 817.124 1527.21 817.545 C 1527.96 818.833 1522.93 822.452 1522.04 823.142 L 1520.7 821.425 z" fill="rgb(192,96,21)" transform="translate(0,0)"></path>
<path d="M 1376.28 1158.89 C 1377.77 1158.45 1382.88 1156.65 1384.04 1157.48 C 1385.58 1158.59 1377.93 1160.91 1377.94 1160.9 L 1376.28 1158.89 z" fill="rgb(192,96,21)" transform="translate(0,0)"></path>
<path d="M 1419.58 1088.5 C 1429 1085.38 1425.57 1088.71 1419.41 1091.24 L 1419.58 1088.5 z" fill="rgb(192,96,21)" transform="translate(0,0)"></path>
<path d="M 1140.57 550.29 L 1142.29 552.147 C 1141.04 554.605 1139.9 556.718 1138.52 559.109 C 1138.71 557.047 1138.91 554.987 1139.13 552.928 C 1139.61 552.023 1140.06 551.181 1140.57 550.29 z" fill="rgb(192,96,21)" transform="translate(0,0)"></path>
<path d="M 1140.57 550.29 C 1141.31 549.356 1143.4 546.26 1144.5 545.91 C 1145.87 546.577 1142.62 551.582 1142.29 552.147 L 1140.57 550.29 z" fill="rgb(161,72,14)" transform="translate(0,0)"></path>
<path d="M 1326.08 1216.86 C 1326.83 1216.65 1331.56 1214.99 1332.14 1216.47 C 1331.48 1217.83 1328.13 1218.58 1326.94 1218.98 L 1326.08 1216.86 z" fill="rgb(161,72,14)" transform="translate(0,0)"></path>
<metadata><recraft-signature>{"signed_by": "recraft", "signature_b64": "334JFla1TCe//XfCiMJQdvmtlU9+bMPACs3VGEN+RGsF68u8OOIcXOD1BKT3qSrNmBCn9sLegsV8LTiHP/F9Bg==", "signing_algo": "Ed25519", "generation_timestamp": 1773297094, "identifier": "097d80a3-c5e9-40a9-b971-073cba547854"}</recraft-signature></metadata></svg>